<?xml version="1.0" encoding="UTF-8" standalone="no"?>
<!-- Created with Inkscape (http://www.inkscape.org/) -->

<svg
   xmlns:dc="http://purl.org/dc/elements/1.1/"
   xmlns:cc="http://creativecommons.org/ns#"
   xmlns:rdf="http://www.w3.org/1999/02/22-rdf-syntax-ns#"
   xmlns:svg="http://www.w3.org/2000/svg"
   xmlns="http://www.w3.org/2000/svg"
   xmlns:sodipodi="http://sodipodi.sourceforge.net/DTD/sodipodi-0.dtd"
   xmlns:inkscape="http://www.inkscape.org/namespaces/inkscape"
   width="133.875"
   height="30.375"
   id="svg5021"
   version="1.1"
   inkscape:version="0.48.4 r9939"
   sodipodi:docname="Novo documento 4">
  <defs
     id="defs5023">
    <clipPath
       id="clipPath3459"
       clipPathUnits="userSpaceOnUse">
      <path
         inkscape:connector-curvature="0"
         id="path3461"
         clip-rule="evenodd"
         d="m 56.7,263.8 110,0 0,27.1 -110,0 0,-27.1 z" />
    </clipPath>
  </defs>
  <sodipodi:namedview
     id="base"
     pagecolor="#ffffff"
     bordercolor="#666666"
     borderopacity="1.0"
     inkscape:pageopacity="0.0"
     inkscape:pageshadow="2"
     inkscape:zoom="5.6"
     inkscape:cx="58.089286"
     inkscape:cy="7.6994113"
     inkscape:document-units="px"
     inkscape:current-layer="layer1"
     showgrid="false"
     fit-margin-top="0"
     fit-margin-left="0"
     fit-margin-right="0"
     fit-margin-bottom="0"
     inkscape:window-width="1366"
     inkscape:window-height="719"
     inkscape:window-x="0"
     inkscape:window-y="0"
     inkscape:window-maximized="1" />
  <metadata
     id="metadata5026">
    <rdf:RDF>
      <cc:Work
         rdf:about="">
        <dc:format>image/svg+xml</dc:format>
        <dc:type
           rdf:resource="http://purl.org/dc/dcmitype/StillImage" />
        <dc:title></dc:title>
      </cc:Work>
    </rdf:RDF>
  </metadata>
  <g
     inkscape:label="Camada 1"
     inkscape:groupmode="layer"
     id="layer1"
     transform="translate(-804.49107,-685.7461)">
    <g
       id="g3455"
       transform="matrix(1.25,0,0,-1.25,731.74107,1047.6211)">
      <g
         id="g3457"
         clip-path="url(#clipPath3459)">
        <path
           inkscape:connector-curvature="0"
           d="m 65.1,280.2 c 0.5,0.9 1,1 1.5,1 0.1,0 0.1,0.2 0.1,0.2 0,0.1 0,0.2 -0.1,0.2 -0.3,0 -0.7,-0.1 -1,-0.1 -0.4,0 -0.8,0.1 -1.2,0.1 -0.1,0 -0.2,0 -0.2,-0.3 0,-0.1 0.1,-0.1 0.2,-0.1 0.3,0 0.5,-0.1 0.5,-0.4 0,-0.2 -0.2,-0.4 -0.2,-0.4 l -3.6,-5.8 -0.8,6.2 c 0,0.2 0.2,0.4 0.8,0.4 0.2,0 0.3,0 0.3,0.2 0,0.1 -0.1,0.2 -0.2,0.2 -0.4,0 -1,-0.1 -1.5,-0.1 -0.2,0 -0.4,0 -0.6,0 -0.2,0 -0.4,0.1 -0.6,0.1 -0.2,0 -0.3,0 -0.3,-0.3 0,-0.1 0.1,-0.1 0.3,-0.1 0.7,0 0.7,-0.1 0.7,-0.4 l 1,-7.3 c 0,-0.2 0,-0.3 0.2,-0.3 0.2,0 0.3,0.1 0.4,0.3 l 4.3,6.7 z"
           style="fill:#000000;fill-opacity:1;fill-rule:evenodd;stroke:none"
           id="path3463" />
        <path
           inkscape:connector-curvature="0"
           d="m 70.7,279.1 c 0,-0.2 -0.1,-0.5 -0.1,-0.5 0,-0.2 0.2,-0.3 0.3,-0.3 0.1,0 0.3,0.1 0.3,0.2 0,0.1 0.1,0.3 0.2,0.5 0,0.2 0.1,0.5 0.2,0.7 0,0.2 0.1,0.4 0.1,0.6 0.1,0.4 0.1,0.4 0.3,0.6 0.2,0.4 0.6,0.9 1.3,0.9 0.5,0 0.5,-0.4 0.5,-0.6 0,-0.5 -0.4,-1.4 -0.5,-1.7 -0.1,-0.3 -0.1,-0.3 -0.1,-0.5 0,-0.4 0.3,-0.7 0.8,-0.7 0.8,0 1.2,1.1 1.2,1.3 0,0.1 -0.1,0.1 -0.2,0.1 -0.1,0 -0.1,-0.1 -0.1,-0.2 -0.2,-0.6 -0.6,-1 -0.9,-1 -0.2,0 -0.2,0.1 -0.2,0.3 0,0.2 0,0.3 0.2,0.7 0.1,0.2 0.4,1.1 0.4,1.6 0,0.1 0,0.5 -0.3,0.7 -0.1,0.1 -0.4,0.2 -0.8,0.2 -0.7,0 -1.2,-0.5 -1.4,-0.8 -0.1,0.7 -0.7,0.8 -1.1,0.8 -0.7,0 -1.2,-0.4 -1.4,-0.7 -0.1,0.6 -0.6,0.7 -1,0.7 -0.3,0 -0.5,-0.2 -0.6,-0.4 -0.2,-0.3 -0.3,-0.8 -0.3,-0.8 0,-0.1 0.1,-0.1 0.1,-0.1 0.2,0 0.2,0 0.2,0.2 0.1,0.5 0.3,0.9 0.6,0.9 0.2,0 0.3,-0.2 0.3,-0.4 0,-0.2 -0.1,-0.5 -0.1,-0.7 -0.1,-0.2 -0.2,-0.6 -0.2,-0.7 l -0.3,-1.1 c 0,-0.1 -0.1,-0.3 -0.1,-0.3 0,-0.2 0.2,-0.3 0.3,-0.3 0.2,0 0.3,0.1 0.3,0.2 0.1,0.1 0.1,0.3 0.2,0.5 0,0.2 0.1,0.5 0.2,0.7 0,0.2 0.1,0.4 0.1,0.6 0.1,0.3 0.1,0.4 0.4,0.7 0.2,0.4 0.6,0.8 1.2,0.8 0.5,0 0.5,-0.4 0.5,-0.6 0,-0.2 0,-0.3 -0.1,-0.8 l -0.4,-1.3 z"
           style="fill:#000000;fill-opacity:1;fill-rule:evenodd;stroke:none"
           id="path3465" />
        <path
           inkscape:connector-curvature="0"
           d="m 66.5,271.5 c -0.1,-0.3 -0.3,-0.7 -0.7,-0.7 -0.1,0 -0.3,0 -0.5,0.1 0.3,0.1 0.4,0.4 0.4,0.4 0,0.2 -0.2,0.3 -0.4,0.3 -0.2,0 -0.5,-0.2 -0.5,-0.5 0,-0.4 0.5,-0.6 0.9,-0.6 0.4,0 0.8,0.3 1,0.6 0.2,-0.4 0.6,-0.6 1,-0.6 0.9,0 1.4,1.1 1.4,1.3 0,0.1 -0.1,0.1 -0.1,0.1 -0.1,0 -0.1,0 -0.2,-0.1 -0.1,-0.6 -0.6,-1 -1.1,-1 -0.3,0 -0.5,0.2 -0.5,0.5 0,0.2 0.2,1 0.4,1.9 0.2,0.6 0.6,0.8 0.8,0.8 0.1,0 0.3,0 0.5,-0.1 -0.3,-0.1 -0.4,-0.3 -0.4,-0.4 0,-0.2 0.2,-0.3 0.4,-0.3 0.1,0 0.5,0.1 0.5,0.5 0,0.4 -0.6,0.6 -0.9,0.6 -0.5,0 -0.8,-0.3 -1,-0.6 -0.1,0.3 -0.5,0.6 -1,0.6 -0.9,0 -1.4,-1.1 -1.4,-1.3 0,-0.1 0.1,-0.1 0.1,-0.1 0.1,0 0.1,0 0.2,0.1 0.2,0.7 0.7,1 1.1,1 0.3,0 0.5,-0.1 0.5,-0.5 0,-0.2 -0.1,-0.6 -0.2,-0.9 l -0.3,-1.1 z"
           style="fill:#000000;fill-opacity:1;fill-rule:evenodd;stroke:none"
           id="path3467" />
        <path
           inkscape:connector-curvature="0"
           d="m 87.7,277.4 c 0.1,0 0.4,0 0.4,0.2 0,0.3 -0.3,0.3 -0.4,0.3 l -7.2,0 c -0.1,0 -0.4,0 -0.4,-0.3 0,-0.2 0.3,-0.2 0.4,-0.2 l 7.2,0 z m 0,-2.3 c 0.1,0 0.4,0 0.4,0.2 0,0.2 -0.3,0.2 -0.4,0.2 l -7.2,0 c -0.1,0 -0.4,0 -0.4,-0.2 0,-0.2 0.3,-0.2 0.4,-0.2 l 7.2,0 z"
           style="fill:#000000;fill-opacity:1;fill-rule:evenodd;stroke:none"
           id="path3469" />
        <path
           inkscape:connector-curvature="0"
           d="m 94.9,282.4 1.3,1.2 c 1.9,1.6 2.6,2.2 2.6,3.4 0,1.4 -1.1,2.3 -2.6,2.3 -1.3,0 -2.2,-1.1 -2.2,-2.1 0,-0.7 0.6,-0.7 0.6,-0.7 0.2,0 0.6,0.2 0.6,0.6 0,0.3 -0.2,0.6 -0.6,0.6 -0.1,0 -0.1,0 -0.1,0 0.2,0.8 0.9,1.2 1.6,1.2 1.1,0 1.6,-0.9 1.6,-1.9 0,-0.9 -0.6,-1.9 -1.3,-2.6 l -2.3,-2.5 C 94,281.8 94,281.7 94,281.5 l 4.4,0 0.4,2 -0.3,0 c -0.1,-0.3 -0.2,-0.9 -0.3,-1 -0.1,-0.1 -0.9,-0.1 -1.1,-0.1 l -2.2,0 z"
           style="fill:#000000;fill-opacity:1;fill-rule:evenodd;stroke:none"
           id="path3471" />
        <path
           inkscape:connector-curvature="0"
           d="m 106.8,288.2 c 0.6,0.9 1.1,0.9 1.5,0.9 0.2,0 0.2,0.2 0.2,0.3 0,0.1 -0.1,0.1 -0.2,0.1 -0.3,0 -0.6,0 -0.9,0 -0.4,0 -0.8,0 -1.2,0 -0.1,0 -0.3,0 -0.3,-0.2 0,-0.2 0.2,-0.2 0.2,-0.2 0.4,0 0.6,-0.1 0.6,-0.4 0,-0.1 -0.2,-0.4 -0.2,-0.4 l -3.6,-5.7 -0.8,6.2 c 0,0.2 0.2,0.3 0.8,0.3 0.1,0 0.3,0 0.3,0.3 0,0.1 -0.1,0.1 -0.2,0.1 -0.5,0 -1,0 -1.5,0 -0.2,0 -0.4,0 -0.6,0 -0.3,0 -0.5,0 -0.7,0 -0.1,0 -0.2,0 -0.2,-0.2 0,-0.2 0.1,-0.2 0.3,-0.2 0.7,0 0.7,-0.1 0.7,-0.4 l 1,-7.2 c 0,-0.3 0,-0.3 0.2,-0.3 0.2,0 0.2,0.1 0.3,0.2 l 4.3,6.8 z"
           style="fill:#000000;fill-opacity:1;fill-rule:evenodd;stroke:none"
           id="path3473" />
        <path
           inkscape:connector-curvature="0"
           d="m 110.5,281.2 -0.3,0 c 0,-0.2 -0.1,-0.7 -0.2,-0.8 -0.1,0 -0.7,0 -0.9,0 l -1.5,0 c 0.9,0.8 1.2,1 1.7,1.4 0.6,0.5 1.2,1 1.2,1.8 0,1 -0.9,1.6 -2,1.6 -1,0 -1.7,-0.8 -1.7,-1.5 0,-0.4 0.3,-0.5 0.4,-0.5 0.2,0 0.4,0.2 0.4,0.5 0,0.1 0,0.4 -0.4,0.4 0.2,0.6 0.8,0.8 1.2,0.8 0.8,0 1.3,-0.7 1.3,-1.3 0,-0.8 -0.6,-1.3 -0.8,-1.6 l -2.1,-2 c 0,-0.1 0,-0.1 0,-0.3 l 3.4,0 0.3,1.5 z"
           style="fill:#000000;fill-opacity:1;fill-rule:evenodd;stroke:none"
           id="path3475" />
        <path
           inkscape:connector-curvature="0"
           d="m 122.1,284.2 c 0.2,0 0.4,0 0.4,0.2 0,0.3 -0.2,0.3 -0.4,0.3 l -6.5,0 c -0.2,0 -0.4,0 -0.4,-0.3 0,-0.2 0.2,-0.2 0.4,-0.2 l 6.5,0 z"
           style="fill:#000000;fill-opacity:1;fill-rule:evenodd;stroke:none"
           id="path3477" />
        <path
           inkscape:connector-curvature="0"
           d="m 133.6,288.2 c 0.5,0.9 1.1,0.9 1.5,0.9 0.1,0 0.2,0.2 0.2,0.3 0,0.1 -0.1,0.1 -0.2,0.1 -0.3,0 -0.7,0 -1,0 -0.4,0 -0.8,0 -1.2,0 0,0 -0.2,0 -0.2,-0.2 0,-0.2 0.1,-0.2 0.2,-0.2 0.3,0 0.5,-0.1 0.5,-0.4 0,-0.1 -0.1,-0.4 -0.1,-0.4 l -3.7,-5.7 -0.8,6.2 c 0,0.2 0.3,0.3 0.8,0.3 0.2,0 0.3,0 0.3,0.3 0,0.1 -0.1,0.1 -0.2,0.1 -0.4,0 -0.9,0 -1.4,0 -0.3,0 -0.5,0 -0.7,0 -0.2,0 -0.4,0 -0.6,0 -0.1,0 -0.3,0 -0.3,-0.2 0,-0.2 0.1,-0.2 0.3,-0.2 0.7,0 0.7,-0.1 0.7,-0.4 l 1,-7.2 c 0,-0.3 0.1,-0.3 0.2,-0.3 0.2,0 0.3,0.1 0.4,0.2 l 4.3,6.8 z"
           style="fill:#000000;fill-opacity:1;fill-rule:evenodd;stroke:none"
           id="path3479" />
        <path
           inkscape:connector-curvature="0"
           d="m 135.8,284.9 c 0,0.3 0,0.3 -0.2,0.3 -0.6,-0.6 -1.4,-0.6 -1.7,-0.6 l 0,-0.3 c 0.2,0 0.8,0 1.2,0.3 l 0,-4.2 c 0,-0.3 0,-0.4 -0.8,-0.4 l -0.3,0 0,-0.3 c 0.1,0 1.2,0 1.5,0 0.2,0 1.3,0 1.5,0 l 0,0.3 -0.4,0 c -0.8,0 -0.8,0.1 -0.8,0.4 l 0,4.5 z"
           style="fill:#000000;fill-opacity:1;fill-rule:evenodd;stroke:none"
           id="path3481" />
        <path
           inkscape:connector-curvature="0"
           d="m 148.8,284.2 c 0.2,0 0.5,0 0.5,0.2 0,0.3 -0.3,0.3 -0.5,0.3 l -6.4,0 c -0.2,0 -0.4,0 -0.4,-0.3 0,-0.2 0.2,-0.2 0.4,-0.2 l 6.4,0 z"
           style="fill:#000000;fill-opacity:1;fill-rule:evenodd;stroke:none"
           id="path3483" />
        <path
           inkscape:connector-curvature="0"
           d="m 160.3,288.2 c 0.6,0.9 1.1,0.9 1.6,0.9 0.1,0 0.1,0.2 0.1,0.3 0,0.1 0,0.1 -0.1,0.1 -0.3,0 -0.7,0 -1,0 -0.4,0 -0.8,0 -1.2,0 -0.1,0 -0.2,0 -0.2,-0.2 0,-0.2 0.1,-0.2 0.2,-0.2 0.3,0 0.5,-0.1 0.5,-0.4 0,-0.1 -0.2,-0.4 -0.2,-0.4 l -3.6,-5.7 -0.8,6.2 c 0,0.2 0.2,0.3 0.8,0.3 0.2,0 0.3,0 0.3,0.3 0,0.1 -0.1,0.1 -0.2,0.1 -0.5,0 -1,0 -1.5,0 -0.2,0 -0.4,0 -0.6,0 -0.3,0 -0.5,0 -0.7,0 -0.1,0 -0.2,0 -0.2,-0.2 0,-0.2 0.1,-0.2 0.3,-0.2 0.7,0 0.7,-0.1 0.7,-0.4 l 1,-7.2 c 0,-0.3 0,-0.3 0.2,-0.3 0.2,0 0.2,0.1 0.3,0.2 l 4.3,6.8 z"
           style="fill:#000000;fill-opacity:1;fill-rule:evenodd;stroke:none"
           id="path3485" />
        <path
           inkscape:connector-curvature="0"
           d="m 162,282.4 c 0.7,0 1.2,-0.4 1.2,-1.3 0,-1 -0.6,-1.3 -1.1,-1.3 -0.4,0 -1.1,0.1 -1.5,0.6 0.5,0 0.6,0.3 0.6,0.4 0,0.3 -0.2,0.5 -0.5,0.5 -0.3,0 -0.5,-0.2 -0.5,-0.5 0,-0.8 0.9,-1.3 1.9,-1.3 1.2,0 2,0.8 2,1.6 0,0.7 -0.6,1.3 -1.5,1.5 0.9,0.3 1.2,0.9 1.2,1.4 0,0.7 -0.7,1.2 -1.7,1.2 -0.9,0 -1.6,-0.5 -1.6,-1.1 0,-0.3 0.1,-0.5 0.4,-0.5 0.3,0 0.4,0.2 0.4,0.4 0,0.3 -0.1,0.5 -0.4,0.5 0.3,0.3 0.9,0.4 1.2,0.4 0.4,0 0.9,-0.2 0.9,-0.9 0,-0.3 -0.1,-0.7 -0.4,-1 -0.2,-0.3 -0.5,-0.3 -0.9,-0.3 -0.2,0 -0.2,0 -0.2,0 0,0 -0.1,0 -0.1,-0.1 0,-0.2 0.1,-0.2 0.2,-0.2 l 0.4,0 z"
           style="fill:#000000;fill-opacity:1;fill-rule:evenodd;stroke:none"
           id="path3487" />
        <path
           inkscape:connector-curvature="0"
           d="m 129.3,276.2 -35.9,0 0,0.5 71.9,0 0,-0.5 -36,0 z"
           style="fill:#000000;fill-opacity:1;fill-rule:evenodd;stroke:none"
           id="path3489" />
        <path
           inkscape:connector-curvature="0"
           d="m 129.8,269.6 c 1,0.3 1.7,1.1 1.7,2.1 0,0.9 -1.1,1.6 -2.2,1.6 -1.3,0 -2.1,-0.7 -2.1,-1.6 0,-0.4 0.2,-0.6 0.6,-0.6 0.4,0 0.6,0.2 0.6,0.6 0,0.6 -0.6,0.6 -0.8,0.6 0.4,0.6 1.2,0.7 1.6,0.7 0.5,0 1.2,-0.3 1.2,-1.3 0,-0.2 0,-0.8 -0.4,-1.4 -0.3,-0.5 -0.7,-0.6 -1,-0.6 -0.1,0 -0.4,0 -0.5,0 -0.1,0 -0.2,0 -0.2,-0.1 0,-0.2 0.1,-0.2 0.3,-0.2 l 0.5,0 c 1,0 1.5,-0.8 1.5,-1.9 0,-1.6 -0.9,-2 -1.4,-2 -0.5,0 -1.4,0.2 -1.8,0.9 0.4,0 0.8,0.2 0.8,0.7 0,0.4 -0.4,0.6 -0.7,0.6 -0.3,0 -0.7,-0.1 -0.7,-0.6 0,-1.1 1.1,-1.9 2.5,-1.9 1.4,0 2.5,1.1 2.5,2.3 0,0.9 -0.7,1.9 -2,2.1 z"
           style="fill:#000000;fill-opacity:1;fill-rule:evenodd;stroke:none"
           id="path3491" />
      </g>
    </g>
  </g>
</svg>
