<?xml version="1.0" encoding="UTF-8" standalone="no"?>
<!-- Created with Inkscape (http://www.inkscape.org/) -->

<svg
   xmlns:dc="http://purl.org/dc/elements/1.1/"
   xmlns:cc="http://creativecommons.org/ns#"
   xmlns:rdf="http://www.w3.org/1999/02/22-rdf-syntax-ns#"
   xmlns:svg="http://www.w3.org/2000/svg"
   xmlns="http://www.w3.org/2000/svg"
   xmlns:sodipodi="http://sodipodi.sourceforge.net/DTD/sodipodi-0.dtd"
   xmlns:inkscape="http://www.inkscape.org/namespaces/inkscape"
   width="132.5"
   height="33.125"
   id="svg5122"
   version="1.1"
   inkscape:version="0.48.4 r9939"
   sodipodi:docname="Novo documento 7">
  <defs
     id="defs5124">
    <clipPath
       id="clipPath3507"
       clipPathUnits="userSpaceOnUse">
      <path
         inkscape:connector-curvature="0"
         id="path3509"
         clip-rule="evenodd"
         d="m 169.7,264 109.2,0 0,29.6 -109.2,0 0,-29.6 z" />
    </clipPath>
  </defs>
  <sodipodi:namedview
     id="base"
     pagecolor="#ffffff"
     bordercolor="#666666"
     borderopacity="1.0"
     inkscape:pageopacity="0.0"
     inkscape:pageshadow="2"
     inkscape:zoom="3.959798"
     inkscape:cx="83.995455"
     inkscape:cy="28.347345"
     inkscape:document-units="px"
     inkscape:current-layer="layer1"
     showgrid="false"
     fit-margin-top="0"
     fit-margin-left="0"
     fit-margin-right="0"
     fit-margin-bottom="0"
     inkscape:window-width="1366"
     inkscape:window-height="719"
     inkscape:window-x="0"
     inkscape:window-y="0"
     inkscape:window-maximized="1" />
  <metadata
     id="metadata5127">
    <rdf:RDF>
      <cc:Work
         rdf:about="">
        <dc:format>image/svg+xml</dc:format>
        <dc:type
           rdf:resource="http://purl.org/dc/dcmitype/StillImage" />
        <dc:title></dc:title>
      </cc:Work>
    </rdf:RDF>
  </metadata>
  <g
     inkscape:label="Camada 1"
     inkscape:groupmode="layer"
     id="layer1"
     transform="translate(-283.75,-515.79968)">
    <g
       id="g3503"
       transform="matrix(1.25,0,0,-1.25,69.5,880.79968)">
      <g
         id="g3505"
         clip-path="url(#clipPath3507)">
        <path
           inkscape:connector-curvature="0"
           d="m 178.3,280.5 c 0.6,0.9 1.1,1 1.5,1 0.1,0 0.2,0.2 0.2,0.2 0,0.1 -0.1,0.2 -0.2,0.2 -0.3,0 -0.6,-0.1 -1,-0.1 -0.4,0 -0.8,0.1 -1.2,0.1 0,0 -0.2,0 -0.2,-0.3 0,-0.1 0.1,-0.1 0.2,-0.1 0.3,0 0.5,-0.1 0.5,-0.4 0,-0.2 -0.1,-0.4 -0.1,-0.4 l -3.7,-5.8 -0.8,6.2 c 0,0.2 0.3,0.4 0.8,0.4 0.2,0 0.3,0 0.3,0.2 0,0.1 -0.1,0.2 -0.1,0.2 -0.5,0 -1,-0.1 -1.5,-0.1 -0.2,0 -0.5,0 -0.7,0 -0.2,0 -0.4,0.1 -0.6,0.1 -0.1,0 -0.3,0 -0.3,-0.3 0,-0.1 0.1,-0.1 0.4,-0.1 0.6,0 0.6,-0.1 0.7,-0.4 l 0.9,-7.3 c 0,-0.2 0.1,-0.2 0.2,-0.2 0.2,0 0.3,0 0.4,0.2 l 4.3,6.7 z"
           style="fill:#000000;fill-opacity:1;fill-rule:evenodd;stroke:none"
           id="path3511" />
        <path
           inkscape:connector-curvature="0"
           d="m 184,279.4 c -0.1,-0.2 -0.2,-0.5 -0.2,-0.5 0,-0.2 0.2,-0.3 0.3,-0.3 0.2,0 0.3,0.1 0.3,0.2 0.1,0.1 0.1,0.3 0.2,0.5 0,0.2 0.1,0.5 0.2,0.7 0,0.2 0.1,0.4 0.1,0.6 0.1,0.4 0.1,0.4 0.3,0.6 0.2,0.4 0.7,0.9 1.3,0.9 0.5,0 0.5,-0.4 0.5,-0.6 0,-0.5 -0.4,-1.4 -0.5,-1.7 -0.1,-0.3 -0.1,-0.3 -0.1,-0.5 0,-0.4 0.4,-0.7 0.8,-0.7 0.8,0 1.2,1.1 1.2,1.3 0,0.1 -0.1,0.1 -0.1,0.1 -0.2,0 -0.2,-0.1 -0.2,-0.2 -0.2,-0.6 -0.6,-1 -0.9,-1 -0.2,0 -0.2,0.1 -0.2,0.3 0,0.2 0,0.3 0.2,0.7 0.1,0.2 0.4,1.1 0.4,1.6 0,0.1 0,0.5 -0.3,0.7 -0.1,0.1 -0.4,0.2 -0.8,0.2 -0.7,0 -1.2,-0.5 -1.4,-0.8 -0.1,0.7 -0.7,0.8 -1.1,0.8 -0.7,0 -1.2,-0.4 -1.4,-0.7 -0.1,0.6 -0.6,0.7 -0.9,0.7 -0.4,0 -0.6,-0.2 -0.7,-0.4 -0.2,-0.3 -0.3,-0.8 -0.3,-0.8 0,-0.1 0.1,-0.1 0.1,-0.1 0.2,0 0.2,0 0.3,0.2 0.1,0.5 0.2,0.9 0.6,0.9 0.2,0 0.2,-0.2 0.2,-0.4 0,-0.2 0,-0.5 -0.1,-0.7 -0.1,-0.2 -0.1,-0.6 -0.2,-0.7 l -0.2,-1.1 c -0.1,-0.1 -0.1,-0.3 -0.1,-0.3 0,-0.2 0.1,-0.3 0.2,-0.3 0.2,0 0.3,0.1 0.4,0.2 0,0.1 0.1,0.3 0.1,0.5 0.1,0.2 0.2,0.5 0.2,0.7 0,0.2 0.1,0.4 0.1,0.6 0.1,0.3 0.1,0.4 0.4,0.7 0.2,0.4 0.6,0.8 1.3,0.8 0.4,0 0.4,-0.4 0.4,-0.6 0,-0.2 0,-0.3 -0.1,-0.8 l -0.3,-1.3 z"
           style="fill:#000000;fill-opacity:1;fill-rule:evenodd;stroke:none"
           id="path3513" />
        <path
           inkscape:connector-curvature="0"
           d="m 182.3,274.1 c 0.1,0.1 0.1,0.1 0.1,0.2 0,0.1 -0.2,0.2 -0.3,0.2 -0.1,0 -0.2,0 -0.3,-0.2 -0.1,0 -0.1,-0.3 -0.2,-0.5 l -0.1,-0.6 c -0.1,-0.2 -0.3,-1.3 -0.4,-1.4 0,0 -0.4,-0.7 -1,-0.7 -0.6,0 -0.6,0.5 -0.6,0.7 0,0.4 0.2,1 0.5,1.6 0.1,0.3 0.1,0.4 0.1,0.5 0,0.4 -0.3,0.7 -0.8,0.7 -0.9,0 -1.2,-1.1 -1.2,-1.3 0,-0.1 0.1,-0.1 0.1,-0.1 0.1,0 0.1,0.1 0.2,0.2 0.2,0.6 0.6,1 0.9,1 0.1,0 0.2,-0.1 0.2,-0.3 0,-0.2 -0.1,-0.4 -0.1,-0.5 -0.4,-1 -0.5,-1.3 -0.5,-1.7 0,-0.1 0,-0.5 0.3,-0.8 0.3,-0.2 0.6,-0.2 0.8,-0.2 0.4,0 0.7,0.1 0.9,0.3 -0.1,-0.4 -0.2,-0.8 -0.5,-1.2 -0.2,-0.2 -0.6,-0.5 -1,-0.5 -0.1,0 -0.4,0 -0.6,0.3 0.4,0 0.4,0.4 0.4,0.4 0,0.3 -0.2,0.3 -0.3,0.3 -0.2,0 -0.5,-0.1 -0.5,-0.5 0,-0.4 0.4,-0.7 1,-0.7 0.8,0 1.9,0.6 2.2,1.7 l 0.7,3.1 z"
           style="fill:#000000;fill-opacity:1;fill-rule:evenodd;stroke:none"
           id="path3515" />
        <path
           inkscape:connector-curvature="0"
           d="m 200.9,277.7 c 0.1,0 0.4,0 0.4,0.2 0,0.3 -0.3,0.3 -0.4,0.3 l -7.2,0 c -0.1,0 -0.4,0 -0.4,-0.3 0,-0.2 0.3,-0.2 0.4,-0.2 l 7.2,0 z m 0,-2.3 c 0.1,0 0.4,0 0.4,0.2 0,0.3 -0.3,0.3 -0.4,0.3 l -7.2,0 c -0.1,0 -0.4,0 -0.4,-0.3 0,-0.2 0.3,-0.2 0.4,-0.2 l 7.2,0 z"
           style="fill:#000000;fill-opacity:1;fill-rule:evenodd;stroke:none"
           id="path3517" />
        <path
           inkscape:connector-curvature="0"
           d="m 211.2,281.5 -2.1,4.5 c -0.1,0.2 -0.1,0.2 -0.2,0.2 0,0 0,0 -0.2,-0.1 l -1.1,-0.8 c -0.1,-0.1 -0.1,-0.2 -0.1,-0.2 0,-0.1 0,-0.1 0.1,-0.1 0.1,0 0.3,0.1 0.4,0.2 0.1,0.1 0.2,0.2 0.4,0.3 l 2.3,-5.1 c 0.1,-0.2 0.2,-0.2 0.3,-0.2 0.1,0 0.2,0.1 0.3,0.3 l 5.4,11 c 0.1,0.2 0.1,0.2 0.1,0.2 0,0.1 -0.1,0.3 -0.3,0.3 -0.1,0 -0.1,-0.1 -0.2,-0.3 l -5.1,-10.2 z"
           style="fill:#000000;fill-opacity:1;fill-rule:evenodd;stroke:none"
           id="path3519" />
        <path
           inkscape:connector-curvature="0"
           d="m 219.5,291.5 -3,0 0,0.5 6,0 0,-0.5 -3,0 z"
           style="fill:#000000;fill-opacity:1;fill-rule:evenodd;stroke:none"
           id="path3521" />
        <path
           inkscape:connector-curvature="0"
           d="m 220,285.9 c 1,0.3 1.6,1.1 1.6,2.1 0,0.9 -1,1.6 -2.2,1.6 -1.2,0 -2.1,-0.7 -2.1,-1.6 0,-0.4 0.3,-0.6 0.6,-0.6 0.4,0 0.7,0.2 0.7,0.6 0,0.6 -0.6,0.6 -0.8,0.6 0.4,0.6 1.2,0.7 1.6,0.7 0.5,0 1.1,-0.3 1.1,-1.3 0,-0.2 0,-0.8 -0.3,-1.4 -0.4,-0.5 -0.8,-0.6 -1.1,-0.6 0,0 -0.3,0 -0.4,0 -0.1,0 -0.2,0 -0.2,-0.1 0,-0.2 0.1,-0.2 0.3,-0.2 l 0.5,0 c 1,0 1.4,-0.8 1.4,-1.9 0,-1.6 -0.8,-2 -1.3,-2 -0.5,0 -1.4,0.2 -1.9,0.9 0.5,0 0.8,0.2 0.8,0.7 0,0.4 -0.3,0.6 -0.6,0.6 -0.3,0 -0.7,-0.1 -0.7,-0.6 0,-1.1 1.1,-1.9 2.4,-1.9 1.5,0 2.6,1.1 2.6,2.3 0,0.9 -0.8,1.9 -2,2.1 z"
           style="fill:#000000;fill-opacity:1;fill-rule:evenodd;stroke:none"
           id="path3523" />
        <path
           inkscape:connector-curvature="0"
           d="m 229.9,288.5 c 0.6,0.9 1.1,0.9 1.5,0.9 0.2,0 0.2,0.2 0.2,0.3 0,0.1 -0.1,0.1 -0.2,0.1 -0.3,0 -0.6,0 -0.9,0 -0.5,0 -0.9,0 -1.2,0 -0.1,0 -0.3,0 -0.3,-0.2 0,-0.2 0.2,-0.2 0.2,-0.2 0.4,0 0.6,-0.1 0.6,-0.4 0,-0.1 -0.2,-0.4 -0.2,-0.4 l -3.6,-5.7 -0.9,6.2 c 0,0.2 0.3,0.3 0.9,0.3 0.1,0 0.3,0 0.3,0.3 0,0.1 -0.1,0.1 -0.2,0.1 -0.5,0 -1,0 -1.5,0 -0.2,0 -0.4,0 -0.6,0 -0.3,0 -0.5,0 -0.7,0 -0.1,0 -0.2,0 -0.2,-0.2 0,-0.2 0.1,-0.2 0.3,-0.2 0.7,0 0.7,-0.1 0.7,-0.4 l 0.9,-7.2 c 0.1,-0.3 0.1,-0.3 0.3,-0.3 0.2,0 0.2,0.1 0.3,0.2 l 4.3,6.8 z"
           style="fill:#000000;fill-opacity:1;fill-rule:evenodd;stroke:none"
           id="path3525" />
        <path
           inkscape:connector-curvature="0"
           d="m 231.6,282.8 c 0.7,0 1.2,-0.5 1.2,-1.4 0,-1 -0.7,-1.3 -1.2,-1.3 -0.3,0 -1,0.1 -1.4,0.6 0.4,0 0.5,0.3 0.5,0.5 0,0.2 -0.2,0.4 -0.5,0.4 -0.2,0 -0.4,-0.1 -0.4,-0.5 0,-0.7 0.9,-1.2 1.9,-1.2 1.1,0 1.9,0.7 1.9,1.5 0,0.7 -0.5,1.3 -1.4,1.5 0.9,0.3 1.2,1 1.2,1.5 0,0.6 -0.8,1.1 -1.7,1.1 -0.9,0 -1.7,-0.4 -1.7,-1.1 0,-0.3 0.2,-0.4 0.5,-0.4 0.2,0 0.4,0.1 0.4,0.4 0,0.2 -0.2,0.4 -0.4,0.4 0.3,0.4 0.8,0.5 1.2,0.5 0.3,0 0.8,-0.2 0.8,-0.9 0,-0.4 -0.1,-0.8 -0.3,-1 -0.3,-0.3 -0.5,-0.4 -0.9,-0.4 -0.2,0 -0.2,0 -0.3,0 0,0 -0.1,0 -0.1,-0.1 0,-0.1 0.1,-0.1 0.3,-0.1 l 0.4,0 z"
           style="fill:#000000;fill-opacity:1;fill-rule:evenodd;stroke:none"
           id="path3527" />
        <path
           inkscape:connector-curvature="0"
           d="m 245.2,284.5 c 0.2,0 0.4,0 0.4,0.2 0,0.3 -0.2,0.3 -0.4,0.3 l -6.5,0 c -0.2,0 -0.4,0 -0.4,-0.3 0,-0.2 0.2,-0.2 0.4,-0.2 l 6.5,0 z"
           style="fill:#000000;fill-opacity:1;fill-rule:evenodd;stroke:none"
           id="path3529" />
        <path
           inkscape:connector-curvature="0"
           d="m 253.8,281.5 -2.1,4.5 c -0.1,0.2 -0.1,0.2 -0.2,0.2 0,0 0,0 -0.2,-0.1 l -1.1,-0.8 c -0.2,-0.1 -0.2,-0.2 -0.2,-0.2 0,-0.1 0.1,-0.1 0.2,-0.1 0,0 0.2,0.1 0.4,0.2 0,0.1 0.2,0.2 0.3,0.3 l 2.4,-5.1 c 0.1,-0.2 0.1,-0.2 0.2,-0.2 0.2,0 0.3,0.1 0.4,0.3 l 5.4,11 c 0,0.2 0,0.2 0,0.2 0,0.1 -0.1,0.3 -0.2,0.3 -0.1,0 -0.2,-0.1 -0.3,-0.3 l -5,-10.2 z"
           style="fill:#000000;fill-opacity:1;fill-rule:evenodd;stroke:none"
           id="path3531" />
        <path
           inkscape:connector-curvature="0"
           d="m 262,291.5 -2.9,0 0,0.5 5.9,0 0,-0.5 -3,0 z"
           style="fill:#000000;fill-opacity:1;fill-rule:evenodd;stroke:none"
           id="path3533" />
        <path
           inkscape:connector-curvature="0"
           d="m 262.5,285.9 c 1,0.3 1.7,1.1 1.7,2.1 0,0.9 -1,1.6 -2.2,1.6 -1.2,0 -2.1,-0.7 -2.1,-1.6 0,-0.4 0.2,-0.6 0.6,-0.6 0.4,0 0.6,0.2 0.6,0.6 0,0.6 -0.6,0.6 -0.7,0.6 0.3,0.6 1.1,0.7 1.6,0.7 0.4,0 1.1,-0.3 1.1,-1.3 0,-0.2 0,-0.8 -0.3,-1.4 -0.4,-0.5 -0.8,-0.6 -1.1,-0.6 -0.1,0 -0.4,0 -0.4,0 -0.1,0 -0.2,0 -0.2,-0.1 0,-0.2 0.1,-0.2 0.3,-0.2 l 0.5,0 c 0.9,0 1.4,-0.8 1.4,-1.9 0,-1.6 -0.8,-2 -1.4,-2 -0.5,0 -1.4,0.2 -1.8,0.9 0.4,0 0.8,0.2 0.8,0.7 0,0.4 -0.3,0.6 -0.7,0.6 -0.3,0 -0.6,-0.1 -0.6,-0.6 0,-1.1 1.1,-1.9 2.4,-1.9 1.5,0 2.5,1.1 2.5,2.3 0,0.9 -0.7,1.9 -2,2.1 z"
           style="fill:#000000;fill-opacity:1;fill-rule:evenodd;stroke:none"
           id="path3535" />
        <path
           inkscape:connector-curvature="0"
           d="m 272.5,288.5 c 0.6,0.9 1.1,0.9 1.5,0.9 0.1,0 0.2,0.2 0.2,0.3 0,0.1 -0.1,0.1 -0.2,0.1 -0.3,0 -0.6,0 -1,0 -0.4,0 -0.8,0 -1.2,0 0,0 -0.2,0 -0.2,-0.2 0,-0.2 0.1,-0.2 0.2,-0.2 0.3,0 0.5,-0.1 0.5,-0.4 0,-0.1 -0.1,-0.4 -0.1,-0.4 l -3.7,-5.7 -0.8,6.2 c 0,0.2 0.3,0.3 0.8,0.3 0.2,0 0.3,0 0.3,0.3 0,0.1 -0.1,0.1 -0.1,0.1 -0.5,0 -1,0 -1.5,0 -0.2,0 -0.5,0 -0.7,0 -0.2,0 -0.4,0 -0.6,0 -0.1,0 -0.2,0 -0.2,-0.2 0,-0.2 0.1,-0.2 0.3,-0.2 0.6,0 0.6,-0.1 0.7,-0.4 l 0.9,-7.2 c 0,-0.3 0.1,-0.3 0.3,-0.3 0.2,0 0.2,0.1 0.3,0.2 l 4.3,6.8 z"
           style="fill:#000000;fill-opacity:1;fill-rule:evenodd;stroke:none"
           id="path3537" />
        <path
           inkscape:connector-curvature="0"
           d="m 274.7,285.3 c 0,0.2 0,0.2 -0.2,0.2 -0.6,-0.5 -1.3,-0.5 -1.7,-0.5 l 0,-0.3 c 0.2,0 0.8,0 1.2,0.2 l 0,-4.2 c 0,-0.3 0,-0.4 -0.8,-0.4 l -0.3,0 0,-0.3 c 0.1,0 1.2,0.1 1.5,0.1 0.2,0 1.3,-0.1 1.5,-0.1 l 0,0.3 -0.3,0 c -0.9,0 -0.9,0.1 -0.9,0.4 l 0,4.6 z"
           style="fill:#000000;fill-opacity:1;fill-rule:evenodd;stroke:none"
           id="path3539" />
        <path
           inkscape:connector-curvature="0"
           d="m 242,276.5 -35.4,0 0,0.5 70.8,0 0,-0.5 -35.4,0 z"
           style="fill:#000000;fill-opacity:1;fill-rule:evenodd;stroke:none"
           id="path3541" />
        <path
           inkscape:connector-curvature="0"
           d="m 242.5,269.9 c 0.9,0.4 1.6,1.2 1.6,2.1 0,1 -1,1.6 -2.2,1.6 -1.2,0 -2.1,-0.7 -2.1,-1.6 0,-0.4 0.3,-0.6 0.6,-0.6 0.4,0 0.6,0.3 0.6,0.6 0,0.6 -0.5,0.6 -0.7,0.6 0.4,0.6 1.1,0.7 1.6,0.7 0.5,0 1.1,-0.2 1.1,-1.3 0,-0.1 0,-0.8 -0.3,-1.3 -0.4,-0.6 -0.8,-0.6 -1.1,-0.6 -0.1,0 -0.4,-0.1 -0.4,-0.1 -0.1,0 -0.2,0 -0.2,-0.1 0,-0.1 0.1,-0.1 0.3,-0.1 l 0.5,0 c 1,0 1.4,-0.8 1.4,-2 0,-1.6 -0.8,-1.9 -1.4,-1.9 -0.5,0 -1.3,0.2 -1.8,0.9 0.5,-0.1 0.8,0.2 0.8,0.6 0,0.4 -0.3,0.7 -0.6,0.7 -0.3,0 -0.7,-0.2 -0.7,-0.7 0,-1.1 1.1,-1.9 2.4,-1.9 1.5,0 2.6,1.1 2.6,2.3 0,1 -0.8,1.9 -2,2.1 z"
           style="fill:#000000;fill-opacity:1;fill-rule:evenodd;stroke:none"
           id="path3543" />
      </g>
    </g>
  </g>
</svg>
