<?xml version="1.0" encoding="UTF-8" standalone="no"?>
<!-- Created with Inkscape (http://www.inkscape.org/) -->

<svg
   xmlns:dc="http://purl.org/dc/elements/1.1/"
   xmlns:cc="http://creativecommons.org/ns#"
   xmlns:rdf="http://www.w3.org/1999/02/22-rdf-syntax-ns#"
   xmlns:svg="http://www.w3.org/2000/svg"
   xmlns="http://www.w3.org/2000/svg"
   xmlns:sodipodi="http://sodipodi.sourceforge.net/DTD/sodipodi-0.dtd"
   xmlns:inkscape="http://www.inkscape.org/namespaces/inkscape"
   width="119.875"
   height="30.375"
   id="svg5267"
   version="1.1"
   inkscape:version="0.48.4 r9939"
   sodipodi:docname="Novo documento 11">
  <defs
     id="defs5269">
    <clipPath
       id="clipPath3559"
       clipPathUnits="userSpaceOnUse">
      <path
         inkscape:connector-curvature="0"
         id="path3561"
         clip-rule="evenodd"
         d="m 282,263.8 98.7,0 0,27.1 -98.7,0 0,-27.1 z" />
    </clipPath>
  </defs>
  <sodipodi:namedview
     id="base"
     pagecolor="#ffffff"
     bordercolor="#666666"
     borderopacity="1.0"
     inkscape:pageopacity="0.0"
     inkscape:pageshadow="2"
     inkscape:zoom="10.027112"
     inkscape:cx="59.9375"
     inkscape:cy="15.1875"
     inkscape:document-units="px"
     inkscape:current-layer="layer1"
     showgrid="false"
     fit-margin-top="0"
     fit-margin-left="0"
     fit-margin-right="0"
     fit-margin-bottom="0"
     inkscape:window-width="1366"
     inkscape:window-height="719"
     inkscape:window-x="0"
     inkscape:window-y="0"
     inkscape:window-maximized="1" />
  <metadata
     id="metadata5272">
    <rdf:RDF>
      <cc:Work
         rdf:about="">
        <dc:format>image/svg+xml</dc:format>
        <dc:type
           rdf:resource="http://purl.org/dc/dcmitype/StillImage" />
        <dc:title></dc:title>
      </cc:Work>
    </rdf:RDF>
  </metadata>
  <g
     inkscape:label="Camada 1"
     inkscape:groupmode="layer"
     id="layer1"
     transform="translate(-290.0625,-517.17468)">
    <g
       id="g3555"
       transform="matrix(1.25,0,0,-1.25,-64.3125,879.04968)">
      <g
         id="g3557"
         clip-path="url(#clipPath3559)">
        <path
           inkscape:connector-curvature="0"
           d="m 290.6,277.9 c 0,0.5 -0.2,0.8 -0.5,0.8 -0.3,0 -0.6,-0.2 -0.6,-0.5 0,-0.1 0,-0.3 0.2,-0.4 0.2,-0.2 0.4,-0.5 0.4,-1 0,-0.5 -0.2,-1.1 -0.6,-1.7 -0.4,-0.5 -0.8,-0.9 -1.4,-0.9 -0.7,0 -1,0.4 -1.1,1.1 0.1,0.3 0.4,1 0.4,1.4 0,0.1 -0.1,0.2 -0.2,0.2 -0.1,0 -0.3,0 -0.4,-0.2 -0.1,-0.2 -0.2,-1 -0.2,-1.4 -0.4,-0.6 -0.9,-1.1 -1.7,-1.1 -0.7,0 -1,0.7 -1,1.4 0,1.4 1.2,2.7 1.2,2.9 0,0.1 -0.1,0.2 -0.2,0.2 -0.2,0 -0.2,-0.2 -0.3,-0.3 -0.6,-0.8 -1.1,-2.3 -1.1,-3.4 0,-0.8 0.3,-1.6 1.3,-1.6 0.8,0 1.4,0.5 1.8,1.2 0.1,-0.7 0.6,-1.2 1.3,-1.2 1,0 1.5,0.7 2,1.6 0.2,0.5 0.7,2.1 0.7,2.9 z"
           style="fill:#000000;fill-opacity:1;fill-rule:evenodd;stroke:none"
           id="path3563" />
        <path
           inkscape:connector-curvature="0"
           d="m 291.4,270.8 c -0.1,-0.3 -0.1,-0.3 -0.4,-0.3 -0.1,0 -0.2,0 -0.2,-0.2 0,-0.1 0,-0.1 0.1,-0.1 0.2,0 0.5,0 0.7,0 0.3,0 0.6,0 0.9,0 0,0 0.1,0 0.1,0.1 0,0.2 -0.1,0.2 -0.2,0.2 -0.2,0 -0.4,0 -0.4,0.1 0,0 0.1,0.2 0.1,0.3 0.1,0.5 0.2,0.9 0.3,1.3 0.1,-0.2 0.4,-0.5 0.9,-0.5 1,0 2.1,1.1 2.1,2.3 0,1 -0.7,1.4 -1.2,1.4 -0.5,0 -1,-0.3 -1.2,-0.6 -0.1,0.5 -0.6,0.6 -0.9,0.6 -0.3,0 -0.5,-0.2 -0.6,-0.4 -0.2,-0.3 -0.3,-0.8 -0.3,-0.9 0,-0.1 0.1,-0.1 0.1,-0.1 0.1,0 0.1,0.1 0.2,0.3 0.1,0.5 0.3,0.9 0.6,0.9 0.2,0 0.3,-0.2 0.3,-0.4 0,-0.1 -0.1,-0.2 -0.1,-0.3 l -0.9,-3.7 z m 1.6,3.6 c 0.5,0.6 0.9,0.8 1.1,0.8 0.4,0 0.6,-0.3 0.6,-0.8 0,-0.4 -0.1,-1.2 -0.4,-1.7 -0.2,-0.4 -0.6,-0.8 -1,-0.8 -0.6,0 -0.8,0.6 -0.8,0.7 0,0.1 0,0.1 0,0.2 l 0.5,1.6 z"
           style="fill:#000000;fill-opacity:1;fill-rule:evenodd;stroke:none"
           id="path3565" />
        <path
           inkscape:connector-curvature="0"
           d="m 307.8,277.4 c 0.1,0 0.4,0 0.4,0.2 0,0.3 -0.3,0.3 -0.4,0.3 l -7.2,0 c -0.1,0 -0.4,0 -0.4,-0.3 0,-0.2 0.3,-0.2 0.4,-0.2 l 7.2,0 z m 0,-2.3 c 0.1,0 0.4,0 0.4,0.2 0,0.2 -0.3,0.2 -0.4,0.2 l -7.2,0 c -0.1,0 -0.4,0 -0.4,-0.2 0,-0.2 0.3,-0.2 0.4,-0.2 l 7.2,0 z"
           style="fill:#000000;fill-opacity:1;fill-rule:evenodd;stroke:none"
           id="path3567" />
        <path
           inkscape:connector-curvature="0"
           d="m 321,288.2 c 0.6,0.9 1.1,0.9 1.5,0.9 0.2,0 0.2,0.2 0.2,0.3 0,0.1 -0.1,0.1 -0.2,0.1 -0.3,0 -0.6,0 -1,0 -0.4,0 -0.8,0 -1.1,0 -0.1,0 -0.3,0 -0.3,-0.2 0,-0.2 0.2,-0.2 0.2,-0.2 0.4,0 0.6,-0.1 0.6,-0.4 0,-0.1 -0.2,-0.4 -0.2,-0.4 l -3.7,-5.7 -0.8,6.2 c 0,0.2 0.3,0.3 0.8,0.3 0.2,0 0.3,0 0.3,0.3 0,0.1 -0.1,0.1 -0.1,0.1 -0.5,0 -1,0 -1.5,0 -0.2,0 -0.5,0 -0.7,0 -0.2,0 -0.4,0 -0.6,0 -0.1,0 -0.2,0 -0.2,-0.2 0,-0.2 0.1,-0.2 0.3,-0.2 0.6,0 0.6,-0.1 0.7,-0.4 l 0.9,-7.2 c 0.1,-0.3 0.1,-0.3 0.3,-0.3 0.2,0 0.2,0.1 0.3,0.2 l 4.3,6.8 z"
           style="fill:#000000;fill-opacity:1;fill-rule:evenodd;stroke:none"
           id="path3569" />
        <path
           inkscape:connector-curvature="0"
           d="m 323.2,284.9 c 0,0.3 0,0.3 -0.2,0.3 -0.6,-0.6 -1.4,-0.6 -1.7,-0.6 l 0,-0.3 c 0.2,0 0.7,0 1.2,0.3 l 0,-4.2 c 0,-0.3 0,-0.4 -0.8,-0.4 l -0.3,0 0,-0.3 c 0.1,0 1.2,0 1.5,0 0.2,0 1.3,0 1.5,0 l 0,0.3 -0.4,0 c -0.8,0 -0.8,0.1 -0.8,0.4 l 0,4.5 z"
           style="fill:#000000;fill-opacity:1;fill-rule:evenodd;stroke:none"
           id="path3571" />
        <path
           inkscape:connector-curvature="0"
           d="m 333.3,284.2 3.3,0 c 0.2,0 0.4,0 0.4,0.2 0,0.3 -0.2,0.3 -0.4,0.3 l -3.3,0 0,3.2 c 0,0.2 0,0.4 -0.3,0.4 -0.2,0 -0.2,-0.2 -0.2,-0.4 l 0,-3.2 -3.3,0 c -0.2,0 -0.5,0 -0.5,-0.3 0,-0.2 0.3,-0.2 0.5,-0.2 l 3.3,0 0,-3.3 c 0,-0.2 0,-0.4 0.2,-0.4 0.3,0 0.3,0.2 0.3,0.4 l 0,3.3 z"
           style="fill:#000000;fill-opacity:1;fill-rule:evenodd;stroke:none"
           id="path3573" />
        <path
           inkscape:connector-curvature="0"
           d="m 347.7,288.2 c 0.6,0.9 1.1,0.9 1.5,0.9 0.2,0 0.2,0.2 0.2,0.3 0,0.1 -0.1,0.1 -0.2,0.1 -0.3,0 -0.6,0 -0.9,0 -0.4,0 -0.8,0 -1.2,0 -0.1,0 -0.3,0 -0.3,-0.2 0,-0.2 0.2,-0.2 0.2,-0.2 0.4,0 0.6,-0.1 0.6,-0.4 0,-0.1 -0.2,-0.4 -0.2,-0.4 l -3.6,-5.7 -0.8,6.2 c 0,0.2 0.2,0.3 0.8,0.3 0.1,0 0.3,0 0.3,0.3 0,0.1 -0.1,0.1 -0.2,0.1 -0.5,0 -1,0 -1.5,0 -0.2,0 -0.4,0 -0.6,0 -0.3,0 -0.5,0 -0.7,0 -0.1,0 -0.2,0 -0.2,-0.2 0,-0.2 0.1,-0.2 0.3,-0.2 0.7,0 0.7,-0.1 0.7,-0.4 l 1,-7.2 c 0,-0.3 0,-0.3 0.2,-0.3 0.2,0 0.2,0.1 0.3,0.2 l 4.3,6.8 z"
           style="fill:#000000;fill-opacity:1;fill-rule:evenodd;stroke:none"
           id="path3575" />
        <path
           inkscape:connector-curvature="0"
           d="m 351.4,281.2 -0.3,0 c 0,-0.2 -0.1,-0.7 -0.2,-0.8 -0.1,0 -0.7,0 -0.9,0 l -1.5,0 c 0.9,0.8 1.2,1 1.7,1.4 0.6,0.5 1.2,1 1.2,1.8 0,1 -0.9,1.6 -2,1.6 -1,0 -1.7,-0.8 -1.7,-1.5 0,-0.4 0.3,-0.5 0.4,-0.5 0.2,0 0.4,0.2 0.4,0.5 0,0.1 0,0.4 -0.4,0.4 0.2,0.6 0.8,0.8 1.2,0.8 0.8,0 1.3,-0.7 1.3,-1.3 0,-0.8 -0.6,-1.3 -0.8,-1.6 l -2.1,-2 c 0,-0.1 0,-0.1 0,-0.3 l 3.4,0 0.3,1.5 z"
           style="fill:#000000;fill-opacity:1;fill-rule:evenodd;stroke:none"
           id="path3577" />
        <path
           inkscape:connector-curvature="0"
           d="m 360,284.2 3.3,0 c 0.2,0 0.4,0 0.4,0.2 0,0.3 -0.2,0.3 -0.4,0.3 l -3.3,0 0,3.2 c 0,0.2 0,0.4 -0.2,0.4 -0.3,0 -0.3,-0.2 -0.3,-0.4 l 0,-3.2 -3.3,0 c -0.2,0 -0.4,0 -0.4,-0.3 0,-0.2 0.2,-0.2 0.4,-0.2 l 3.3,0 0,-3.3 c 0,-0.2 0,-0.4 0.3,-0.4 0.2,0 0.2,0.2 0.2,0.4 l 0,3.3 z"
           style="fill:#000000;fill-opacity:1;fill-rule:evenodd;stroke:none"
           id="path3579" />
        <path
           inkscape:connector-curvature="0"
           d="m 374.5,288.2 c 0.6,0.9 1.1,0.9 1.5,0.9 0.1,0 0.2,0.2 0.2,0.3 0,0.1 -0.1,0.1 -0.2,0.1 -0.3,0 -0.6,0 -1,0 -0.4,0 -0.8,0 -1.2,0 0,0 -0.2,0 -0.2,-0.2 0,-0.2 0.1,-0.2 0.2,-0.2 0.3,0 0.5,-0.1 0.5,-0.4 0,-0.1 -0.1,-0.4 -0.1,-0.4 l -3.7,-5.7 -0.8,6.2 c 0,0.2 0.3,0.3 0.8,0.3 0.2,0 0.3,0 0.3,0.3 0,0.1 -0.1,0.1 -0.1,0.1 -0.5,0 -1,0 -1.5,0 -0.2,0 -0.5,0 -0.7,0 -0.2,0 -0.4,0 -0.6,0 -0.1,0 -0.3,0 -0.3,-0.2 0,-0.2 0.1,-0.2 0.4,-0.2 0.6,0 0.6,-0.1 0.7,-0.4 l 0.9,-7.2 c 0,-0.3 0.1,-0.3 0.2,-0.3 0.2,0 0.3,0.1 0.4,0.2 l 4.3,6.8 z"
           style="fill:#000000;fill-opacity:1;fill-rule:evenodd;stroke:none"
           id="path3581" />
        <path
           inkscape:connector-curvature="0"
           d="m 376.2,282.4 c 0.6,0 1.1,-0.4 1.1,-1.3 0,-1 -0.6,-1.3 -1.1,-1.3 -0.3,0 -1,0.1 -1.4,0.6 0.4,0 0.5,0.3 0.5,0.4 0,0.3 -0.2,0.5 -0.5,0.5 -0.2,0 -0.5,-0.2 -0.5,-0.5 0,-0.8 0.9,-1.3 1.9,-1.3 1.2,0 2,0.8 2,1.6 0,0.7 -0.5,1.3 -1.5,1.5 0.9,0.3 1.2,0.9 1.2,1.4 0,0.7 -0.7,1.2 -1.7,1.2 -0.9,0 -1.6,-0.5 -1.6,-1.1 0,-0.3 0.2,-0.5 0.5,-0.5 0.2,0 0.4,0.2 0.4,0.4 0,0.3 -0.2,0.5 -0.4,0.5 0.2,0.3 0.8,0.4 1.1,0.4 0.4,0 0.9,-0.2 0.9,-0.9 0,-0.3 -0.1,-0.7 -0.3,-1 -0.3,-0.3 -0.5,-0.3 -0.9,-0.3 -0.2,0 -0.3,0 -0.3,0 0,0 -0.1,0 -0.1,-0.1 0,-0.2 0.1,-0.2 0.2,-0.2 l 0.5,0 z"
           style="fill:#000000;fill-opacity:1;fill-rule:evenodd;stroke:none"
           id="path3583" />
        <path
           inkscape:connector-curvature="0"
           d="m 346.4,276.2 -32.9,0 0,0.5 65.9,0 0,-0.5 -33,0 z"
           style="fill:#000000;fill-opacity:1;fill-rule:evenodd;stroke:none"
           id="path3585" />
        <path
           inkscape:connector-curvature="0"
           d="m 342.9,269.6 c 1,0.3 1.6,1.1 1.6,2.1 0,0.9 -1,1.6 -2.2,1.6 -1.2,0 -2.1,-0.7 -2.1,-1.6 0,-0.4 0.3,-0.6 0.7,-0.6 0.3,0 0.6,0.2 0.6,0.6 0,0.6 -0.6,0.6 -0.8,0.6 0.4,0.6 1.2,0.7 1.6,0.7 0.5,0 1.2,-0.3 1.2,-1.3 0,-0.2 -0.1,-0.8 -0.4,-1.4 -0.4,-0.5 -0.8,-0.6 -1.1,-0.6 0,0 -0.3,0 -0.4,0 -0.1,0 -0.2,0 -0.2,-0.1 0,-0.2 0.1,-0.2 0.3,-0.2 l 0.5,0 c 1,0 1.4,-0.8 1.4,-1.9 0,-1.6 -0.8,-2 -1.3,-2 -0.5,0 -1.4,0.2 -1.9,0.9 0.5,0 0.9,0.2 0.9,0.7 0,0.4 -0.4,0.6 -0.7,0.6 -0.3,0 -0.7,-0.1 -0.7,-0.6 0,-1.1 1.1,-1.9 2.4,-1.9 1.5,0 2.6,1.1 2.6,2.3 0,0.9 -0.8,1.9 -2,2.1 z"
           style="fill:#000000;fill-opacity:1;fill-rule:evenodd;stroke:none"
           id="path3587" />
        <path
           inkscape:connector-curvature="0"
           d="m 349.8,272.6 c 0.1,0.4 0.2,0.5 1.3,0.5 0.3,0 0.4,0 0.4,0.3 0,0.1 -0.1,0.1 -0.2,0.1 -0.4,0 -1.3,0 -1.8,0 -0.3,0 -1.2,0 -1.5,0 -0.1,0 -0.2,0 -0.2,-0.2 0,-0.2 0.1,-0.2 0.3,-0.2 0,0 0.2,0 0.4,0 0.2,0 0.3,0 0.3,-0.2 0,0 0,-0.1 0,-0.2 l -1.6,-6.3 c -0.1,-0.5 -0.2,-0.6 -1.1,-0.6 -0.2,0 -0.3,0 -0.3,-0.2 0,-0.1 0.1,-0.1 0.3,-0.1 l 5.5,0 c 0.4,0 0.4,0 0.4,0.2 l 1,2.5 c 0,0.1 0,0.2 0,0.2 0,0 0,0.1 -0.1,0.1 -0.1,0 -0.1,-0.1 -0.2,-0.2 -0.4,-1.1 -1,-2.5 -3,-2.5 l -1.2,0 c -0.1,0 -0.1,0 -0.2,0 -0.1,0.1 -0.2,0.1 -0.2,0.2 0,0 0,0 0.1,0.2 l 1.6,6.4 z"
           style="fill:#000000;fill-opacity:1;fill-rule:evenodd;stroke:none"
           id="path3589" />
      </g>
    </g>
  </g>
</svg>
