<?xml version="1.0" encoding="UTF-8" standalone="no"?>
<!-- Created with Inkscape (http://www.inkscape.org/) -->

<svg
   xmlns:dc="http://purl.org/dc/elements/1.1/"
   xmlns:cc="http://creativecommons.org/ns#"
   xmlns:rdf="http://www.w3.org/1999/02/22-rdf-syntax-ns#"
   xmlns:svg="http://www.w3.org/2000/svg"
   xmlns="http://www.w3.org/2000/svg"
   xmlns:sodipodi="http://sodipodi.sourceforge.net/DTD/sodipodi-0.dtd"
   xmlns:inkscape="http://www.inkscape.org/namespaces/inkscape"
   width="190.25"
   height="16.625"
   id="svg5932"
   version="1.1"
   inkscape:version="0.48.4 r9939"
   sodipodi:docname="Novo documento 26">
  <defs
     id="defs5934">
    <clipPath
       id="clipPath3779"
       clipPathUnits="userSpaceOnUse">
      <path
         inkscape:connector-curvature="0"
         id="path3781"
         clip-rule="evenodd"
         d="m 213.7,203.5 154,0 0,15 -154,0 0,-15 z" />
    </clipPath>
  </defs>
  <sodipodi:namedview
     id="base"
     pagecolor="#ffffff"
     bordercolor="#666666"
     borderopacity="1.0"
     inkscape:pageopacity="0.0"
     inkscape:pageshadow="2"
     inkscape:zoom="0.35"
     inkscape:cx="95.125"
     inkscape:cy="8.3124974"
     inkscape:document-units="px"
     inkscape:current-layer="layer1"
     showgrid="false"
     fit-margin-top="0"
     fit-margin-left="0"
     fit-margin-right="0"
     fit-margin-bottom="0"
     inkscape:window-width="575"
     inkscape:window-height="413"
     inkscape:window-x="0"
     inkscape:window-y="0"
     inkscape:window-maximized="0" />
  <metadata
     id="metadata5937">
    <rdf:RDF>
      <cc:Work
         rdf:about="">
        <dc:format>image/svg+xml</dc:format>
        <dc:type
           rdf:resource="http://purl.org/dc/dcmitype/StillImage" />
        <dc:title></dc:title>
      </cc:Work>
    </rdf:RDF>
  </metadata>
  <g
     inkscape:label="Camada 1"
     inkscape:groupmode="layer"
     id="layer1"
     transform="translate(-254.875,-524.04968)">
    <g
       id="g3775"
       transform="matrix(1.25,0,0,-1.25,-13.5,796.17468)">
      <g
         id="g3777"
         clip-path="url(#clipPath3779)">
        <path
           inkscape:connector-curvature="0"
           d="m 221.5,215.6 c 0.6,0.9 1.1,0.9 1.5,1 0.2,0 0.2,0.2 0.2,0.2 0,0.1 -0.1,0.1 -0.2,0.1 -0.3,0 -0.6,0 -0.9,0 -0.4,0 -0.8,0 -1.2,0 -0.1,0 -0.3,0 -0.3,-0.2 0,-0.1 0.2,-0.1 0.2,-0.1 0.4,-0.1 0.6,-0.2 0.6,-0.4 0,-0.2 -0.2,-0.5 -0.2,-0.5 l -3.6,-5.7 -0.9,6.2 c 0,0.2 0.3,0.4 0.9,0.4 0.1,0 0.3,0 0.3,0.2 0,0.1 -0.1,0.1 -0.2,0.1 -0.5,0 -1,0 -1.5,0 -0.2,0 -0.4,0 -0.6,0 -0.3,0 -0.5,0 -0.7,0 -0.1,0 -0.2,0 -0.2,-0.2 0,-0.1 0.1,-0.1 0.3,-0.1 0.7,0 0.7,-0.1 0.7,-0.4 l 0.9,-7.3 c 0.1,-0.2 0.1,-0.2 0.3,-0.2 0.2,0 0.2,0 0.3,0.2 l 4.3,6.7 z"
           style="fill:#000000;fill-opacity:1;fill-rule:evenodd;stroke:none"
           id="path3783" />
        <path
           inkscape:connector-curvature="0"
           d="m 228,216.4 c 0,0.2 0.1,0.6 0.1,0.6 0,0.2 -0.1,0.3 -0.2,0.3 -0.2,0 -0.3,-0.1 -0.4,-0.2 0,-0.1 -0.1,-0.4 -0.2,-0.7 -0.1,-0.4 -0.1,-0.4 -0.2,-0.9 -0.1,-0.5 -0.1,-0.5 -0.2,-0.8 0.1,-0.1 0,-0.3 -0.2,-0.5 -0.1,-0.2 -0.3,-0.3 -0.5,-0.3 -0.4,0 -0.8,0.1 -0.8,0.8 0,0.4 0.2,1 0.4,1.4 0.2,0.4 0.2,0.4 0.2,0.6 0,0.4 -0.4,0.7 -0.8,0.7 -0.9,0 -1.2,-1.1 -1.2,-1.3 0,-0.1 0.1,-0.1 0.1,-0.1 0.1,0 0.1,0.1 0.2,0.2 0.2,0.6 0.5,1 0.9,1 0.1,0 0.2,-0.1 0.2,-0.3 0,-0.2 -0.1,-0.4 -0.1,-0.5 -0.5,-1.2 -0.5,-1.4 -0.5,-1.6 0,-1 0.9,-1.1 1.3,-1.1 0.2,0 0.6,0 1,0.5 0.2,-0.4 0.6,-0.5 1.1,-0.5 0.8,0 1.2,0.6 1.3,0.9 0.4,0.7 0.6,1.8 0.6,2.1 0,0.7 -0.3,0.7 -0.4,0.7 -0.2,0 -0.4,-0.2 -0.4,-0.4 0,-0.2 0,-0.2 0.1,-0.3 0.2,-0.2 0.3,-0.4 0.3,-0.7 0,-0.1 -0.3,-2.1 -1.4,-2.1 -0.7,0 -0.7,0.6 -0.7,0.7 0,0.3 0,0.4 0.2,0.9 l 0.2,0.9 z"
           style="fill:#000000;fill-opacity:1;fill-rule:evenodd;stroke:none"
           id="path3785" />
        <path
           inkscape:connector-curvature="0"
           d="m 225.6,209.2 c 0,0.1 0,0.1 0,0.2 0,0.1 -0.1,0.2 -0.2,0.2 -0.1,0 -0.3,0 -0.4,-0.2 0,0 -0.1,-0.3 -0.1,-0.5 l -0.2,-0.6 c -0.1,-0.2 -0.3,-1.3 -0.3,-1.4 0,0 -0.4,-0.7 -1.1,-0.7 -0.6,0 -0.6,0.5 -0.6,0.7 0,0.4 0.2,1 0.5,1.6 0.1,0.3 0.2,0.4 0.2,0.5 0,0.4 -0.4,0.7 -0.9,0.7 -0.8,0 -1.2,-1.1 -1.2,-1.3 0,-0.1 0.1,-0.1 0.2,-0.1 0.1,0 0.1,0.1 0.1,0.2 0.2,0.6 0.6,1 0.9,1 0.2,0 0.2,-0.1 0.2,-0.3 0,-0.2 -0.1,-0.4 -0.1,-0.5 -0.4,-1 -0.5,-1.3 -0.5,-1.7 0,-0.1 0,-0.5 0.3,-0.8 0.3,-0.2 0.7,-0.2 0.9,-0.2 0.3,0 0.6,0.1 0.9,0.3 -0.1,-0.4 -0.2,-0.8 -0.5,-1.2 -0.3,-0.2 -0.6,-0.5 -1.1,-0.5 0,0 -0.4,0 -0.6,0.3 0.5,0 0.5,0.4 0.5,0.4 0,0.3 -0.3,0.3 -0.4,0.3 -0.2,0 -0.4,-0.1 -0.4,-0.5 0,-0.4 0.4,-0.7 0.9,-0.7 0.9,0 1.9,0.6 2.2,1.7 l 0.8,3.1 z"
           style="fill:#000000;fill-opacity:1;fill-rule:evenodd;stroke:none"
           id="path3787" />
        <path
           inkscape:connector-curvature="0"
           d="m 242.8,212.8 c 0.2,0 0.4,0 0.4,0.2 0,0.2 -0.2,0.2 -0.4,0.2 l -7.1,0 c -0.2,0 -0.4,0 -0.4,-0.2 0,-0.2 0.2,-0.2 0.4,-0.2 l 7.1,0 z m 0,-2.3 c 0.2,0 0.4,0 0.4,0.2 0,0.3 -0.2,0.3 -0.4,0.3 l -7.1,0 c -0.2,0 -0.4,0 -0.4,-0.3 0,-0.2 0.2,-0.2 0.4,-0.2 l 7.1,0 z"
           style="fill:#000000;fill-opacity:1;fill-rule:evenodd;stroke:none"
           id="path3789" />
        <path
           inkscape:connector-curvature="0"
           d="m 249.6,211.2 c 0.3,0 1.3,-0.2 1.3,-1 0,-0.6 -0.5,-1.1 -1.4,-1.1 -1,0 -1.4,0.7 -1.6,1.7 -0.1,0.1 -0.1,0.2 -0.2,0.2 -0.2,0 -0.2,-0.1 -0.2,-0.3 l 0,-1.6 c 0,-0.2 0,-0.3 0.2,-0.3 0,0 0,0 0.3,0.3 0,0 0,0 0.2,0.2 0.5,-0.5 1.1,-0.5 1.3,-0.5 1.4,0 2,0.8 2,1.7 0,0.6 -0.4,0.9 -0.5,1 -0.5,0.4 -0.9,0.5 -1.4,0.6 -0.7,0.1 -1.5,0.3 -1.5,1 0,0.4 0.3,0.9 1.4,0.9 1.3,0 1.3,-1.1 1.4,-1.5 0,-0.1 0.1,-0.1 0.1,-0.1 0.2,0 0.2,0.1 0.2,0.3 l 0,1.2 c 0,0.2 0,0.3 -0.2,0.3 0,0 0,0 -0.2,-0.1 0,-0.1 -0.2,-0.2 -0.2,-0.2 -0.5,0.3 -1,0.3 -1.1,0.3 -1.5,0 -2,-0.8 -2,-1.4 0,-0.5 0.2,-0.8 0.5,-1.1 0.4,-0.3 0.8,-0.3 1.6,-0.5 z"
           style="fill:#000000;fill-opacity:1;fill-rule:evenodd;stroke:none"
           id="path3791" />
        <path
           inkscape:connector-curvature="0"
           d="m 253.9,214.1 -1.7,-0.1 0,-0.4 c 0.9,0 1,0 1,-0.6 l 0,-3.1 c 0,-0.6 -0.2,-0.6 -1,-0.6 l 0,-0.3 c 0.4,0 1.1,0 1.3,0 0.5,0 0.9,0 1.3,0 l 0,0.3 c -0.8,0 -0.9,0.1 -0.9,0.5 l 0,4.3 z m 0.1,2.1 c 0,0.4 -0.3,0.6 -0.6,0.6 -0.4,0 -0.7,-0.3 -0.7,-0.6 0,-0.3 0.3,-0.6 0.7,-0.6 0.3,0 0.6,0.2 0.6,0.6 z"
           style="fill:#000000;fill-opacity:1;fill-rule:evenodd;stroke:none"
           id="path3793" />
        <path
           inkscape:connector-curvature="0"
           d="m 256.4,213 0,-3.1 c 0,-0.6 -0.1,-0.6 -0.9,-0.6 l 0,-0.3 c 0.4,0 1,0 1.4,0 0.3,0 0.9,0 1.3,0 l 0,0.3 c -0.8,0 -0.9,0 -0.9,0.6 l 0,2.1 c 0,1.2 0.8,1.9 1.6,1.9 0.7,0 0.9,-0.7 0.9,-1.3 l 0,-2.7 c 0,-0.6 -0.2,-0.6 -1,-0.6 l 0,-0.3 c 0.5,0 1.1,0 1.4,0 0.3,0 0.9,0 1.3,0 l 0,0.3 c -0.6,0 -0.9,0 -0.9,0.4 l 0,2.2 c 0,1 0,1.4 -0.4,1.8 -0.2,0.2 -0.5,0.4 -1.2,0.4 -0.9,0 -1.5,-0.5 -1.8,-1.2 l 0,1.2 -1.7,-0.1 0,-0.4 c 0.8,0 0.9,0 0.9,-0.6 z"
           style="fill:#000000;fill-opacity:1;fill-rule:evenodd;stroke:none"
           id="path3795" />
        <path
           inkscape:connector-curvature="0"
           d="m 267.7,206.1 c 0,0.1 0,0.1 -0.2,0.3 -1.5,1.5 -1.9,3.7 -1.9,5.5 0,2 0.5,4 2,5.5 0.1,0.2 0.1,0.2 0.1,0.2 0,0.1 0,0.1 -0.1,0.1 -0.1,0 -1.2,-0.8 -1.9,-2.3 -0.6,-1.3 -0.8,-2.6 -0.8,-3.5 0,-0.9 0.2,-2.3 0.8,-3.7 0.8,-1.4 1.8,-2.2 1.9,-2.2 0.1,0 0.1,0.1 0.1,0.1 z"
           style="fill:#000000;fill-opacity:1;fill-rule:evenodd;stroke:none"
           id="path3797" />
        <path
           inkscape:connector-curvature="0"
           d="m 273.8,214.8 c 0,0.8 -0.2,2.4 -1.4,2.4 -1.7,0 -3.5,-3.3 -3.5,-6 0,-1.1 0.3,-2.4 1.4,-2.4 1.7,0 3.5,3.4 3.5,6 z m -3.6,-1.6 c 0.2,0.7 0.4,1.7 0.9,2.5 0.3,0.6 0.7,1.2 1.3,1.2 0.6,0 0.7,-0.7 0.7,-1.4 0,-0.6 -0.1,-1.2 -0.4,-2.3 l -2.5,0 z m 2.4,-0.4 c -0.2,-0.5 -0.4,-1.5 -0.9,-2.4 -0.4,-0.8 -0.8,-1.3 -1.4,-1.3 -0.4,0 -0.6,0.3 -0.6,1.4 0,0.5 0,1.1 0.4,2.3 l 2.5,0 z"
           style="fill:#000000;fill-opacity:1;fill-rule:evenodd;stroke:none"
           id="path3799" />
        <path
           inkscape:connector-curvature="0"
           d="m 277.8,211.9 c 0,0.9 -0.2,2.3 -0.8,3.6 -0.7,1.5 -1.8,2.2 -1.9,2.2 -0.1,0 -0.1,0 -0.1,-0.1 0,0 0,0 0.2,-0.3 1.2,-1.1 1.9,-3 1.9,-5.4 0,-2 -0.5,-4.1 -2,-5.6 -0.1,-0.1 -0.1,-0.1 -0.1,-0.2 0,0 0,-0.1 0.1,-0.1 0.1,0 1.2,0.8 1.9,2.3 0.6,1.3 0.8,2.6 0.8,3.6 z"
           style="fill:#000000;fill-opacity:1;fill-rule:evenodd;stroke:none"
           id="path3801" />
        <path
           inkscape:connector-curvature="0"
           d="m 288.5,215.6 c 0.5,0.9 1,0.9 1.5,1 0.1,0 0.2,0.2 0.2,0.2 0,0.1 -0.1,0.1 -0.2,0.1 -0.3,0 -0.7,0 -1,0 -0.4,0 -0.8,0 -1.2,0 -0.1,0 -0.2,0 -0.2,-0.2 0,-0.1 0.1,-0.1 0.2,-0.1 0.3,-0.1 0.5,-0.2 0.5,-0.4 0,-0.2 -0.1,-0.5 -0.1,-0.5 l -3.7,-5.7 -0.8,6.2 c 0,0.2 0.3,0.4 0.8,0.4 0.2,0 0.3,0 0.3,0.2 0,0.1 -0.1,0.1 -0.2,0.1 -0.4,0 -1,0 -1.5,0 -0.2,0 -0.4,0 -0.6,0 -0.2,0 -0.4,0 -0.7,0 -0.1,0 -0.2,0 -0.2,-0.2 0,-0.1 0.1,-0.1 0.3,-0.1 0.7,0 0.7,-0.1 0.7,-0.4 l 1,-7.3 c 0,-0.2 0,-0.2 0.2,-0.2 0.2,0 0.3,0 0.4,0.2 l 4.3,6.7 z"
           style="fill:#000000;fill-opacity:1;fill-rule:evenodd;stroke:none"
           id="path3803" />
        <path
           inkscape:connector-curvature="0"
           d="m 294.2,214.4 c -0.1,-0.1 -0.2,-0.4 -0.2,-0.5 0,-0.1 0.2,-0.2 0.3,-0.2 0.2,0 0.3,0.1 0.3,0.2 0.1,0 0.1,0.3 0.2,0.5 0,0.1 0.1,0.5 0.2,0.7 0,0.2 0.1,0.4 0.1,0.6 0.1,0.3 0.1,0.3 0.3,0.6 0.2,0.4 0.7,0.9 1.3,0.9 0.5,0 0.5,-0.4 0.5,-0.6 0,-0.5 -0.4,-1.4 -0.5,-1.8 -0.1,-0.2 -0.1,-0.3 -0.1,-0.4 0,-0.5 0.4,-0.7 0.8,-0.7 0.8,0 1.2,1.1 1.2,1.2 0,0.1 -0.1,0.1 -0.1,0.1 -0.2,0 -0.2,0 -0.2,-0.1 -0.2,-0.7 -0.5,-1 -0.9,-1 -0.2,0 -0.2,0.1 -0.2,0.3 0,0.2 0,0.3 0.2,0.7 0.1,0.2 0.5,1.1 0.5,1.6 0,0.1 0,0.4 -0.4,0.7 -0.1,0.1 -0.4,0.2 -0.8,0.2 -0.7,0 -1.2,-0.5 -1.4,-0.8 -0.1,0.7 -0.7,0.8 -1.1,0.8 -0.7,0 -1.2,-0.4 -1.4,-0.8 -0.1,0.6 -0.6,0.8 -0.9,0.8 -0.4,0 -0.6,-0.3 -0.7,-0.4 -0.2,-0.4 -0.3,-0.8 -0.3,-0.9 0,-0.1 0.1,-0.1 0.1,-0.1 0.2,0 0.2,0.1 0.2,0.3 0.1,0.5 0.3,0.9 0.7,0.9 0.2,0 0.2,-0.2 0.2,-0.4 0,-0.2 0,-0.5 -0.1,-0.7 -0.1,-0.2 -0.1,-0.6 -0.2,-0.8 l -0.3,-1 c 0,-0.1 -0.1,-0.3 -0.1,-0.4 0,-0.1 0.2,-0.2 0.3,-0.2 0.2,0 0.3,0.1 0.4,0.2 0,0 0.1,0.3 0.1,0.5 0.1,0.1 0.2,0.5 0.2,0.7 0,0.2 0.1,0.4 0.1,0.6 0.1,0.3 0.1,0.4 0.4,0.7 0.2,0.3 0.6,0.8 1.3,0.8 0.4,0 0.4,-0.5 0.4,-0.6 0,-0.2 0,-0.3 -0.1,-0.8 l -0.3,-1.4 z"
           style="fill:#000000;fill-opacity:1;fill-rule:evenodd;stroke:none"
           id="path3805" />
        <path
           inkscape:connector-curvature="0"
           d="m 290,206.9 c -0.1,-0.3 -0.4,-0.7 -0.8,-0.7 -0.1,0 -0.3,0 -0.5,0.1 0.3,0.1 0.4,0.4 0.4,0.5 0,0.2 -0.2,0.3 -0.4,0.3 -0.2,0 -0.4,-0.2 -0.4,-0.5 0,-0.4 0.4,-0.6 0.8,-0.6 0.4,0 0.8,0.2 1,0.6 0.2,-0.5 0.6,-0.6 1,-0.6 1,0 1.5,1 1.5,1.2 0,0.1 -0.1,0.1 -0.2,0.1 -0.1,0 -0.1,0 -0.1,-0.1 -0.2,-0.6 -0.7,-1 -1.2,-1 -0.3,0 -0.5,0.2 -0.5,0.5 0,0.3 0.2,1 0.4,1.9 0.2,0.7 0.6,0.9 0.9,0.9 0,0 0.3,0 0.4,-0.1 -0.2,-0.1 -0.3,-0.4 -0.3,-0.5 0,-0.2 0.1,-0.3 0.3,-0.3 0.2,0 0.5,0.1 0.5,0.5 0,0.5 -0.6,0.6 -0.9,0.6 -0.5,0 -0.8,-0.3 -1,-0.6 -0.1,0.4 -0.5,0.6 -1,0.6 -0.9,0 -1.4,-1 -1.4,-1.3 0,-0.1 0.1,-0.1 0.1,-0.1 0.1,0 0.1,0.1 0.2,0.2 0.2,0.6 0.7,1 1.1,1 0.3,0 0.5,-0.2 0.5,-0.6 0,-0.1 -0.1,-0.6 -0.2,-0.8 l -0.2,-1.2 z"
           style="fill:#000000;fill-opacity:1;fill-rule:evenodd;stroke:none"
           id="path3807" />
        <path
           inkscape:connector-curvature="0"
           d="m 307.1,211.6 3.3,0 c 0.2,0 0.4,0 0.4,0.2 0,0.3 -0.2,0.3 -0.4,0.3 l -3.3,0 0,3.3 c 0,0.1 0,0.4 -0.2,0.4 -0.3,0 -0.3,-0.3 -0.3,-0.4 l 0,-3.3 -3.3,0 c -0.2,0 -0.4,0 -0.4,-0.3 0,-0.2 0.2,-0.2 0.4,-0.2 l 3.3,0 0,-3.2 c 0,-0.2 0,-0.4 0.3,-0.4 0.2,0 0.2,0.2 0.2,0.4 l 0,3.2 z"
           style="fill:#000000;fill-opacity:1;fill-rule:evenodd;stroke:none"
           id="path3809" />
        <path
           inkscape:connector-curvature="0"
           d="m 315.5,211.5 c 0,1.9 1,2.4 1.6,2.4 0.1,0 0.9,0 1.3,-0.4 -0.5,-0.1 -0.6,-0.4 -0.6,-0.6 0,-0.3 0.3,-0.5 0.6,-0.5 0.3,0 0.5,0.2 0.5,0.5 0,0.8 -0.9,1.3 -1.8,1.3 -1.5,0 -2.6,-1.3 -2.6,-2.7 0,-1.5 1.2,-2.7 2.6,-2.7 1.6,0 2,1.4 2,1.6 0,0.1 -0.2,0.1 -0.2,0.1 -0.1,0 -0.1,-0.1 -0.1,-0.1 -0.4,-1.1 -1.2,-1.3 -1.6,-1.3 -0.6,0 -1.7,0.5 -1.7,2.4 z"
           style="fill:#000000;fill-opacity:1;fill-rule:evenodd;stroke:none"
           id="path3811" />
        <path
           inkscape:connector-curvature="0"
           d="m 325,211.4 c 0,1.6 -1.2,2.8 -2.6,2.8 -1.5,0 -2.7,-1.3 -2.7,-2.8 0,-1.4 1.3,-2.6 2.7,-2.6 1.4,0 2.6,1.2 2.6,2.6 z m -2.6,-2.3 c -0.5,0 -1,0.3 -1.4,0.8 -0.3,0.5 -0.3,1.2 -0.3,1.6 0,0.5 0,1.1 0.3,1.7 0.3,0.5 0.9,0.7 1.4,0.7 0.5,0 1,-0.2 1.3,-0.7 0.3,-0.5 0.3,-1.2 0.3,-1.7 0,-0.4 0,-1 -0.2,-1.5 -0.3,-0.5 -0.8,-0.9 -1.4,-0.9 z"
           style="fill:#000000;fill-opacity:1;fill-rule:evenodd;stroke:none"
           id="path3813" />
        <path
           inkscape:connector-curvature="0"
           d="m 327.8,211.2 c 0.3,0 1.3,-0.2 1.3,-1 0,-0.6 -0.5,-1.1 -1.4,-1.1 -1,0 -1.5,0.7 -1.7,1.7 0,0.1 0,0.2 -0.1,0.2 -0.2,0 -0.2,-0.1 -0.2,-0.3 l 0,-1.6 c 0,-0.2 0,-0.3 0.1,-0.3 0.1,0 0.1,0 0.3,0.3 0,0 0,0 0.3,0.2 0.5,-0.5 1,-0.5 1.3,-0.5 1.4,0 1.9,0.8 1.9,1.7 0,0.6 -0.3,0.9 -0.5,1 -0.4,0.4 -0.8,0.5 -1.3,0.6 -0.7,0.1 -1.5,0.3 -1.5,1 0,0.4 0.3,0.9 1.3,0.9 1.3,0 1.4,-1.1 1.4,-1.5 0.1,-0.1 0.2,-0.1 0.2,-0.1 0.1,0 0.1,0.1 0.1,0.3 l 0,1.2 c 0,0.2 0,0.3 -0.1,0.3 -0.1,0 -0.1,0 -0.3,-0.1 0,-0.1 -0.1,-0.2 -0.2,-0.2 -0.4,0.3 -0.9,0.3 -1.1,0.3 -1.5,0 -1.9,-0.8 -1.9,-1.4 0,-0.5 0.2,-0.8 0.5,-1.1 0.4,-0.3 0.7,-0.3 1.6,-0.5 z"
           style="fill:#000000;fill-opacity:1;fill-rule:evenodd;stroke:none"
           id="path3815" />
        <path
           inkscape:connector-curvature="0"
           d="m 336,206.1 c 0,0.1 0,0.1 -0.2,0.3 -1.5,1.5 -1.9,3.7 -1.9,5.5 0,2 0.5,4 2,5.5 0.1,0.2 0.1,0.2 0.1,0.2 0,0.1 0,0.1 -0.1,0.1 -0.1,0 -1.2,-0.8 -1.9,-2.3 -0.6,-1.3 -0.8,-2.6 -0.8,-3.5 0,-0.9 0.2,-2.3 0.8,-3.7 0.7,-1.4 1.8,-2.2 1.9,-2.2 0.1,0 0.1,0.1 0.1,0.1 z"
           style="fill:#000000;fill-opacity:1;fill-rule:evenodd;stroke:none"
           id="path3817" />
        <path
           inkscape:connector-curvature="0"
           d="m 342.1,214.8 c 0,0.8 -0.2,2.4 -1.4,2.4 -1.7,0 -3.5,-3.3 -3.5,-6 0,-1.1 0.3,-2.4 1.4,-2.4 1.7,0 3.5,3.4 3.5,6 z m -3.6,-1.6 c 0.2,0.7 0.4,1.7 0.9,2.5 0.3,0.6 0.7,1.2 1.3,1.2 0.6,0 0.7,-0.7 0.7,-1.4 0,-0.6 -0.1,-1.2 -0.4,-2.3 l -2.5,0 z m 2.4,-0.4 c -0.2,-0.5 -0.4,-1.5 -0.9,-2.4 -0.4,-0.8 -0.8,-1.3 -1.4,-1.3 -0.4,0 -0.6,0.3 -0.6,1.4 0,0.5 0,1.1 0.4,2.3 l 2.5,0 z"
           style="fill:#000000;fill-opacity:1;fill-rule:evenodd;stroke:none"
           id="path3819" />
        <path
           inkscape:connector-curvature="0"
           d="m 346.1,211.9 c 0,0.9 -0.2,2.3 -0.8,3.6 -0.8,1.5 -1.8,2.2 -1.9,2.2 -0.1,0 -0.1,0 -0.1,-0.1 0,0 0,0 0.2,-0.3 1.2,-1.1 1.9,-3 1.9,-5.4 0,-2 -0.5,-4.1 -2,-5.6 -0.1,-0.1 -0.1,-0.1 -0.1,-0.2 0,0 0,-0.1 0.1,-0.1 0.1,0 1.2,0.8 1.9,2.3 0.6,1.3 0.8,2.6 0.8,3.6 z"
           style="fill:#000000;fill-opacity:1;fill-rule:evenodd;stroke:none"
           id="path3821" />
        <path
           inkscape:connector-curvature="0"
           d="m 356.8,215.6 c 0.5,0.9 1,0.9 1.5,1 0.1,0 0.2,0.2 0.2,0.2 0,0.1 -0.1,0.1 -0.2,0.1 -0.3,0 -0.7,0 -1,0 -0.4,0 -0.8,0 -1.2,0 -0.1,0 -0.2,0 -0.2,-0.2 0,-0.1 0.1,-0.1 0.2,-0.1 0.3,-0.1 0.5,-0.2 0.5,-0.4 0,-0.2 -0.2,-0.5 -0.2,-0.5 l -3.6,-5.7 -0.8,6.2 c 0,0.2 0.2,0.4 0.8,0.4 0.2,0 0.3,0 0.3,0.2 0,0.1 -0.1,0.1 -0.2,0.1 -0.5,0 -1,0 -1.5,0 -0.2,0 -0.4,0 -0.6,0 -0.3,0 -0.5,0 -0.7,0 -0.1,0 -0.2,0 -0.2,-0.2 0,-0.1 0.1,-0.1 0.3,-0.1 0.7,0 0.7,-0.1 0.7,-0.4 l 1,-7.3 c 0,-0.2 0,-0.2 0.2,-0.2 0.2,0 0.2,0 0.3,0.2 l 4.4,6.7 z"
           style="fill:#000000;fill-opacity:1;fill-rule:evenodd;stroke:none"
           id="path3823" />
        <path
           inkscape:connector-curvature="0"
           d="m 362.5,214.4 c -0.1,-0.1 -0.2,-0.4 -0.2,-0.5 0,-0.1 0.2,-0.2 0.3,-0.2 0.2,0 0.3,0.1 0.3,0.2 0.1,0 0.1,0.3 0.2,0.5 0,0.1 0.1,0.5 0.2,0.7 0,0.2 0.1,0.4 0.1,0.6 0.1,0.3 0.1,0.3 0.3,0.6 0.2,0.4 0.7,0.9 1.3,0.9 0.5,0 0.5,-0.4 0.5,-0.6 0,-0.5 -0.4,-1.4 -0.5,-1.8 -0.1,-0.2 -0.1,-0.3 -0.1,-0.4 0,-0.5 0.4,-0.7 0.8,-0.7 0.8,0 1.2,1.1 1.2,1.2 0,0.1 -0.1,0.1 -0.1,0.1 -0.2,0 -0.2,0 -0.2,-0.1 -0.2,-0.7 -0.6,-1 -0.9,-1 -0.2,0 -0.2,0.1 -0.2,0.3 0,0.2 0,0.3 0.2,0.7 0.1,0.2 0.4,1.1 0.4,1.6 0,0.1 0,0.4 -0.3,0.7 -0.1,0.1 -0.4,0.2 -0.8,0.2 -0.7,0 -1.2,-0.5 -1.4,-0.8 -0.1,0.7 -0.7,0.8 -1.1,0.8 -0.7,0 -1.2,-0.4 -1.4,-0.8 -0.1,0.6 -0.6,0.8 -1,0.8 -0.3,0 -0.5,-0.3 -0.6,-0.4 -0.2,-0.4 -0.3,-0.8 -0.3,-0.9 0,-0.1 0.1,-0.1 0.1,-0.1 0.2,0 0.2,0.1 0.2,0.3 0.1,0.5 0.3,0.9 0.6,0.9 0.2,0 0.3,-0.2 0.3,-0.4 0,-0.2 -0.1,-0.5 -0.1,-0.7 -0.1,-0.2 -0.2,-0.6 -0.2,-0.8 l -0.3,-1 c 0,-0.1 -0.1,-0.3 -0.1,-0.4 0,-0.1 0.2,-0.2 0.3,-0.2 0.2,0 0.3,0.1 0.3,0.2 0.1,0 0.2,0.3 0.2,0.5 0.1,0.1 0.1,0.5 0.2,0.7 0,0.2 0.1,0.4 0.1,0.6 0.1,0.3 0.1,0.4 0.4,0.7 0.2,0.3 0.6,0.8 1.3,0.8 0.4,0 0.4,-0.5 0.4,-0.6 0,-0.2 0,-0.3 -0.1,-0.8 l -0.3,-1.4 z"
           style="fill:#000000;fill-opacity:1;fill-rule:evenodd;stroke:none"
           id="path3825" />
        <path
           inkscape:connector-curvature="0"
           d="m 360.8,209.2 c 0.1,0.1 0.1,0.1 0.1,0.2 0,0.1 -0.2,0.2 -0.3,0.2 -0.1,0 -0.3,0 -0.4,-0.2 0,0 -0.1,-0.3 -0.1,-0.5 l -0.2,-0.6 c 0,-0.2 -0.3,-1.3 -0.3,-1.4 0,0 -0.4,-0.7 -1,-0.7 -0.6,0 -0.6,0.5 -0.6,0.7 0,0.4 0.2,1 0.5,1.6 0,0.3 0.1,0.4 0.1,0.5 0,0.4 -0.4,0.7 -0.8,0.7 -0.9,0 -1.2,-1.1 -1.2,-1.3 0,-0.1 0.1,-0.1 0.1,-0.1 0.1,0 0.1,0.1 0.2,0.2 0.2,0.6 0.5,1 0.8,1 0.2,0 0.3,-0.1 0.3,-0.3 0,-0.2 -0.1,-0.4 -0.2,-0.5 -0.4,-1 -0.4,-1.3 -0.4,-1.7 0,-0.1 0,-0.5 0.3,-0.8 0.2,-0.2 0.6,-0.2 0.8,-0.2 0.4,0 0.7,0.1 0.9,0.3 -0.1,-0.4 -0.2,-0.8 -0.5,-1.2 -0.2,-0.2 -0.6,-0.5 -1,-0.5 -0.1,0 -0.5,0 -0.6,0.3 0.4,0 0.4,0.4 0.4,0.4 0,0.3 -0.2,0.3 -0.3,0.3 -0.2,0 -0.5,-0.1 -0.5,-0.5 0,-0.4 0.4,-0.7 1,-0.7 0.8,0 1.9,0.6 2.1,1.7 l 0.8,3.1 z"
           style="fill:#000000;fill-opacity:1;fill-rule:evenodd;stroke:none"
           id="path3827" />
      </g>
    </g>
  </g>
</svg>
