<?xml version="1.0" encoding="UTF-8" standalone="no"?>
<!-- Created with Inkscape (http://www.inkscape.org/) -->

<svg
   xmlns:dc="http://purl.org/dc/elements/1.1/"
   xmlns:cc="http://creativecommons.org/ns#"
   xmlns:rdf="http://www.w3.org/1999/02/22-rdf-syntax-ns#"
   xmlns:svg="http://www.w3.org/2000/svg"
   xmlns="http://www.w3.org/2000/svg"
   xmlns:sodipodi="http://sodipodi.sourceforge.net/DTD/sodipodi-0.dtd"
   xmlns:inkscape="http://www.inkscape.org/namespaces/inkscape"
   width="190.375"
   height="16.625"
   id="svg5809"
   version="1.1"
   inkscape:version="0.48.4 r9939"
   sodipodi:docname="IW 0.svg">
  <defs
     id="defs5811">
    <clipPath
       id="clipPath3715"
       clipPathUnits="userSpaceOnUse">
      <path
         inkscape:connector-curvature="0"
         id="path3717"
         clip-rule="evenodd"
         d="m 56.7,203.5 154,0 0,15 -154,0 0,-15 z" />
    </clipPath>
  </defs>
  <sodipodi:namedview
     id="base"
     pagecolor="#ffffff"
     bordercolor="#666666"
     borderopacity="1.0"
     inkscape:pageopacity="0.0"
     inkscape:pageshadow="2"
     inkscape:zoom="0.35"
     inkscape:cx="95.1875"
     inkscape:cy="8.3124974"
     inkscape:document-units="px"
     inkscape:current-layer="layer1"
     showgrid="false"
     inkscape:window-width="575"
     inkscape:window-height="413"
     inkscape:window-x="0"
     inkscape:window-y="0"
     inkscape:window-maximized="0"
     fit-margin-top="0"
     fit-margin-left="0"
     fit-margin-right="0"
     fit-margin-bottom="0"
     inkscape:snap-bbox="true" />
  <metadata
     id="metadata5814">
    <rdf:RDF>
      <cc:Work
         rdf:about="">
        <dc:format>image/svg+xml</dc:format>
        <dc:type
           rdf:resource="http://purl.org/dc/dcmitype/StillImage" />
        <dc:title />
      </cc:Work>
    </rdf:RDF>
  </metadata>
  <g
     inkscape:label="Camada 1"
     inkscape:groupmode="layer"
     id="layer1"
     transform="translate(-254.8125,-524.04968)">
    <g
       id="g3711"
       transform="matrix(1.25,0,0,-1.25,182.8125,796.17468)">
      <g
         id="g3713"
         clip-path="url(#clipPath3715)">
        <path
           inkscape:connector-curvature="0"
           d="m 64.4,215.6 c 0.6,0.9 1.1,0.9 1.6,1 0.1,0 0.1,0.2 0.1,0.2 0,0.1 0,0.1 -0.1,0.1 -0.4,0 -0.7,0 -1,0 -0.4,0 -0.8,0 -1.2,0 -0.1,0 -0.3,0 -0.3,-0.2 0,-0.1 0.2,-0.1 0.2,-0.1 0.4,-0.1 0.6,-0.2 0.6,-0.4 0,-0.2 -0.2,-0.5 -0.2,-0.5 l -3.6,-5.7 -0.9,6.2 c 0,0.2 0.3,0.4 0.9,0.4 0.1,0 0.3,0 0.3,0.2 0,0.1 -0.1,0.1 -0.2,0.1 -0.5,0 -1,0 -1.5,0 -0.2,0 -0.4,0 -0.6,0 -0.3,0 -0.5,0 -0.7,0 -0.1,0 -0.2,0 -0.2,-0.2 0,-0.1 0.1,-0.1 0.3,-0.1 0.7,0 0.7,-0.1 0.7,-0.4 l 0.9,-7.3 c 0.1,-0.2 0.1,-0.2 0.3,-0.2 0.2,0 0.2,0 0.3,0.2 l 4.3,6.7 z"
           style="fill:#000000;fill-opacity:1;fill-rule:evenodd;stroke:none"
           id="path3719" />
        <path
           inkscape:connector-curvature="0"
           d="m 70.9,216.4 c 0,0.2 0.1,0.6 0.1,0.6 0,0.2 -0.1,0.3 -0.2,0.3 -0.2,0 -0.3,-0.1 -0.4,-0.2 0,-0.1 -0.1,-0.4 -0.2,-0.7 -0.1,-0.4 -0.1,-0.4 -0.2,-0.9 -0.1,-0.5 -0.1,-0.5 -0.1,-0.8 0,-0.1 -0.1,-0.3 -0.3,-0.5 -0.1,-0.2 -0.3,-0.3 -0.5,-0.3 -0.4,0 -0.8,0.1 -0.8,0.8 0,0.4 0.2,1 0.4,1.4 0.2,0.4 0.2,0.4 0.2,0.6 0,0.4 -0.4,0.7 -0.8,0.7 -0.9,0 -1.2,-1.1 -1.2,-1.3 0,-0.1 0.1,-0.1 0.1,-0.1 0.1,0 0.1,0.1 0.2,0.2 0.2,0.6 0.5,1 0.9,1 0.1,0 0.2,-0.1 0.2,-0.3 0,-0.2 -0.1,-0.4 -0.1,-0.5 -0.5,-1.2 -0.5,-1.4 -0.5,-1.6 0,-1 0.9,-1.1 1.3,-1.1 0.2,0 0.6,0 1,0.5 0.2,-0.4 0.6,-0.5 1.1,-0.5 0.8,0 1.2,0.6 1.3,0.9 0.4,0.7 0.6,1.8 0.6,2.1 0,0.7 -0.3,0.7 -0.4,0.7 -0.2,0 -0.4,-0.2 -0.4,-0.4 0,-0.2 0,-0.2 0.1,-0.3 0.2,-0.2 0.3,-0.4 0.3,-0.7 0,-0.1 -0.3,-2.1 -1.4,-2.1 -0.7,0 -0.7,0.6 -0.7,0.7 0,0.3 0,0.4 0.2,0.9 l 0.2,0.9 z"
           style="fill:#000000;fill-opacity:1;fill-rule:evenodd;stroke:none"
           id="path3721" />
        <path
           inkscape:connector-curvature="0"
           d="m 65.9,206.9 c -0.1,-0.3 -0.4,-0.7 -0.8,-0.7 0,0 -0.3,0 -0.4,0.1 0.3,0.1 0.3,0.4 0.3,0.5 0,0.2 -0.1,0.3 -0.3,0.3 -0.2,0 -0.5,-0.2 -0.5,-0.5 0,-0.4 0.5,-0.6 0.9,-0.6 0.4,0 0.8,0.2 1,0.6 0.2,-0.5 0.6,-0.6 0.9,-0.6 1,0 1.5,1 1.5,1.2 0,0.1 -0.1,0.1 -0.1,0.1 -0.1,0 -0.1,0 -0.2,-0.1 -0.1,-0.6 -0.7,-1 -1.1,-1 -0.4,0 -0.5,0.2 -0.5,0.5 0,0.3 0.2,1 0.4,1.9 0.2,0.7 0.5,0.9 0.8,0.9 0.1,0 0.3,0 0.5,-0.1 -0.3,-0.1 -0.4,-0.4 -0.4,-0.5 0,-0.2 0.2,-0.3 0.4,-0.3 0.1,0 0.4,0.1 0.4,0.5 0,0.5 -0.5,0.6 -0.8,0.6 -0.5,0 -0.8,-0.3 -1,-0.6 -0.1,0.4 -0.5,0.6 -1,0.6 -0.9,0 -1.5,-1 -1.5,-1.3 0,-0.1 0.1,-0.1 0.2,-0.1 0.1,0 0.1,0.1 0.1,0.2 0.2,0.6 0.7,1 1.2,1 0.3,0 0.5,-0.2 0.5,-0.6 0,-0.1 -0.1,-0.6 -0.2,-0.8 l -0.3,-1.2 z"
           style="fill:#000000;fill-opacity:1;fill-rule:evenodd;stroke:none"
           id="path3723" />
        <path
           inkscape:connector-curvature="0"
           d="m 85.7,212.8 c 0.2,0 0.4,0 0.4,0.2 0,0.2 -0.2,0.2 -0.4,0.2 l -7.1,0 c -0.2,0 -0.4,0 -0.4,-0.2 0,-0.2 0.2,-0.2 0.4,-0.2 l 7.1,0 z m 0,-2.3 c 0.2,0 0.4,0 0.4,0.2 0,0.3 -0.2,0.3 -0.4,0.3 l -7.1,0 c -0.2,0 -0.4,0 -0.4,-0.3 0,-0.2 0.2,-0.2 0.4,-0.2 l 7.1,0 z"
           style="fill:#000000;fill-opacity:1;fill-rule:evenodd;stroke:none"
           id="path3725" />
        <path
           inkscape:connector-curvature="0"
           d="m 91.4,211.5 c 0,1.9 1,2.4 1.7,2.4 0.1,0 0.8,0 1.3,-0.4 -0.5,-0.1 -0.6,-0.4 -0.6,-0.6 0,-0.3 0.2,-0.5 0.6,-0.5 0.3,0 0.5,0.2 0.5,0.5 0,0.8 -0.9,1.3 -1.8,1.3 -1.5,0 -2.6,-1.3 -2.6,-2.7 0,-1.5 1.1,-2.7 2.5,-2.7 1.7,0 2,1.4 2,1.6 0,0.1 -0.1,0.1 -0.1,0.1 -0.1,0 -0.2,-0.1 -0.2,-0.1 -0.3,-1.1 -1.1,-1.3 -1.6,-1.3 -0.6,0 -1.7,0.5 -1.7,2.4 z"
           style="fill:#000000;fill-opacity:1;fill-rule:evenodd;stroke:none"
           id="path3727" />
        <path
           inkscape:connector-curvature="0"
           d="m 101,211.4 c 0,1.6 -1.2,2.8 -2.6,2.8 -1.6,0 -2.7,-1.3 -2.7,-2.8 0,-1.4 1.2,-2.6 2.6,-2.6 1.5,0 2.7,1.2 2.7,2.6 z m -2.6,-2.3 c -0.6,0 -1.1,0.3 -1.4,0.8 -0.3,0.5 -0.3,1.2 -0.3,1.6 0,0.5 0,1.1 0.3,1.7 0.3,0.5 0.9,0.7 1.3,0.7 0.6,0 1.1,-0.2 1.4,-0.7 0.3,-0.5 0.3,-1.2 0.3,-1.7 0,-0.4 0,-1 -0.2,-1.5 -0.3,-0.5 -0.9,-0.9 -1.4,-0.9 z"
           style="fill:#000000;fill-opacity:1;fill-rule:evenodd;stroke:none"
           id="path3729" />
        <path
           inkscape:connector-curvature="0"
           d="m 103.8,211.2 c 0.3,0 1.2,-0.2 1.2,-1 0,-0.6 -0.4,-1.1 -1.3,-1.1 -1,0 -1.5,0.7 -1.7,1.7 0,0.1 0,0.2 -0.1,0.2 -0.2,0 -0.2,-0.1 -0.2,-0.3 l 0,-1.6 c 0,-0.2 0,-0.3 0.1,-0.3 0.1,0 0.1,0 0.3,0.3 0,0 0,0 0.3,0.2 0.5,-0.5 1,-0.5 1.3,-0.5 1.4,0 1.9,0.8 1.9,1.7 0,0.6 -0.4,0.9 -0.5,1 -0.4,0.4 -0.8,0.5 -1.3,0.6 -0.7,0.1 -1.5,0.3 -1.5,1 0,0.4 0.3,0.9 1.3,0.9 1.3,0 1.4,-1.1 1.4,-1.5 0,-0.1 0.1,-0.1 0.1,-0.1 0.2,0 0.2,0.1 0.2,0.3 l 0,1.2 c 0,0.2 0,0.3 -0.1,0.3 -0.1,0 -0.1,0 -0.3,-0.1 0,-0.1 -0.1,-0.2 -0.2,-0.2 -0.4,0.3 -0.9,0.3 -1.1,0.3 -1.5,0 -1.9,-0.8 -1.9,-1.4 0,-0.5 0.2,-0.8 0.5,-1.1 0.4,-0.3 0.7,-0.3 1.6,-0.5 z"
           style="fill:#000000;fill-opacity:1;fill-rule:evenodd;stroke:none"
           id="path3731" />
        <path
           inkscape:connector-curvature="0"
           d="m 112,206.1 c 0,0.1 0,0.1 -0.2,0.3 -1.5,1.5 -1.9,3.7 -1.9,5.5 0,2 0.4,4 1.9,5.5 0.2,0.2 0.2,0.2 0.2,0.2 0,0.1 -0.1,0.1 -0.1,0.1 -0.2,0 -1.3,-0.8 -2,-2.3 -0.6,-1.3 -0.7,-2.6 -0.7,-3.5 0,-0.9 0.1,-2.3 0.8,-3.7 0.7,-1.4 1.7,-2.2 1.9,-2.2 0,0 0.1,0.1 0.1,0.1 z"
           style="fill:#000000;fill-opacity:1;fill-rule:evenodd;stroke:none"
           id="path3733" />
        <path
           inkscape:connector-curvature="0"
           d="m 118.1,214.8 c 0,0.8 -0.2,2.4 -1.4,2.4 -1.7,0 -3.5,-3.3 -3.5,-6 0,-1.1 0.3,-2.4 1.4,-2.4 1.7,0 3.5,3.4 3.5,6 z m -3.7,-1.6 c 0.2,0.7 0.5,1.7 1,2.5 0.3,0.6 0.7,1.2 1.2,1.2 0.7,0 0.7,-0.7 0.7,-1.4 0,-0.6 -0.1,-1.2 -0.4,-2.3 l -2.5,0 z m 2.4,-0.4 c -0.1,-0.5 -0.4,-1.5 -0.8,-2.4 -0.4,-0.8 -0.9,-1.3 -1.4,-1.3 -0.4,0 -0.7,0.3 -0.7,1.4 0,0.5 0.1,1.1 0.4,2.3 l 2.5,0 z"
           style="fill:#000000;fill-opacity:1;fill-rule:evenodd;stroke:none"
           id="path3735" />
        <path
           inkscape:connector-curvature="0"
           d="m 122,211.9 c 0,0.9 -0.1,2.3 -0.8,3.6 -0.7,1.5 -1.7,2.2 -1.8,2.2 -0.1,0 -0.2,0 -0.2,-0.1 0,0 0,0 0.3,-0.3 1.2,-1.1 1.8,-3 1.8,-5.4 0,-2 -0.4,-4.1 -1.9,-5.6 -0.2,-0.1 -0.2,-0.1 -0.2,-0.2 0,0 0.1,-0.1 0.2,-0.1 0.1,0 1.2,0.8 1.9,2.3 0.6,1.3 0.7,2.6 0.7,3.6 z"
           style="fill:#000000;fill-opacity:1;fill-rule:evenodd;stroke:none"
           id="path3737" />
        <path
           inkscape:connector-curvature="0"
           d="m 132.7,215.6 c 0.6,0.9 1.1,0.9 1.6,1 0.1,0 0.1,0.2 0.1,0.2 0,0.1 0,0.1 -0.1,0.1 -0.3,0 -0.7,0 -1,0 -0.4,0 -0.8,0 -1.2,0 -0.1,0 -0.3,0 -0.3,-0.2 0,-0.1 0.2,-0.1 0.3,-0.1 0.3,-0.1 0.5,-0.2 0.5,-0.4 0,-0.2 -0.2,-0.5 -0.2,-0.5 l -3.6,-5.7 -0.9,6.2 c 0,0.2 0.3,0.4 0.9,0.4 0.1,0 0.3,0 0.3,0.2 0,0.1 -0.1,0.1 -0.2,0.1 -0.5,0 -1,0 -1.5,0 -0.2,0 -0.4,0 -0.6,0 -0.3,0 -0.5,0 -0.7,0 -0.1,0 -0.2,0 -0.2,-0.2 0,-0.1 0.1,-0.1 0.3,-0.1 0.7,0 0.7,-0.1 0.7,-0.4 l 0.9,-7.3 c 0.1,-0.2 0.1,-0.2 0.3,-0.2 0.2,0 0.2,0 0.3,0.2 l 4.3,6.7 z"
           style="fill:#000000;fill-opacity:1;fill-rule:evenodd;stroke:none"
           id="path3739" />
        <path
           inkscape:connector-curvature="0"
           d="m 138.4,214.4 c 0,-0.1 -0.1,-0.4 -0.1,-0.5 0,-0.1 0.2,-0.2 0.3,-0.2 0.1,0 0.3,0.1 0.3,0.2 0,0 0.1,0.3 0.2,0.5 0,0.1 0.1,0.5 0.1,0.7 0.1,0.2 0.1,0.4 0.2,0.6 0.1,0.3 0.1,0.3 0.3,0.6 0.2,0.4 0.6,0.9 1.3,0.9 0.5,0 0.5,-0.4 0.5,-0.6 0,-0.5 -0.4,-1.4 -0.5,-1.8 -0.1,-0.2 -0.1,-0.3 -0.1,-0.4 0,-0.5 0.3,-0.7 0.8,-0.7 0.8,0 1.2,1.1 1.2,1.2 0,0.1 -0.1,0.1 -0.2,0.1 -0.1,0 -0.1,0 -0.1,-0.1 -0.2,-0.7 -0.6,-1 -0.9,-1 -0.2,0 -0.2,0.1 -0.2,0.3 0,0.2 0,0.3 0.2,0.7 0.1,0.2 0.4,1.1 0.4,1.6 0,0.1 0,0.4 -0.3,0.7 -0.1,0.1 -0.4,0.2 -0.8,0.2 -0.7,0 -1.2,-0.5 -1.4,-0.8 -0.1,0.7 -0.7,0.8 -1.1,0.8 -0.7,0 -1.2,-0.4 -1.5,-0.8 0,0.6 -0.5,0.8 -0.9,0.8 -0.3,0 -0.5,-0.3 -0.6,-0.4 -0.2,-0.4 -0.3,-0.8 -0.3,-0.9 0,-0.1 0.1,-0.1 0.1,-0.1 0.1,0 0.1,0.1 0.2,0.3 0.1,0.5 0.3,0.9 0.6,0.9 0.2,0 0.3,-0.2 0.3,-0.4 0,-0.2 -0.1,-0.5 -0.1,-0.7 -0.1,-0.2 -0.2,-0.6 -0.2,-0.8 l -0.3,-1 c 0,-0.1 -0.1,-0.3 -0.1,-0.4 0,-0.1 0.2,-0.2 0.3,-0.2 0.2,0 0.3,0.1 0.3,0.2 0.1,0 0.1,0.3 0.2,0.5 0,0.1 0.1,0.5 0.2,0.7 0,0.2 0.1,0.4 0.1,0.6 0.1,0.3 0.1,0.4 0.4,0.7 0.2,0.3 0.6,0.8 1.2,0.8 0.5,0 0.5,-0.5 0.5,-0.6 0,-0.2 0,-0.3 -0.1,-0.8 l -0.4,-1.4 z"
           style="fill:#000000;fill-opacity:1;fill-rule:evenodd;stroke:none"
           id="path3741" />
        <path
           inkscape:connector-curvature="0"
           d="m 134.2,206.9 c -0.1,-0.3 -0.3,-0.7 -0.8,-0.7 0,0 -0.3,0 -0.4,0.1 0.3,0.1 0.3,0.4 0.3,0.5 0,0.2 -0.1,0.3 -0.3,0.3 -0.2,0 -0.5,-0.2 -0.5,-0.5 0,-0.4 0.5,-0.6 0.9,-0.6 0.4,0 0.8,0.2 1,0.6 0.2,-0.5 0.6,-0.6 0.9,-0.6 1,0 1.5,1 1.5,1.2 0,0.1 -0.1,0.1 -0.1,0.1 -0.1,0 -0.1,0 -0.2,-0.1 -0.1,-0.6 -0.6,-1 -1.1,-1 -0.4,0 -0.5,0.2 -0.5,0.5 0,0.3 0.2,1 0.4,1.9 0.2,0.7 0.6,0.9 0.8,0.9 0.1,0 0.3,0 0.5,-0.1 -0.3,-0.1 -0.4,-0.4 -0.4,-0.5 0,-0.2 0.2,-0.3 0.4,-0.3 0.1,0 0.4,0.1 0.4,0.5 0,0.5 -0.5,0.6 -0.8,0.6 -0.5,0 -0.8,-0.3 -1,-0.6 -0.1,0.4 -0.5,0.6 -1,0.6 -0.9,0 -1.5,-1 -1.5,-1.3 0,-0.1 0.1,-0.1 0.2,-0.1 0.1,0 0.1,0.1 0.1,0.2 0.2,0.6 0.8,1 1.2,1 0.3,0 0.5,-0.2 0.5,-0.6 0,-0.1 -0.1,-0.6 -0.2,-0.8 l -0.3,-1.2 z"
           style="fill:#000000;fill-opacity:1;fill-rule:evenodd;stroke:none"
           id="path3743" />
        <path
           inkscape:connector-curvature="0"
           d="m 154.4,211.6 c 0.2,0 0.4,0 0.4,0.2 0,0.3 -0.2,0.3 -0.4,0.3 l -6.5,0 c -0.2,0 -0.4,0 -0.4,-0.3 0,-0.2 0.2,-0.2 0.4,-0.2 l 6.5,0 z"
           style="fill:#000000;fill-opacity:1;fill-rule:evenodd;stroke:none"
           id="path3745" />
        <path
           inkscape:connector-curvature="0"
           d="m 160.9,211.2 c 0.3,0 1.3,-0.2 1.3,-1 0,-0.6 -0.5,-1.1 -1.4,-1.1 -1,0 -1.5,0.7 -1.7,1.7 0,0.1 0,0.2 -0.1,0.2 -0.2,0 -0.2,-0.1 -0.2,-0.3 l 0,-1.6 c 0,-0.2 0,-0.3 0.1,-0.3 0.1,0 0.1,0 0.3,0.3 0,0 0,0 0.3,0.2 0.5,-0.5 1,-0.5 1.3,-0.5 1.4,0 1.9,0.8 1.9,1.7 0,0.6 -0.3,0.9 -0.5,1 -0.4,0.4 -0.8,0.5 -1.3,0.6 -0.7,0.1 -1.5,0.3 -1.5,1 0,0.4 0.3,0.9 1.3,0.9 1.3,0 1.4,-1.1 1.4,-1.5 0.1,-0.1 0.2,-0.1 0.2,-0.1 0.1,0 0.1,0.1 0.1,0.3 l 0,1.2 c 0,0.2 0,0.3 -0.1,0.3 -0.1,0 -0.1,0 -0.3,-0.1 0,-0.1 -0.1,-0.2 -0.2,-0.2 -0.4,0.3 -0.9,0.3 -1.1,0.3 -1.5,0 -1.9,-0.8 -1.9,-1.4 0,-0.5 0.2,-0.8 0.5,-1.1 0.4,-0.3 0.7,-0.3 1.6,-0.5 z"
           style="fill:#000000;fill-opacity:1;fill-rule:evenodd;stroke:none"
           id="path3747" />
        <path
           inkscape:connector-curvature="0"
           d="m 165.2,214.1 -1.7,-0.1 0,-0.4 c 0.8,0 0.9,0 0.9,-0.6 l 0,-3.1 c 0,-0.6 -0.1,-0.6 -0.9,-0.6 l 0,-0.3 c 0.3,0 1,0 1.3,0 0.4,0 0.8,0 1.3,0 l 0,0.3 c -0.8,0 -0.9,0.1 -0.9,0.5 l 0,4.3 z m 0.1,2.1 c 0,0.4 -0.3,0.6 -0.7,0.6 -0.3,0 -0.6,-0.3 -0.6,-0.6 0,-0.3 0.3,-0.6 0.6,-0.6 0.4,0 0.7,0.2 0.7,0.6 z"
           style="fill:#000000;fill-opacity:1;fill-rule:evenodd;stroke:none"
           id="path3749" />
        <path
           inkscape:connector-curvature="0"
           d="m 167.7,213 0,-3.1 c 0,-0.6 -0.1,-0.6 -0.9,-0.6 l 0,-0.3 c 0.4,0 1,0 1.3,0 0.3,0 1,0 1.4,0 l 0,0.3 c -0.8,0 -1,0 -1,0.6 l 0,2.1 c 0,1.2 0.9,1.9 1.7,1.9 0.7,0 0.8,-0.7 0.8,-1.3 l 0,-2.7 c 0,-0.6 -0.1,-0.6 -0.9,-0.6 l 0,-0.3 c 0.4,0 1,0 1.3,0 0.4,0 1,0 1.4,0 l 0,0.3 c -0.6,0 -0.9,0 -0.9,0.4 l 0,2.2 c 0,1 0,1.4 -0.4,1.8 -0.2,0.2 -0.6,0.4 -1.3,0.4 -0.9,0 -1.4,-0.5 -1.7,-1.2 l 0,1.2 -1.7,-0.1 0,-0.4 c 0.8,0 0.9,0 0.9,-0.6 z"
           style="fill:#000000;fill-opacity:1;fill-rule:evenodd;stroke:none"
           id="path3751" />
        <path
           inkscape:connector-curvature="0"
           d="m 179,206.1 c 0,0.1 0,0.1 -0.2,0.3 -1.5,1.5 -1.9,3.7 -1.9,5.5 0,2 0.5,4 1.9,5.5 0.2,0.2 0.2,0.2 0.2,0.2 0,0.1 -0.1,0.1 -0.1,0.1 -0.2,0 -1.2,-0.8 -2,-2.3 -0.6,-1.3 -0.7,-2.6 -0.7,-3.5 0,-0.9 0.1,-2.3 0.8,-3.7 0.7,-1.4 1.7,-2.2 1.9,-2.2 0,0 0.1,0.1 0.1,0.1 z"
           style="fill:#000000;fill-opacity:1;fill-rule:evenodd;stroke:none"
           id="path3753" />
        <path
           inkscape:connector-curvature="0"
           d="m 185.1,214.8 c 0,0.8 -0.2,2.4 -1.4,2.4 -1.7,0 -3.5,-3.3 -3.5,-6 0,-1.1 0.3,-2.4 1.4,-2.4 1.7,0 3.5,3.4 3.5,6 z m -3.6,-1.6 c 0.2,0.7 0.4,1.7 0.9,2.5 0.3,0.6 0.7,1.2 1.3,1.2 0.6,0 0.6,-0.7 0.6,-1.4 0,-0.6 -0.1,-1.2 -0.4,-2.3 l -2.4,0 z m 2.3,-0.4 c -0.1,-0.5 -0.3,-1.5 -0.8,-2.4 -0.4,-0.8 -0.9,-1.3 -1.4,-1.3 -0.4,0 -0.7,0.3 -0.7,1.4 0,0.5 0.1,1.1 0.5,2.3 l 2.4,0 z"
           style="fill:#000000;fill-opacity:1;fill-rule:evenodd;stroke:none"
           id="path3755" />
        <path
           inkscape:connector-curvature="0"
           d="m 189.1,211.9 c 0,0.9 -0.2,2.3 -0.9,3.6 -0.7,1.5 -1.7,2.2 -1.8,2.2 -0.1,0 -0.2,0 -0.2,-0.1 0,0 0,0 0.3,-0.3 1.2,-1.1 1.8,-3 1.8,-5.4 0,-2 -0.4,-4.1 -1.9,-5.6 -0.2,-0.1 -0.2,-0.1 -0.2,-0.2 0,0 0.1,-0.1 0.2,-0.1 0.1,0 1.2,0.8 1.9,2.3 0.6,1.3 0.8,2.6 0.8,3.6 z"
           style="fill:#000000;fill-opacity:1;fill-rule:evenodd;stroke:none"
           id="path3757" />
        <path
           inkscape:connector-curvature="0"
           d="m 199.7,215.6 c 0.6,0.9 1.1,0.9 1.6,1 0.1,0 0.1,0.2 0.1,0.2 0,0.1 0,0.1 -0.1,0.1 -0.3,0 -0.7,0 -1,0 -0.4,0 -0.8,0 -1.2,0 -0.1,0 -0.2,0 -0.2,-0.2 0,-0.1 0.1,-0.1 0.2,-0.1 0.3,-0.1 0.5,-0.2 0.5,-0.4 0,-0.2 -0.2,-0.5 -0.2,-0.5 l -3.6,-5.7 -0.8,6.2 c 0,0.2 0.2,0.4 0.8,0.4 0.1,0 0.3,0 0.3,0.2 0,0.1 -0.1,0.1 -0.2,0.1 -0.5,0 -1,0 -1.5,0 -0.2,0 -0.4,0 -0.6,0 -0.3,0 -0.5,0 -0.7,0 -0.1,0 -0.2,0 -0.2,-0.2 0,-0.1 0.1,-0.1 0.3,-0.1 0.7,0 0.7,-0.1 0.7,-0.4 l 1,-7.3 c 0,-0.2 0,-0.2 0.2,-0.2 0.2,0 0.2,0 0.3,0.2 l 4.3,6.7 z"
           style="fill:#000000;fill-opacity:1;fill-rule:evenodd;stroke:none"
           id="path3759" />
        <path
           inkscape:connector-curvature="0"
           d="m 205.4,214.4 c 0,-0.1 -0.1,-0.4 -0.1,-0.5 0,-0.1 0.2,-0.2 0.3,-0.2 0.2,0 0.3,0.1 0.3,0.2 0.1,0 0.1,0.3 0.2,0.5 0,0.1 0.1,0.5 0.2,0.7 0,0.2 0.1,0.4 0.1,0.6 0.1,0.3 0.1,0.3 0.3,0.6 0.2,0.4 0.6,0.9 1.3,0.9 0.5,0 0.5,-0.4 0.5,-0.6 0,-0.5 -0.4,-1.4 -0.5,-1.8 -0.1,-0.2 -0.1,-0.3 -0.1,-0.4 0,-0.5 0.4,-0.7 0.8,-0.7 0.8,0 1.2,1.1 1.2,1.2 0,0.1 -0.1,0.1 -0.1,0.1 -0.2,0 -0.2,0 -0.2,-0.1 -0.2,-0.7 -0.6,-1 -0.9,-1 -0.2,0 -0.2,0.1 -0.2,0.3 0,0.2 0,0.3 0.2,0.7 0.1,0.2 0.4,1.1 0.4,1.6 0,0.1 0,0.4 -0.3,0.7 -0.1,0.1 -0.4,0.2 -0.8,0.2 -0.7,0 -1.2,-0.5 -1.4,-0.8 -0.1,0.7 -0.7,0.8 -1.1,0.8 -0.7,0 -1.2,-0.4 -1.4,-0.8 -0.1,0.6 -0.6,0.8 -1,0.8 -0.3,0 -0.5,-0.3 -0.6,-0.4 -0.2,-0.4 -0.3,-0.8 -0.3,-0.9 0,-0.1 0.1,-0.1 0.1,-0.1 0.2,0 0.2,0.1 0.2,0.3 0.1,0.5 0.3,0.9 0.6,0.9 0.2,0 0.3,-0.2 0.3,-0.4 0,-0.2 -0.1,-0.5 -0.1,-0.7 -0.1,-0.2 -0.2,-0.6 -0.2,-0.8 l -0.3,-1 c 0,-0.1 -0.1,-0.3 -0.1,-0.4 0,-0.1 0.2,-0.2 0.3,-0.2 0.2,0 0.3,0.1 0.3,0.2 0.1,0 0.1,0.3 0.2,0.5 0,0.1 0.1,0.5 0.2,0.7 0,0.2 0.1,0.4 0.1,0.6 0.1,0.3 0.1,0.4 0.4,0.7 0.2,0.3 0.6,0.8 1.2,0.8 0.5,0 0.5,-0.5 0.5,-0.6 0,-0.2 0,-0.3 -0.1,-0.8 l -0.4,-1.4 z"
           style="fill:#000000;fill-opacity:1;fill-rule:evenodd;stroke:none"
           id="path3761" />
        <path
           inkscape:connector-curvature="0"
           d="m 203.8,209.2 c 0.1,0.1 0.1,0.1 0.1,0.2 0,0.1 -0.2,0.2 -0.3,0.2 -0.1,0 -0.3,0 -0.4,-0.2 0,0 -0.1,-0.3 -0.1,-0.5 l -0.2,-0.6 c 0,-0.2 -0.3,-1.3 -0.3,-1.4 0,0 -0.4,-0.7 -1.1,-0.7 -0.5,0 -0.5,0.5 -0.5,0.7 0,0.4 0.2,1 0.4,1.6 0.1,0.3 0.2,0.4 0.2,0.5 0,0.4 -0.4,0.7 -0.8,0.7 -0.9,0 -1.3,-1.1 -1.3,-1.3 0,-0.1 0.1,-0.1 0.2,-0.1 0.1,0 0.1,0.1 0.1,0.2 0.3,0.6 0.6,1 0.9,1 0.2,0 0.3,-0.1 0.3,-0.3 0,-0.2 -0.1,-0.4 -0.2,-0.5 -0.4,-1 -0.4,-1.3 -0.4,-1.7 0,-0.1 0,-0.5 0.3,-0.8 0.2,-0.2 0.6,-0.2 0.8,-0.2 0.4,0 0.7,0.1 0.9,0.3 -0.1,-0.4 -0.2,-0.8 -0.5,-1.2 -0.3,-0.2 -0.6,-0.5 -1,-0.5 -0.1,0 -0.5,0 -0.6,0.3 0.4,0 0.4,0.4 0.4,0.4 0,0.3 -0.2,0.3 -0.3,0.3 -0.2,0 -0.5,-0.1 -0.5,-0.5 0,-0.4 0.4,-0.7 1,-0.7 0.8,0 1.9,0.6 2.1,1.7 l 0.8,3.1 z"
           style="fill:#000000;fill-opacity:1;fill-rule:evenodd;stroke:none"
           id="path3763" />
      </g>
    </g>
  </g>
</svg>
