<?xml version="1.0" encoding="UTF-8" standalone="no"?>
<!-- Created with Inkscape (http://www.inkscape.org/) -->

<svg
   xmlns:dc="http://purl.org/dc/elements/1.1/"
   xmlns:cc="http://creativecommons.org/ns#"
   xmlns:rdf="http://www.w3.org/1999/02/22-rdf-syntax-ns#"
   xmlns:svg="http://www.w3.org/2000/svg"
   xmlns="http://www.w3.org/2000/svg"
   xmlns:sodipodi="http://sodipodi.sourceforge.net/DTD/sodipodi-0.dtd"
   xmlns:inkscape="http://www.inkscape.org/namespaces/inkscape"
   width="180.875"
   height="34"
   id="svg6054"
   version="1.1"
   inkscape:version="0.48.4 r9939"
   sodipodi:docname="Novo documento 29">
  <defs
     id="defs6056">
    <clipPath
       id="clipPath3833"
       clipPathUnits="userSpaceOnUse">
      <path
         inkscape:connector-curvature="0"
         id="path3835"
         clip-rule="evenodd"
         d="m 56.7,159.1 148,0 0,30.6 -148,0 0,-30.6 z" />
    </clipPath>
  </defs>
  <sodipodi:namedview
     id="base"
     pagecolor="#ffffff"
     bordercolor="#666666"
     borderopacity="1.0"
     inkscape:pageopacity="0.0"
     inkscape:pageshadow="2"
     inkscape:zoom="0.35"
     inkscape:cx="90.4375"
     inkscape:cy="16.999997"
     inkscape:document-units="px"
     inkscape:current-layer="layer1"
     showgrid="false"
     fit-margin-top="0"
     fit-margin-left="0"
     fit-margin-right="0"
     fit-margin-bottom="0"
     inkscape:window-width="575"
     inkscape:window-height="413"
     inkscape:window-x="0"
     inkscape:window-y="0"
     inkscape:window-maximized="0" />
  <metadata
     id="metadata6059">
    <rdf:RDF>
      <cc:Work
         rdf:about="">
        <dc:format>image/svg+xml</dc:format>
        <dc:type
           rdf:resource="http://purl.org/dc/dcmitype/StillImage" />
        <dc:title></dc:title>
      </cc:Work>
    </rdf:RDF>
  </metadata>
  <g
     inkscape:label="Camada 1"
     inkscape:groupmode="layer"
     id="layer1"
     transform="translate(-259.5625,-515.36218)">
    <g
       id="g3829"
       transform="matrix(1.25,0,0,-1.25,186.5625,750.36218)">
      <g
         id="g3831"
         clip-path="url(#clipPath3833)">
        <path
           inkscape:connector-curvature="0"
           d="m 65.2,175.5 c 0.6,0.9 1.1,0.9 1.6,0.9 0.1,0 0.1,0.2 0.1,0.3 0,0.1 0,0.1 -0.1,0.1 -0.3,0 -0.7,0 -1,0 -0.4,0 -0.8,0 -1.2,0 -0.1,0 -0.2,0 -0.2,-0.2 0,-0.2 0.1,-0.2 0.2,-0.2 0.3,0 0.5,-0.1 0.5,-0.4 0,-0.1 -0.2,-0.4 -0.2,-0.4 l -3.6,-5.7 -0.8,6.2 c 0,0.2 0.2,0.3 0.8,0.3 0.1,0 0.3,0 0.3,0.3 0,0.1 -0.1,0.1 -0.2,0.1 -0.5,0 -1,0 -1.5,0 -0.2,0 -0.4,0 -0.6,0 -0.3,0 -0.5,0 -0.7,0 -0.1,0 -0.2,0 -0.2,-0.2 0,-0.2 0.1,-0.2 0.3,-0.2 0.7,0 0.7,-0.1 0.7,-0.4 l 1,-7.2 c 0,-0.2 0,-0.3 0.2,-0.3 0.2,0 0.2,0.1 0.3,0.3 l 4.3,6.7 z"
           style="fill:#000000;fill-opacity:1;fill-rule:evenodd;stroke:none"
           id="path3837" />
        <path
           inkscape:connector-curvature="0"
           d="m 67.4,172.3 c 0,0.2 0,0.2 -0.2,0.2 C 66.7,172 65.9,172 65.5,172 l 0,-0.3 c 0.2,0 0.8,0 1.3,0.2 l 0,-4.2 c 0,-0.2 0,-0.3 -0.9,-0.3 l -0.3,0 0,-0.3 c 0.1,0 1.2,0 1.5,0 0.3,0 1.3,0 1.5,0 l 0,0.3 -0.3,0 c -0.9,0 -0.9,0.1 -0.9,0.3 l 0,4.6 z"
           style="fill:#000000;fill-opacity:1;fill-rule:evenodd;stroke:none"
           id="path3839" />
        <path
           inkscape:connector-curvature="0"
           d="m 81.5,172.7 c 0.2,0 0.4,0 0.4,0.2 0,0.2 -0.2,0.2 -0.4,0.2 l -7.2,0 c -0.1,0 -0.4,0 -0.4,-0.2 0,-0.2 0.3,-0.2 0.4,-0.2 l 7.2,0 z m 0,-2.3 c 0.2,0 0.4,0 0.4,0.2 0,0.2 -0.2,0.2 -0.4,0.2 l -7.2,0 c -0.1,0 -0.4,0 -0.4,-0.2 0,-0.2 0.3,-0.2 0.4,-0.2 l 7.2,0 z"
           style="fill:#000000;fill-opacity:1;fill-rule:evenodd;stroke:none"
           id="path3841" />
        <path
           inkscape:connector-curvature="0"
           d="m 93.7,171.5 c 0.2,0 0.4,0 0.4,0.2 0,0.3 -0.2,0.3 -0.4,0.3 l -6.5,0 c -0.2,0 -0.4,0 -0.4,-0.3 0,-0.2 0.2,-0.2 0.4,-0.2 l 6.5,0 z"
           style="fill:#000000;fill-opacity:1;fill-rule:evenodd;stroke:none"
           id="path3843" />
        <path
           inkscape:connector-curvature="0"
           d="m 104,183.4 c 0.6,0.9 1.1,0.9 1.5,1 0.2,0 0.2,0.2 0.2,0.2 0,0.1 -0.1,0.1 -0.2,0.1 -0.3,0 -0.6,0 -1,0 -0.4,0 -0.8,0 -1.1,0 -0.1,0 -0.3,0 -0.3,-0.2 0,-0.1 0.2,-0.1 0.2,-0.1 0.4,-0.1 0.6,-0.2 0.6,-0.4 0,-0.2 -0.2,-0.5 -0.2,-0.5 l -3.7,-5.7 -0.8,6.2 c 0,0.2 0.3,0.4 0.8,0.4 0.2,0 0.3,0 0.3,0.2 0,0.1 -0.1,0.1 -0.1,0.1 -0.5,0 -1,0 -1.5,0 -0.2,0 -0.5,0 -0.7,0 -0.2,0 -0.4,0 -0.6,0 -0.1,0 -0.2,0 -0.2,-0.2 0,-0.1 0.1,-0.1 0.3,-0.1 0.6,0 0.6,-0.1 0.7,-0.4 l 0.9,-7.3 c 0.1,-0.2 0.1,-0.3 0.3,-0.3 0.2,0 0.2,0.1 0.3,0.3 l 4.3,6.7 z"
           style="fill:#000000;fill-opacity:1;fill-rule:evenodd;stroke:none"
           id="path3845" />
        <path
           inkscape:connector-curvature="0"
           d="m 109.7,181.6 c -0.1,-0.1 -0.1,-0.4 -0.1,-0.5 0,-0.1 0.1,-0.2 0.3,-0.2 0.1,0 0.2,0.1 0.3,0.2 0,0 0.1,0.3 0.1,0.5 0.1,0.1 0.2,0.5 0.2,0.7 0.1,0.2 0.1,0.4 0.2,0.6 0.1,0.3 0.1,0.3 0.2,0.6 0.3,0.4 0.7,0.9 1.3,0.9 0.5,0 0.6,-0.4 0.6,-0.6 0,-0.5 -0.4,-1.4 -0.6,-1.8 0,-0.2 -0.1,-0.3 -0.1,-0.4 0,-0.5 0.4,-0.7 0.8,-0.7 0.9,0 1.2,1.1 1.2,1.2 0,0.1 -0.1,0.1 -0.1,0.1 -0.1,0 -0.1,0 -0.2,-0.1 -0.2,-0.7 -0.5,-1 -0.8,-1 -0.2,0 -0.2,0.1 -0.2,0.3 0,0.2 0,0.3 0.2,0.7 0,0.2 0.4,1.1 0.4,1.6 0,0.1 0,0.4 -0.3,0.7 -0.2,0.1 -0.4,0.2 -0.8,0.2 -0.8,0 -1.2,-0.5 -1.5,-0.8 0,0.7 -0.7,0.8 -1.1,0.8 -0.7,0 -1.2,-0.4 -1.4,-0.8 -0.1,0.6 -0.5,0.8 -0.9,0.8 -0.3,0 -0.5,-0.3 -0.6,-0.4 -0.3,-0.4 -0.4,-0.8 -0.4,-0.9 0,-0.1 0.1,-0.1 0.2,-0.1 0.1,0 0.1,0.1 0.2,0.3 0.1,0.5 0.3,0.9 0.6,0.9 0.2,0 0.3,-0.2 0.3,-0.4 0,-0.2 -0.1,-0.5 -0.2,-0.7 0,-0.2 -0.1,-0.6 -0.2,-0.8 l -0.2,-1 c 0,-0.1 -0.1,-0.3 -0.1,-0.4 0,-0.1 0.2,-0.2 0.3,-0.2 0.1,0 0.3,0.1 0.3,0.2 0,0 0.1,0.3 0.2,0.5 0,0.1 0.1,0.5 0.1,0.7 0.1,0.2 0.1,0.4 0.2,0.6 0.1,0.3 0.1,0.4 0.3,0.7 0.3,0.3 0.7,0.8 1.3,0.8 0.5,0 0.5,-0.5 0.5,-0.6 0,-0.2 -0.1,-0.3 -0.2,-0.8 l -0.3,-1.4 z"
           style="fill:#000000;fill-opacity:1;fill-rule:evenodd;stroke:none"
           id="path3847" />
        <path
           inkscape:connector-curvature="0"
           d="m 105.5,174.7 c -0.1,-0.3 -0.4,-0.7 -0.8,-0.7 0,0 -0.3,0 -0.5,0.1 0.4,0.1 0.4,0.4 0.4,0.4 0,0.2 -0.1,0.3 -0.3,0.3 -0.3,0 -0.5,-0.2 -0.5,-0.4 0,-0.4 0.5,-0.6 0.9,-0.6 0.4,0 0.7,0.2 0.9,0.6 0.2,-0.5 0.7,-0.6 1,-0.6 1,0 1.5,1 1.5,1.2 0,0.1 -0.1,0.1 -0.1,0.1 -0.2,0 -0.2,0 -0.2,-0.1 -0.2,-0.6 -0.7,-1 -1.1,-1 -0.4,0 -0.6,0.2 -0.6,0.5 0,0.2 0.2,1 0.5,1.9 0.2,0.6 0.5,0.8 0.8,0.8 0,0 0.3,0 0.5,-0.1 -0.3,-0.1 -0.4,-0.3 -0.4,-0.4 0,-0.2 0.1,-0.3 0.3,-0.3 0.2,0 0.5,0.1 0.5,0.5 0,0.4 -0.5,0.6 -0.9,0.6 -0.4,0 -0.7,-0.3 -0.9,-0.6 -0.2,0.3 -0.6,0.6 -1,0.6 -1,0 -1.5,-1.1 -1.5,-1.3 0,-0.1 0.1,-0.1 0.1,-0.1 0.1,0 0.1,0 0.2,0.1 0.2,0.7 0.7,1 1.2,1 0.2,0 0.4,-0.1 0.4,-0.5 0,-0.2 -0.1,-0.6 -0.1,-0.9 l -0.3,-1.1 z"
           style="fill:#000000;fill-opacity:1;fill-rule:evenodd;stroke:none"
           id="path3849" />
        <path
           inkscape:connector-curvature="0"
           d="m 105.8,171.5 -9.3,0 0,0.5 18.7,0 0,-0.5 -9.4,0 z"
           style="fill:#000000;fill-opacity:1;fill-rule:evenodd;stroke:none"
           id="path3851" />
        <path
           inkscape:connector-curvature="0"
           d="m 104.3,161.7 1.3,1.2 c 1.9,1.6 2.6,2.2 2.6,3.4 0,1.4 -1.1,2.3 -2.5,2.3 -1.4,0 -2.3,-1.1 -2.3,-2.1 0,-0.7 0.6,-0.7 0.7,-0.7 0.2,0 0.6,0.2 0.6,0.6 0,0.3 -0.2,0.6 -0.7,0.6 0,0 -0.1,0 -0.1,0 0.3,0.8 0.9,1.2 1.6,1.2 1.1,0 1.6,-0.9 1.6,-1.9 0,-0.9 -0.6,-1.9 -1.2,-2.6 l -2.3,-2.5 c -0.2,-0.1 -0.2,-0.2 -0.2,-0.4 l 4.5,0 0.3,2 -0.3,0 c 0,-0.3 -0.1,-0.9 -0.2,-1 -0.1,-0.1 -0.9,-0.1 -1.2,-0.1 l -2.2,0 z"
           style="fill:#000000;fill-opacity:1;fill-rule:evenodd;stroke:none"
           id="path3853" />
        <path
           inkscape:connector-curvature="0"
           d="m 127.1,171.5 c 0.2,0 0.4,0 0.4,0.2 0,0.3 -0.2,0.3 -0.4,0.3 l -6.5,0 c -0.2,0 -0.4,0 -0.4,-0.3 0,-0.2 0.2,-0.2 0.4,-0.2 l 6.5,0 z"
           style="fill:#000000;fill-opacity:1;fill-rule:evenodd;stroke:none"
           id="path3855" />
        <path
           inkscape:connector-curvature="0"
           d="m 137.2,177.5 -2.1,4.6 c -0.1,0.2 -0.2,0.2 -0.2,0.2 0,0 -0.1,0 -0.2,-0.1 l -1.1,-0.9 c -0.2,-0.1 -0.2,-0.1 -0.2,-0.2 0,0 0,-0.1 0.1,-0.1 0.1,0 0.3,0.2 0.4,0.3 0.1,0 0.3,0.2 0.4,0.3 l 2.3,-5.1 c 0.1,-0.2 0.2,-0.2 0.3,-0.2 0.2,0 0.2,0.1 0.3,0.2 l 5.4,11.1 c 0.1,0.1 0.1,0.2 0.1,0.2 0,0.1 -0.1,0.2 -0.2,0.2 -0.1,0 -0.2,0 -0.3,-0.2 l -5,-10.3 z"
           style="fill:#000000;fill-opacity:1;fill-rule:evenodd;stroke:none"
           id="path3857" />
        <path
           inkscape:connector-curvature="0"
           d="m 145.4,187.5 -3,0 0,0.5 6,0 0,-0.5 -3,0 z"
           style="fill:#000000;fill-opacity:1;fill-rule:evenodd;stroke:none"
           id="path3859" />
        <path
           inkscape:connector-curvature="0"
           d="m 145.9,182 c 1,0.3 1.7,1.1 1.7,2 0,1 -1.1,1.7 -2.2,1.7 -1.2,0 -2.1,-0.7 -2.1,-1.6 0,-0.4 0.2,-0.6 0.6,-0.6 0.4,0 0.6,0.2 0.6,0.6 0,0.5 -0.6,0.5 -0.7,0.5 0.3,0.6 1.1,0.8 1.6,0.8 0.4,0 1.1,-0.3 1.1,-1.3 0,-0.2 0,-0.9 -0.3,-1.4 -0.4,-0.6 -0.8,-0.6 -1.1,-0.6 -0.1,0 -0.4,0 -0.5,0 -0.1,0 -0.2,-0.1 -0.2,-0.2 0,-0.1 0.1,-0.1 0.3,-0.1 l 0.6,0 c 0.9,0 1.4,-0.8 1.4,-2 0,-1.6 -0.8,-1.9 -1.4,-1.9 -0.5,0 -1.4,0.2 -1.8,0.9 0.4,-0.1 0.8,0.2 0.8,0.6 0,0.5 -0.3,0.7 -0.7,0.7 -0.3,0 -0.6,-0.2 -0.6,-0.7 0,-1.1 1.1,-1.8 2.4,-1.8 1.4,0 2.5,1 2.5,2.2 0,1 -0.7,1.9 -2,2.2 z"
           style="fill:#000000;fill-opacity:1;fill-rule:evenodd;stroke:none"
           id="path3861" />
        <path
           inkscape:connector-curvature="0"
           d="m 155.9,184.5 c 0.6,0.9 1.1,1 1.5,1 0.2,0 0.2,0.2 0.2,0.2 0,0.1 -0.1,0.2 -0.2,0.2 -0.3,0 -0.6,-0.1 -1,-0.1 -0.4,0 -0.8,0.1 -1.1,0.1 -0.1,0 -0.3,0 -0.3,-0.3 0,-0.1 0.2,-0.1 0.2,-0.1 0.4,0 0.6,-0.1 0.6,-0.4 0,-0.2 -0.2,-0.4 -0.2,-0.4 l -3.7,-5.8 -0.8,6.2 c 0,0.2 0.3,0.4 0.8,0.4 0.2,0 0.3,0 0.3,0.2 0,0.1 -0.1,0.2 -0.1,0.2 -0.5,0 -1,-0.1 -1.5,-0.1 -0.2,0 -0.5,0 -0.7,0 -0.2,0 -0.4,0.1 -0.6,0.1 -0.1,0 -0.2,0 -0.2,-0.3 0,-0.1 0.1,-0.1 0.3,-0.1 0.6,0 0.6,-0.1 0.7,-0.4 l 0.9,-7.3 c 0.1,-0.2 0.1,-0.2 0.3,-0.2 0.2,0 0.2,0 0.3,0.2 l 4.3,6.7 z"
           style="fill:#000000;fill-opacity:1;fill-rule:evenodd;stroke:none"
           id="path3863" />
        <path
           inkscape:connector-curvature="0"
           d="m 161.6,182.8 c 0,-0.2 -0.1,-0.5 -0.1,-0.5 0,-0.2 0.2,-0.3 0.3,-0.3 0.1,0 0.3,0.1 0.3,0.2 0,0.1 0.1,0.3 0.2,0.5 0,0.2 0.1,0.5 0.1,0.7 0.1,0.2 0.1,0.4 0.2,0.6 0.1,0.4 0.1,0.4 0.2,0.6 0.3,0.4 0.7,0.9 1.4,0.9 0.4,0 0.5,-0.4 0.5,-0.6 0,-0.5 -0.4,-1.4 -0.5,-1.7 -0.1,-0.3 -0.1,-0.3 -0.1,-0.5 0,-0.4 0.3,-0.7 0.7,-0.7 0.9,0 1.3,1.1 1.3,1.3 0,0.1 -0.1,0.1 -0.2,0.1 -0.1,0 -0.1,-0.1 -0.1,-0.2 -0.2,-0.6 -0.6,-1 -0.9,-1 -0.2,0 -0.2,0.1 -0.2,0.3 0,0.2 0,0.3 0.2,0.7 0,0.2 0.4,1.1 0.4,1.6 0,0.1 0,0.5 -0.3,0.7 -0.2,0.1 -0.4,0.2 -0.8,0.2 -0.7,0 -1.2,-0.5 -1.5,-0.8 0,0.7 -0.6,0.8 -1,0.8 -0.8,0 -1.2,-0.4 -1.5,-0.7 0,0.6 -0.5,0.7 -0.9,0.7 -0.3,0 -0.5,-0.2 -0.6,-0.4 -0.2,-0.3 -0.3,-0.8 -0.3,-0.8 0,-0.1 0.1,-0.1 0.1,-0.1 0.1,0 0.1,0 0.2,0.2 0.1,0.5 0.3,0.9 0.6,0.9 0.2,0 0.3,-0.2 0.3,-0.4 0,-0.2 -0.1,-0.5 -0.1,-0.7 -0.1,-0.2 -0.2,-0.6 -0.2,-0.7 l -0.3,-1.1 c 0,-0.1 -0.1,-0.3 -0.1,-0.3 0,-0.2 0.2,-0.3 0.3,-0.3 0.2,0 0.3,0.1 0.3,0.2 0.1,0.1 0.1,0.3 0.2,0.5 0,0.2 0.1,0.5 0.2,0.7 0,0.2 0.1,0.4 0.1,0.6 0.1,0.3 0.1,0.4 0.4,0.7 0.2,0.4 0.6,0.8 1.2,0.8 0.5,0 0.5,-0.4 0.5,-0.6 0,-0.2 0,-0.3 -0.1,-0.8 l -0.4,-1.3 z"
           style="fill:#000000;fill-opacity:1;fill-rule:evenodd;stroke:none"
           id="path3865" />
        <path
           inkscape:connector-curvature="0"
           d="m 160,178.1 c 0,0.1 0,0.1 0,0.2 0,0.1 -0.1,0.2 -0.3,0.2 -0.1,0 -0.2,0 -0.3,-0.2 0,0 -0.1,-0.3 -0.1,-0.5 l -0.2,-0.6 c -0.1,-0.2 -0.3,-1.3 -0.4,-1.4 0,0 -0.3,-0.7 -1,-0.7 -0.6,0 -0.6,0.5 -0.6,0.7 0,0.4 0.2,1 0.5,1.6 0.1,0.3 0.1,0.4 0.1,0.5 0,0.4 -0.3,0.7 -0.8,0.7 -0.8,0 -1.2,-1.1 -1.2,-1.3 0,-0.1 0.1,-0.1 0.1,-0.1 0.2,0 0.2,0.1 0.2,0.2 0.2,0.6 0.6,1 0.9,1 0.2,0 0.2,-0.1 0.2,-0.3 0,-0.2 -0.1,-0.4 -0.1,-0.5 -0.4,-1 -0.5,-1.3 -0.5,-1.7 0,-0.1 0,-0.5 0.3,-0.8 0.3,-0.2 0.7,-0.2 0.9,-0.2 0.3,0 0.6,0.1 0.9,0.3 -0.1,-0.4 -0.2,-0.8 -0.6,-1.1 -0.2,-0.3 -0.5,-0.6 -1,-0.6 0,0 -0.4,0 -0.6,0.3 0.4,0.1 0.4,0.5 0.4,0.5 0,0.2 -0.2,0.2 -0.3,0.2 -0.2,0 -0.5,-0.1 -0.5,-0.5 0,-0.4 0.4,-0.7 1,-0.7 0.9,0 1.9,0.7 2.2,1.7 l 0.8,3.1 z"
           style="fill:#000000;fill-opacity:1;fill-rule:evenodd;stroke:none"
           id="path3867" />
        <path
           inkscape:connector-curvature="0"
           d="m 149.8,171.5 -17.3,0 0,0.5 34.6,0 0,-0.5 -17.3,0 z"
           style="fill:#000000;fill-opacity:1;fill-rule:evenodd;stroke:none"
           id="path3869" />
        <path
           inkscape:connector-curvature="0"
           d="m 148.3,161.7 1.3,1.2 c 1.9,1.6 2.6,2.2 2.6,3.4 0,1.4 -1.1,2.3 -2.6,2.3 -1.3,0 -2.2,-1.1 -2.2,-2.1 0,-0.7 0.6,-0.7 0.6,-0.7 0.2,0 0.6,0.2 0.6,0.6 0,0.3 -0.2,0.6 -0.6,0.6 -0.1,0 -0.1,0 -0.1,0 0.2,0.8 0.9,1.2 1.6,1.2 1.1,0 1.6,-0.9 1.6,-1.9 0,-0.9 -0.6,-1.9 -1.3,-2.6 l -2.3,-2.5 c -0.1,-0.1 -0.1,-0.2 -0.1,-0.4 l 4.4,0 0.4,2 -0.3,0 c -0.1,-0.3 -0.2,-0.9 -0.3,-1 -0.1,-0.1 -0.9,-0.1 -1.1,-0.1 l -2.2,0 z"
           style="fill:#000000;fill-opacity:1;fill-rule:evenodd;stroke:none"
           id="path3871" />
        <path
           inkscape:connector-curvature="0"
           d="m 176,171.5 3.4,0 c 0.1,0 0.4,0 0.4,0.2 0,0.3 -0.3,0.3 -0.4,0.3 l -3.4,0 0,3.2 c 0,0.2 0,0.4 -0.2,0.4 -0.2,0 -0.3,-0.2 -0.3,-0.4 l 0,-3.2 -3.3,0 c -0.2,0 -0.4,0 -0.4,-0.3 0,-0.2 0.2,-0.2 0.4,-0.2 l 3.3,0 0,-3.3 c 0,-0.1 0,-0.4 0.3,-0.4 0.2,0 0.2,0.3 0.2,0.4 l 0,3.3 z"
           style="fill:#000000;fill-opacity:1;fill-rule:evenodd;stroke:none"
           id="path3873" />
        <path
           inkscape:connector-curvature="0"
           d="m 187.5,175.9 c 0.1,0.4 0.1,0.5 1.2,0.5 0.4,0 0.5,0 0.5,0.3 0,0.1 -0.2,0.1 -0.2,0.1 -0.4,0 -1.4,0 -1.8,0 -0.3,0 -1.2,0 -1.6,0 0,0 -0.2,0 -0.2,-0.2 0,-0.2 0.1,-0.2 0.3,-0.2 0.1,0 0.3,0 0.5,0 0.2,0 0.3,0 0.3,-0.2 0,0 0,-0.1 0,-0.2 l -1.6,-6.3 c -0.2,-0.4 -0.2,-0.5 -1.1,-0.5 -0.2,0 -0.3,0 -0.3,-0.3 0,-0.1 0.1,-0.1 0.3,-0.1 l 5.5,0 c 0.3,0 0.3,0 0.4,0.2 l 0.9,2.5 c 0.1,0.2 0.1,0.2 0.1,0.2 0,0.1 -0.1,0.1 -0.2,0.1 -0.1,0 -0.1,0 -0.2,-0.2 -0.4,-1.1 -0.9,-2.4 -3,-2.4 l -1.1,0 c -0.2,0 -0.2,0 -0.3,0 -0.1,0 -0.1,0 -0.1,0.1 0,0 0,0.1 0.1,0.3 l 1.6,6.3 z"
           style="fill:#000000;fill-opacity:1;fill-rule:evenodd;stroke:none"
           id="path3875" />
        <path
           inkscape:connector-curvature="0"
           d="m 198.3,173.2 c 0,0.5 -0.2,0.8 -0.5,0.8 -0.3,0 -0.6,-0.2 -0.6,-0.5 0,-0.1 0.1,-0.3 0.2,-0.4 0.2,-0.2 0.4,-0.5 0.4,-1 0,-0.4 -0.2,-1.1 -0.6,-1.7 -0.4,-0.5 -0.8,-0.9 -1.4,-0.9 -0.7,0 -1,0.5 -1.1,1.1 0.1,0.3 0.4,1.1 0.4,1.4 0,0.1 -0.1,0.3 -0.2,0.3 -0.1,0 -0.3,-0.1 -0.4,-0.2 -0.1,-0.3 -0.2,-1 -0.2,-1.5 -0.4,-0.5 -0.9,-1.1 -1.7,-1.1 -0.7,0 -1,0.7 -1,1.4 0,1.5 1.2,2.7 1.2,2.9 0,0.1 -0.1,0.2 -0.2,0.2 -0.2,0 -0.2,-0.2 -0.3,-0.3 -0.6,-0.8 -1.1,-2.2 -1.1,-3.3 0,-0.8 0.3,-1.7 1.3,-1.7 0.8,0 1.4,0.6 1.8,1.2 0.1,-0.7 0.6,-1.2 1.3,-1.2 1,0 1.5,0.7 2,1.6 0.3,0.6 0.7,2.2 0.7,2.9 z"
           style="fill:#000000;fill-opacity:1;fill-rule:evenodd;stroke:none"
           id="path3877" />
        <path
           inkscape:connector-curvature="0"
           d="m 199.1,166.1 c -0.1,-0.3 -0.1,-0.3 -0.4,-0.3 -0.2,0 -0.3,0 -0.3,-0.2 0,-0.1 0.1,-0.1 0.1,-0.1 0.3,0 0.5,0 0.8,0 0.3,0 0.6,0 0.9,0 0,0 0.1,0 0.1,0.1 0,0.2 -0.1,0.2 -0.2,0.2 -0.2,0 -0.4,0 -0.4,0.1 0,0 0.1,0.2 0.1,0.3 0.1,0.5 0.2,0.9 0.3,1.3 0.1,-0.2 0.4,-0.5 0.9,-0.5 1,0 2.1,1.1 2.1,2.3 0,1 -0.7,1.4 -1.2,1.4 -0.5,0 -1,-0.3 -1.2,-0.6 -0.2,0.5 -0.6,0.6 -0.9,0.6 -0.3,0 -0.5,-0.2 -0.7,-0.4 -0.1,-0.3 -0.3,-0.8 -0.3,-0.9 0,-0.1 0.1,-0.1 0.2,-0.1 0.1,0 0.1,0.1 0.2,0.3 0.1,0.5 0.3,0.9 0.6,0.9 0.2,0 0.3,-0.2 0.3,-0.4 0,-0.1 -0.1,-0.2 -0.1,-0.3 l -0.9,-3.7 z m 1.6,3.6 c 0.4,0.6 0.9,0.8 1.1,0.8 0.4,0 0.6,-0.3 0.6,-0.8 0,-0.4 -0.1,-1.2 -0.4,-1.7 -0.2,-0.4 -0.6,-0.8 -1,-0.8 -0.6,0 -0.8,0.6 -0.8,0.7 0,0.1 0,0.1 0,0.2 l 0.5,1.6 z"
           style="fill:#000000;fill-opacity:1;fill-rule:evenodd;stroke:none"
           id="path3879" />
      </g>
    </g>
  </g>
</svg>
