<?xml version="1.0" encoding="UTF-8" standalone="no"?>
<!-- Created with Inkscape (http://www.inkscape.org/) -->

<svg
   xmlns:dc="http://purl.org/dc/elements/1.1/"
   xmlns:cc="http://creativecommons.org/ns#"
   xmlns:rdf="http://www.w3.org/1999/02/22-rdf-syntax-ns#"
   xmlns:svg="http://www.w3.org/2000/svg"
   xmlns="http://www.w3.org/2000/svg"
   xmlns:sodipodi="http://sodipodi.sourceforge.net/DTD/sodipodi-0.dtd"
   xmlns:inkscape="http://www.inkscape.org/namespaces/inkscape"
   width="101"
   height="14.875"
   id="svg6162"
   version="1.1"
   inkscape:version="0.48.4 r9939"
   sodipodi:docname="Novo documento 32">
  <defs
     id="defs6164">
    <clipPath
       id="clipPath3895"
       clipPathUnits="userSpaceOnUse">
      <path
         inkscape:connector-curvature="0"
         id="path3897"
         clip-rule="evenodd"
         d="m 207.7,164.2 82.1,0 0,13.2 -82.1,0 0,-13.2 z" />
    </clipPath>
  </defs>
  <sodipodi:namedview
     id="base"
     pagecolor="#ffffff"
     bordercolor="#666666"
     borderopacity="1.0"
     inkscape:pageopacity="0.0"
     inkscape:pageshadow="2"
     inkscape:zoom="0.35"
     inkscape:cx="50.5"
     inkscape:cy="7.4374974"
     inkscape:document-units="px"
     inkscape:current-layer="layer1"
     showgrid="false"
     fit-margin-top="0"
     fit-margin-left="0"
     fit-margin-right="0"
     fit-margin-bottom="0"
     inkscape:window-width="575"
     inkscape:window-height="413"
     inkscape:window-x="0"
     inkscape:window-y="0"
     inkscape:window-maximized="0" />
  <metadata
     id="metadata6167">
    <rdf:RDF>
      <cc:Work
         rdf:about="">
        <dc:format>image/svg+xml</dc:format>
        <dc:type
           rdf:resource="http://purl.org/dc/dcmitype/StillImage" />
        <dc:title></dc:title>
      </cc:Work>
    </rdf:RDF>
  </metadata>
  <g
     inkscape:label="Camada 1"
     inkscape:groupmode="layer"
     id="layer1"
     transform="translate(-299.5,-524.92468)">
    <g
       id="g3891"
       transform="matrix(1.25,0,0,-1.25,38.875,745.92468)">
      <g
         id="g3893"
         clip-path="url(#clipPath3895)">
        <path
           inkscape:connector-curvature="0"
           d="m 215.4,175 c 0.6,0.9 1.1,0.9 1.5,0.9 0.1,0 0.2,0.2 0.2,0.3 0,0.1 -0.1,0.1 -0.2,0.1 -0.3,0 -0.6,0 -1,0 -0.4,0 -0.8,0 -1.2,0 0,0 -0.2,0 -0.2,-0.2 0,-0.2 0.1,-0.2 0.2,-0.2 0.3,0 0.5,-0.1 0.5,-0.4 0,-0.1 -0.1,-0.4 -0.1,-0.4 l -3.7,-5.7 -0.8,6.2 c 0,0.2 0.3,0.3 0.8,0.3 0.2,0 0.3,0 0.3,0.3 0,0.1 -0.1,0.1 -0.1,0.1 -0.5,0 -1,0 -1.5,0 -0.2,0 -0.5,0 -0.7,0 -0.2,0 -0.4,0 -0.6,0 -0.1,0 -0.3,0 -0.3,-0.2 0,-0.2 0.1,-0.2 0.3,-0.2 0.7,0 0.7,-0.1 0.8,-0.4 l 0.9,-7.2 c 0,-0.3 0.1,-0.3 0.2,-0.3 0.2,0 0.3,0.1 0.4,0.2 l 4.3,6.8 z"
           style="fill:#000000;fill-opacity:1;fill-rule:evenodd;stroke:none"
           id="path3899" />
        <path
           inkscape:connector-curvature="0"
           d="m 219,168 -0.3,0 c 0,-0.2 -0.1,-0.6 -0.2,-0.7 0,-0.1 -0.7,-0.1 -0.8,-0.1 l -1.5,0 c 0.8,0.8 1.1,1 1.6,1.4 0.7,0.5 1.2,1 1.2,1.8 0,1 -0.9,1.6 -1.9,1.6 -1.1,0 -1.8,-0.7 -1.8,-1.5 0,-0.4 0.4,-0.4 0.5,-0.4 0.2,0 0.4,0.1 0.4,0.4 0,0.1 0,0.4 -0.5,0.4 0.3,0.6 0.8,0.8 1.2,0.8 0.9,0 1.3,-0.6 1.3,-1.3 0,-0.7 -0.5,-1.3 -0.8,-1.6 l -2,-2 c -0.1,0 -0.1,0 -0.1,-0.3 l 3.5,0 0.2,1.5 z"
           style="fill:#000000;fill-opacity:1;fill-rule:evenodd;stroke:none"
           id="path3901" />
        <path
           inkscape:connector-curvature="0"
           d="m 231.7,172.1 c 0.1,0 0.4,0 0.4,0.3 0,0.2 -0.3,0.2 -0.4,0.2 l -7.2,0 c -0.2,0 -0.4,0 -0.4,-0.2 0,-0.3 0.2,-0.3 0.4,-0.3 l 7.2,0 z m 0,-2.3 c 0.1,0 0.4,0 0.4,0.3 0,0.2 -0.3,0.2 -0.4,0.2 l -7.2,0 c -0.2,0 -0.4,0 -0.4,-0.2 0,-0.3 0.2,-0.3 0.4,-0.3 l 7.2,0 z"
           style="fill:#000000;fill-opacity:1;fill-rule:evenodd;stroke:none"
           id="path3903" />
        <path
           inkscape:connector-curvature="0"
           d="m 243.5,175 c 0.6,0.9 1.1,0.9 1.5,0.9 0.2,0 0.2,0.2 0.2,0.3 0,0.1 -0.1,0.1 -0.2,0.1 -0.3,0 -0.6,0 -1,0 -0.4,0 -0.8,0 -1.2,0 0,0 -0.2,0 -0.2,-0.2 0,-0.2 0.1,-0.2 0.2,-0.2 0.4,0 0.6,-0.1 0.6,-0.4 0,-0.1 -0.2,-0.4 -0.2,-0.4 l -3.7,-5.7 -0.8,6.2 c 0,0.2 0.3,0.3 0.8,0.3 0.2,0 0.3,0 0.3,0.3 0,0.1 -0.1,0.1 -0.1,0.1 -0.5,0 -1,0 -1.5,0 -0.2,0 -0.5,0 -0.7,0 -0.2,0 -0.4,0 -0.6,0 -0.1,0 -0.3,0 -0.3,-0.2 0,-0.2 0.1,-0.2 0.3,-0.2 0.7,0 0.7,-0.1 0.8,-0.4 l 0.9,-7.2 c 0,-0.3 0.1,-0.3 0.2,-0.3 0.3,0 0.3,0.1 0.4,0.2 l 4.3,6.8 z"
           style="fill:#000000;fill-opacity:1;fill-rule:evenodd;stroke:none"
           id="path3905" />
        <path
           inkscape:connector-curvature="0"
           d="m 249.2,173.8 c -0.1,-0.2 -0.1,-0.5 -0.1,-0.5 0,-0.2 0.1,-0.3 0.3,-0.3 0.1,0 0.2,0.1 0.3,0.2 0,0.1 0.1,0.4 0.1,0.5 0.1,0.2 0.2,0.6 0.2,0.8 0.1,0.2 0.1,0.3 0.1,0.5 0.1,0.4 0.1,0.4 0.3,0.7 0.3,0.4 0.7,0.8 1.3,0.8 0.5,0 0.5,-0.3 0.5,-0.5 0,-0.5 -0.3,-1.5 -0.5,-1.8 0,-0.2 -0.1,-0.3 -0.1,-0.5 0,-0.4 0.4,-0.7 0.8,-0.7 0.9,0 1.2,1.2 1.2,1.3 0,0.1 -0.1,0.1 -0.1,0.1 -0.1,0 -0.1,0 -0.2,-0.1 -0.2,-0.7 -0.5,-1 -0.9,-1 -0.1,0 -0.2,0.1 -0.2,0.3 0,0.1 0.1,0.3 0.2,0.6 0.1,0.3 0.5,1.2 0.5,1.6 0,0.2 0,0.5 -0.4,0.7 -0.1,0.2 -0.3,0.3 -0.7,0.3 -0.8,0 -1.2,-0.5 -1.5,-0.9 -0.1,0.7 -0.7,0.9 -1.1,0.9 -0.7,0 -1.2,-0.5 -1.4,-0.8 -0.1,0.6 -0.5,0.8 -0.9,0.8 -0.4,0 -0.6,-0.3 -0.7,-0.5 -0.2,-0.3 -0.3,-0.8 -0.3,-0.8 0,-0.1 0.1,-0.1 0.2,-0.1 0.1,0 0.1,0 0.2,0.2 0.1,0.5 0.2,0.9 0.6,0.9 0.2,0 0.3,-0.1 0.3,-0.4 0,-0.1 -0.1,-0.4 -0.2,-0.7 0,-0.2 -0.1,-0.5 -0.2,-0.7 l -0.2,-1.1 c -0.1,-0.1 -0.1,-0.3 -0.1,-0.3 0,-0.2 0.1,-0.3 0.2,-0.3 0.2,0 0.4,0.1 0.4,0.2 0,0.1 0.1,0.4 0.2,0.5 0,0.2 0.1,0.6 0.1,0.8 0.1,0.2 0.1,0.3 0.2,0.5 0.1,0.4 0.1,0.4 0.3,0.8 0.2,0.3 0.6,0.7 1.3,0.7 0.5,0 0.5,-0.4 0.5,-0.5 0,-0.3 -0.1,-0.4 -0.2,-0.8 l -0.3,-1.4 z"
           style="fill:#000000;fill-opacity:1;fill-rule:evenodd;stroke:none"
           id="path3907" />
        <path
           inkscape:connector-curvature="0"
           d="m 245,166.3 c -0.1,-0.3 -0.4,-0.8 -0.8,-0.8 0,0 -0.3,0 -0.4,0.1 0.3,0.2 0.3,0.5 0.3,0.5 0,0.2 -0.1,0.3 -0.3,0.3 -0.2,0 -0.5,-0.2 -0.5,-0.5 0,-0.4 0.5,-0.6 0.9,-0.6 0.4,0 0.8,0.2 1,0.6 0.2,-0.4 0.6,-0.6 0.9,-0.6 1,0 1.5,1 1.5,1.3 0,0.1 -0.1,0.1 -0.1,0.1 -0.1,0 -0.1,-0.1 -0.2,-0.2 -0.1,-0.5 -0.7,-1 -1.1,-1 -0.4,0 -0.5,0.3 -0.5,0.6 0,0.2 0.2,0.9 0.4,1.9 0.2,0.6 0.5,0.8 0.8,0.8 0.1,0 0.3,0 0.5,-0.1 -0.3,-0.1 -0.4,-0.3 -0.4,-0.5 0,-0.2 0.2,-0.3 0.4,-0.3 0.1,0 0.4,0.2 0.4,0.5 0,0.5 -0.5,0.6 -0.8,0.6 -0.5,0 -0.8,-0.2 -1,-0.6 -0.1,0.4 -0.5,0.6 -1,0.6 -0.9,0 -1.5,-1 -1.5,-1.2 0,-0.1 0.1,-0.1 0.2,-0.1 0.1,0 0.1,0 0.1,0.1 0.2,0.6 0.7,1 1.2,1 0.3,0 0.5,-0.1 0.5,-0.5 0,-0.2 -0.1,-0.6 -0.2,-0.9 l -0.3,-1.1 z"
           style="fill:#000000;fill-opacity:1;fill-rule:evenodd;stroke:none"
           id="path3909" />
        <path
           inkscape:connector-curvature="0"
           d="m 262.2,171 3.3,0 c 0.2,0 0.4,0 0.4,0.2 0,0.3 -0.2,0.3 -0.4,0.3 l -3.3,0 0,3.2 c 0,0.2 0,0.4 -0.3,0.4 -0.2,0 -0.2,-0.2 -0.2,-0.4 l 0,-3.2 -3.4,0 c -0.1,0 -0.4,0 -0.4,-0.3 0,-0.2 0.3,-0.2 0.4,-0.2 l 3.4,0 0,-3.3 c 0,-0.2 0,-0.4 0.2,-0.4 0.3,0 0.3,0.2 0.3,0.4 l 0,3.3 z"
           style="fill:#000000;fill-opacity:1;fill-rule:evenodd;stroke:none"
           id="path3911" />
        <path
           inkscape:connector-curvature="0"
           d="m 273.6,175.4 c 0.1,0.4 0.2,0.5 1.3,0.5 0.3,0 0.4,0 0.4,0.3 0,0.1 -0.1,0.1 -0.2,0.1 -0.3,0 -1.3,0 -1.7,0 -0.4,0 -1.3,0 -1.6,0 -0.1,0 -0.2,0 -0.2,-0.2 0,-0.2 0.1,-0.2 0.3,-0.2 0,0 0.2,0 0.4,0 0.2,0 0.4,0 0.4,-0.2 0,0 0,-0.1 -0.1,-0.2 l -1.6,-6.3 c -0.1,-0.5 -0.1,-0.6 -1.1,-0.6 -0.2,0 -0.3,0 -0.3,-0.2 0,-0.1 0.1,-0.1 0.3,-0.1 l 5.6,0 c 0.2,0 0.3,0 0.3,0.2 l 1,2.5 c 0,0.1 0,0.2 0,0.2 0,0 0,0.1 -0.1,0.1 -0.1,0 -0.1,-0.1 -0.2,-0.2 -0.4,-1.1 -1,-2.5 -3,-2.5 l -1.2,0 c -0.1,0 -0.1,0 -0.2,0 -0.1,0.1 -0.2,0.1 -0.2,0.2 0,0 0,0 0.1,0.2 l 1.6,6.4 z"
           style="fill:#000000;fill-opacity:1;fill-rule:evenodd;stroke:none"
           id="path3913" />
        <path
           inkscape:connector-curvature="0"
           d="m 284.4,172.7 c 0,0.5 -0.2,0.8 -0.4,0.8 -0.3,0 -0.6,-0.3 -0.6,-0.6 0,-0.1 0,-0.2 0.1,-0.3 0.2,-0.2 0.4,-0.5 0.4,-1 0,-0.5 -0.2,-1.1 -0.5,-1.7 -0.4,-0.5 -0.8,-0.9 -1.4,-0.9 -0.7,0 -1.1,0.4 -1.2,1.1 0.2,0.3 0.4,1 0.4,1.4 0,0.1 0,0.2 -0.2,0.2 -0.1,0 -0.2,0 -0.3,-0.2 -0.2,-0.2 -0.3,-1 -0.3,-1.4 -0.4,-0.6 -0.9,-1.1 -1.6,-1.1 -0.8,0 -1.1,0.7 -1.1,1.4 0,1.4 1.3,2.7 1.3,2.8 0,0.2 -0.1,0.3 -0.2,0.3 -0.2,0 -0.3,-0.2 -0.4,-0.3 -0.6,-0.9 -1,-2.3 -1,-3.4 0,-0.8 0.2,-1.6 1.2,-1.6 0.9,0 1.4,0.5 1.8,1.2 0.2,-0.7 0.6,-1.2 1.4,-1.2 0.9,0 1.5,0.7 1.9,1.6 0.3,0.5 0.7,2.1 0.7,2.9 z"
           style="fill:#000000;fill-opacity:1;fill-rule:evenodd;stroke:none"
           id="path3915" />
        <path
           inkscape:connector-curvature="0"
           d="m 285.2,165.5 c 0,-0.2 0,-0.3 -0.4,-0.3 -0.1,0 -0.2,0 -0.2,-0.2 0,0 0.1,-0.1 0.1,-0.1 0.2,0 0.5,0.1 0.7,0.1 0.3,0 0.6,-0.1 0.9,-0.1 0.1,0 0.2,0.1 0.2,0.2 0,0.1 -0.2,0.1 -0.3,0.1 -0.1,0 -0.4,0 -0.4,0.1 0,0.1 0.1,0.3 0.1,0.4 0.1,0.4 0.2,0.9 0.3,1.2 0.1,-0.1 0.4,-0.5 0.9,-0.5 1,0 2.2,1.2 2.2,2.4 0,1 -0.7,1.4 -1.3,1.4 -0.5,0 -0.9,-0.4 -1.2,-0.6 -0.1,0.5 -0.6,0.6 -0.9,0.6 -0.3,0 -0.5,-0.2 -0.6,-0.5 -0.2,-0.3 -0.3,-0.7 -0.3,-0.8 0,-0.1 0.1,-0.1 0.1,-0.1 0.2,0 0.2,0 0.2,0.2 0.1,0.5 0.3,0.9 0.6,0.9 0.2,0 0.3,-0.1 0.3,-0.4 0,-0.1 0,-0.2 0,-0.2 l -1,-3.8 z m 1.6,3.7 c 0.5,0.6 0.9,0.7 1.2,0.7 0.3,0 0.6,-0.2 0.6,-0.8 0,-0.3 -0.2,-1.1 -0.4,-1.6 -0.3,-0.4 -0.7,-0.8 -1.1,-0.8 -0.6,0 -0.7,0.6 -0.7,0.7 0,0 0,0.1 0,0.1 l 0.4,1.7 z"
           style="fill:#000000;fill-opacity:1;fill-rule:evenodd;stroke:none"
           id="path3917" />
      </g>
    </g>
  </g>
</svg>
