<?xml version="1.0" encoding="UTF-8" standalone="no"?>
<!-- Created with Inkscape (http://www.inkscape.org/) -->

<svg
   xmlns:dc="http://purl.org/dc/elements/1.1/"
   xmlns:cc="http://creativecommons.org/ns#"
   xmlns:rdf="http://www.w3.org/1999/02/22-rdf-syntax-ns#"
   xmlns:svg="http://www.w3.org/2000/svg"
   xmlns="http://www.w3.org/2000/svg"
   xmlns:sodipodi="http://sodipodi.sourceforge.net/DTD/sodipodi-0.dtd"
   xmlns:inkscape="http://www.inkscape.org/namespaces/inkscape"
   width="180.75"
   height="34"
   id="svg6340"
   version="1.1"
   inkscape:version="0.48.4 r9939"
   sodipodi:docname="Novo documento 36">
  <defs
     id="defs6342">
    <clipPath
       id="clipPath3933"
       clipPathUnits="userSpaceOnUse">
      <path
         inkscape:connector-curvature="0"
         id="path3935"
         clip-rule="evenodd"
         d="m 293,159.1 148,0 0,30.6 -148,0 0,-30.6 z" />
    </clipPath>
  </defs>
  <sodipodi:namedview
     id="base"
     pagecolor="#ffffff"
     bordercolor="#666666"
     borderopacity="1.0"
     inkscape:pageopacity="0.0"
     inkscape:pageshadow="2"
     inkscape:zoom="1.979899"
     inkscape:cx="83.139509"
     inkscape:cy="-15.640094"
     inkscape:document-units="px"
     inkscape:current-layer="layer1"
     showgrid="false"
     fit-margin-top="0"
     fit-margin-left="0"
     fit-margin-right="0"
     fit-margin-bottom="0"
     inkscape:window-width="789"
     inkscape:window-height="413"
     inkscape:window-x="0"
     inkscape:window-y="0"
     inkscape:window-maximized="0" />
  <metadata
     id="metadata6345">
    <rdf:RDF>
      <cc:Work
         rdf:about="">
        <dc:format>image/svg+xml</dc:format>
        <dc:type
           rdf:resource="http://purl.org/dc/dcmitype/StillImage" />
        <dc:title></dc:title>
      </cc:Work>
    </rdf:RDF>
  </metadata>
  <g
     inkscape:label="Camada 1"
     inkscape:groupmode="layer"
     id="layer1"
     transform="translate(-415.05213,-666.02316)">
    <g
       id="g3929"
       transform="matrix(1.25,0,0,-1.25,46.677128,901.02316)">
      <g
         id="g3931"
         clip-path="url(#clipPath3933)">
        <path
           inkscape:connector-curvature="0"
           d="m 301.5,175.5 c 0.6,0.9 1.1,0.9 1.6,0.9 0.1,0 0.1,0.2 0.1,0.3 0,0.1 0,0.1 -0.1,0.1 -0.4,0 -0.7,0 -1,0 -0.4,0 -0.8,0 -1.2,0 -0.1,0 -0.3,0 -0.3,-0.2 0,-0.2 0.2,-0.2 0.2,-0.2 0.4,0 0.6,-0.1 0.6,-0.4 0,-0.1 -0.2,-0.4 -0.2,-0.4 l -3.6,-5.7 -0.8,6.2 c 0,0.2 0.2,0.3 0.8,0.3 0.1,0 0.3,0 0.3,0.3 0,0.1 -0.1,0.1 -0.2,0.1 -0.5,0 -1,0 -1.5,0 -0.2,0 -0.4,0 -0.6,0 -0.3,0 -0.5,0 -0.7,0 -0.1,0 -0.2,0 -0.2,-0.2 0,-0.2 0.1,-0.2 0.3,-0.2 0.7,0 0.7,-0.1 0.7,-0.4 l 0.9,-7.2 c 0.1,-0.2 0.1,-0.3 0.3,-0.3 0.2,0 0.2,0.1 0.3,0.3 l 4.3,6.7 z"
           style="fill:#000000;fill-opacity:1;fill-rule:evenodd;stroke:none"
           id="path3937" />
        <path
           inkscape:connector-curvature="0"
           d="m 303.2,169.8 c 0.7,0 1.2,-0.4 1.2,-1.3 0,-1 -0.6,-1.3 -1.1,-1.3 -0.4,0 -1.1,0 -1.5,0.5 0.4,0 0.5,0.3 0.5,0.5 0,0.3 -0.2,0.4 -0.4,0.4 -0.3,0 -0.5,-0.1 -0.5,-0.4 0,-0.8 0.9,-1.3 1.9,-1.3 1.1,0 2,0.8 2,1.6 0,0.6 -0.6,1.3 -1.5,1.5 0.9,0.3 1.2,0.9 1.2,1.4 0,0.6 -0.8,1.1 -1.7,1.1 -0.9,0 -1.6,-0.4 -1.6,-1.1 0,-0.3 0.1,-0.4 0.4,-0.4 0.2,0 0.4,0.2 0.4,0.4 0,0.3 -0.2,0.4 -0.4,0.4 0.3,0.4 0.8,0.5 1.2,0.5 0.4,0 0.9,-0.2 0.9,-0.9 0,-0.4 -0.1,-0.7 -0.4,-1 -0.2,-0.3 -0.5,-0.3 -0.9,-0.3 -0.2,-0.1 -0.2,-0.1 -0.3,-0.1 0,0 -0.1,0 -0.1,-0.1 0,-0.1 0.1,-0.1 0.3,-0.1 l 0.4,0 z"
           style="fill:#000000;fill-opacity:1;fill-rule:evenodd;stroke:none"
           id="path3939" />
        <path
           inkscape:connector-curvature="0"
           d="m 317.8,172.7 c 0.2,0 0.4,0 0.4,0.2 0,0.2 -0.2,0.2 -0.4,0.2 l -7.2,0 c -0.1,0 -0.4,0 -0.4,-0.2 0,-0.2 0.3,-0.2 0.4,-0.2 l 7.2,0 z m 0,-2.3 c 0.2,0 0.4,0 0.4,0.2 0,0.2 -0.2,0.2 -0.4,0.2 l -7.2,0 c -0.1,0 -0.4,0 -0.4,-0.2 0,-0.2 0.3,-0.2 0.4,-0.2 l 7.2,0 z"
           style="fill:#000000;fill-opacity:1;fill-rule:evenodd;stroke:none"
           id="path3941" />
        <path
           inkscape:connector-curvature="0"
           d="m 330,171.5 c 0.2,0 0.4,0 0.4,0.2 0,0.3 -0.2,0.3 -0.4,0.3 l -6.5,0 c -0.2,0 -0.4,0 -0.4,-0.3 0,-0.2 0.2,-0.2 0.4,-0.2 l 6.5,0 z"
           style="fill:#000000;fill-opacity:1;fill-rule:evenodd;stroke:none"
           id="path3943" />
        <path
           inkscape:connector-curvature="0"
           d="m 340.3,183.4 c 0.6,0.9 1.1,0.9 1.5,1 0.1,0 0.2,0.2 0.2,0.2 0,0.1 -0.1,0.1 -0.2,0.1 -0.3,0 -0.6,0 -1,0 -0.4,0 -0.8,0 -1.2,0 0,0 -0.2,0 -0.2,-0.2 0,-0.1 0.1,-0.1 0.2,-0.1 0.3,-0.1 0.5,-0.2 0.5,-0.4 0,-0.2 -0.1,-0.5 -0.1,-0.5 l -3.7,-5.7 -0.8,6.2 c 0,0.2 0.3,0.4 0.8,0.4 0.2,0 0.3,0 0.3,0.2 0,0.1 -0.1,0.1 -0.2,0.1 -0.4,0 -0.9,0 -1.4,0 -0.2,0 -0.5,0 -0.7,0 -0.2,0 -0.4,0 -0.6,0 -0.1,0 -0.3,0 -0.3,-0.2 0,-0.1 0.1,-0.1 0.3,-0.1 0.7,0 0.7,-0.1 0.7,-0.4 l 1,-7.3 c 0,-0.2 0.1,-0.3 0.2,-0.3 0.2,0 0.3,0.1 0.4,0.3 l 4.3,6.7 z"
           style="fill:#000000;fill-opacity:1;fill-rule:evenodd;stroke:none"
           id="path3945" />
        <path
           inkscape:connector-curvature="0"
           d="m 346,181.6 c -0.1,-0.1 -0.2,-0.4 -0.2,-0.5 0,-0.1 0.2,-0.2 0.3,-0.2 0.2,0 0.3,0.1 0.3,0.2 0.1,0 0.1,0.3 0.2,0.5 0,0.1 0.1,0.5 0.2,0.7 0,0.2 0.1,0.4 0.1,0.6 0.1,0.3 0.1,0.3 0.3,0.6 0.3,0.4 0.7,0.9 1.3,0.9 0.5,0 0.5,-0.4 0.5,-0.6 0,-0.5 -0.4,-1.4 -0.5,-1.8 -0.1,-0.2 -0.1,-0.3 -0.1,-0.4 0,-0.5 0.4,-0.7 0.8,-0.7 0.8,0 1.2,1.1 1.2,1.2 0,0.1 -0.1,0.1 -0.1,0.1 -0.2,0 -0.2,0 -0.2,-0.1 -0.2,-0.7 -0.5,-1 -0.9,-1 -0.2,0 -0.2,0.1 -0.2,0.3 0,0.2 0,0.3 0.2,0.7 0.1,0.2 0.5,1.1 0.5,1.6 0,0.1 0,0.4 -0.4,0.7 -0.1,0.1 -0.4,0.2 -0.8,0.2 -0.7,0 -1.1,-0.5 -1.4,-0.8 -0.1,0.7 -0.7,0.8 -1.1,0.8 -0.7,0 -1.2,-0.4 -1.4,-0.8 -0.1,0.6 -0.6,0.8 -0.9,0.8 -0.4,0 -0.6,-0.3 -0.7,-0.4 -0.2,-0.4 -0.3,-0.8 -0.3,-0.9 0,-0.1 0.1,-0.1 0.1,-0.1 0.2,0 0.2,0.1 0.3,0.3 0.1,0.5 0.2,0.9 0.6,0.9 0.2,0 0.2,-0.2 0.2,-0.4 0,-0.2 0,-0.5 -0.1,-0.7 -0.1,-0.2 -0.1,-0.6 -0.2,-0.8 l -0.2,-1 c -0.1,-0.1 -0.1,-0.3 -0.1,-0.4 0,-0.1 0.1,-0.2 0.2,-0.2 0.2,0 0.3,0.1 0.4,0.2 0,0 0.1,0.3 0.1,0.5 0.1,0.1 0.1,0.5 0.2,0.7 0,0.2 0.1,0.4 0.1,0.6 0.1,0.3 0.1,0.4 0.4,0.7 0.2,0.3 0.6,0.8 1.3,0.8 0.4,0 0.4,-0.5 0.4,-0.6 0,-0.2 0,-0.3 -0.1,-0.8 l -0.3,-1.4 z"
           style="fill:#000000;fill-opacity:1;fill-rule:evenodd;stroke:none"
           id="path3947" />
        <path
           inkscape:connector-curvature="0"
           d="m 341.8,174.7 c -0.1,-0.3 -0.4,-0.7 -0.8,-0.7 0,0 -0.3,0 -0.5,0.1 0.4,0.1 0.4,0.4 0.4,0.4 0,0.2 -0.2,0.3 -0.4,0.3 -0.2,0 -0.4,-0.2 -0.4,-0.4 0,-0.4 0.4,-0.6 0.9,-0.6 0.3,0 0.7,0.2 0.9,0.6 0.2,-0.5 0.6,-0.6 1,-0.6 1,0 1.5,1 1.5,1.2 0,0.1 -0.1,0.1 -0.2,0.1 -0.1,0 -0.1,0 -0.1,-0.1 -0.2,-0.6 -0.7,-1 -1.2,-1 -0.3,0 -0.5,0.2 -0.5,0.5 0,0.2 0.2,1 0.4,1.9 0.2,0.6 0.6,0.8 0.9,0.8 0,0 0.3,0 0.4,-0.1 -0.2,-0.1 -0.3,-0.3 -0.3,-0.4 0,-0.2 0.1,-0.3 0.3,-0.3 0.2,0 0.5,0.1 0.5,0.5 0,0.4 -0.6,0.6 -0.9,0.6 -0.4,0 -0.7,-0.3 -1,-0.6 -0.1,0.3 -0.5,0.6 -1,0.6 -0.9,0 -1.4,-1.1 -1.4,-1.3 0,-0.1 0.1,-0.1 0.1,-0.1 0.1,0 0.1,0 0.2,0.1 0.2,0.7 0.7,1 1.1,1 0.3,0 0.5,-0.1 0.5,-0.5 0,-0.2 -0.1,-0.6 -0.2,-0.9 l -0.2,-1.1 z"
           style="fill:#000000;fill-opacity:1;fill-rule:evenodd;stroke:none"
           id="path3949" />
        <path
           inkscape:connector-curvature="0"
           d="m 342.1,171.5 -9.3,0 0,0.5 18.6,0 0,-0.5 -9.3,0 z"
           style="fill:#000000;fill-opacity:1;fill-rule:evenodd;stroke:none"
           id="path3951" />
        <path
           inkscape:connector-curvature="0"
           d="m 340.6,161.7 1.3,1.2 c 1.9,1.6 2.6,2.2 2.6,3.4 0,1.4 -1.1,2.3 -2.6,2.3 -1.3,0 -2.2,-1.1 -2.2,-2.1 0,-0.7 0.6,-0.7 0.6,-0.7 0.2,0 0.7,0.2 0.7,0.6 0,0.3 -0.3,0.6 -0.7,0.6 -0.1,0 -0.1,0 -0.1,0 0.2,0.8 0.9,1.2 1.6,1.2 1.1,0 1.6,-0.9 1.6,-1.9 0,-0.9 -0.6,-1.9 -1.3,-2.6 l -2.3,-2.5 c -0.1,-0.1 -0.1,-0.2 -0.1,-0.4 l 4.4,0 0.4,2 -0.3,0 c -0.1,-0.3 -0.2,-0.9 -0.3,-1 -0.1,-0.1 -0.8,-0.1 -1.1,-0.1 l -2.2,0 z"
           style="fill:#000000;fill-opacity:1;fill-rule:evenodd;stroke:none"
           id="path3953" />
        <path
           inkscape:connector-curvature="0"
           d="m 360.4,171.5 3.3,0 c 0.1,0 0.4,0 0.4,0.2 0,0.3 -0.3,0.3 -0.4,0.3 l -3.3,0 0,3.2 c 0,0.2 0,0.4 -0.3,0.4 -0.2,0 -0.2,-0.2 -0.2,-0.4 l 0,-3.2 -3.4,0 c -0.1,0 -0.4,0 -0.4,-0.3 0,-0.2 0.3,-0.2 0.4,-0.2 l 3.4,0 0,-3.3 c 0,-0.1 0,-0.4 0.2,-0.4 0.3,0 0.3,0.3 0.3,0.4 l 0,3.3 z"
           style="fill:#000000;fill-opacity:1;fill-rule:evenodd;stroke:none"
           id="path3955" />
        <path
           inkscape:connector-curvature="0"
           d="m 373.4,177.5 -2.1,4.6 c -0.1,0.2 -0.1,0.2 -0.2,0.2 0,0 0,0 -0.2,-0.1 l -1.1,-0.9 c -0.2,-0.1 -0.2,-0.1 -0.2,-0.2 0,0 0.1,-0.1 0.2,-0.1 0,0 0.2,0.2 0.4,0.3 0.1,0 0.2,0.2 0.4,0.3 l 2.3,-5.1 c 0.1,-0.2 0.2,-0.2 0.3,-0.2 0.1,0 0.2,0.1 0.3,0.2 l 5.4,11.1 c 0.1,0.1 0.1,0.2 0.1,0.2 0,0.1 -0.1,0.2 -0.3,0.2 -0.1,0 -0.1,0 -0.3,-0.2 l -5,-10.3 z"
           style="fill:#000000;fill-opacity:1;fill-rule:evenodd;stroke:none"
           id="path3957" />
        <path
           inkscape:connector-curvature="0"
           d="m 381.7,187.5 -3,0 0,0.5 6,0 0,-0.5 -3,0 z"
           style="fill:#000000;fill-opacity:1;fill-rule:evenodd;stroke:none"
           id="path3959" />
        <path
           inkscape:connector-curvature="0"
           d="m 382.2,182 c 1,0.3 1.6,1.1 1.6,2 0,1 -1,1.7 -2.2,1.7 -1.2,0 -2.1,-0.7 -2.1,-1.6 0,-0.4 0.3,-0.6 0.6,-0.6 0.4,0 0.7,0.2 0.7,0.6 0,0.5 -0.6,0.5 -0.8,0.5 0.4,0.6 1.2,0.8 1.6,0.8 0.5,0 1.2,-0.3 1.2,-1.3 0,-0.2 -0.1,-0.9 -0.4,-1.4 -0.4,-0.6 -0.8,-0.6 -1.1,-0.6 -0.1,0 -0.3,0 -0.4,0 -0.1,0 -0.2,-0.1 -0.2,-0.2 0,-0.1 0.1,-0.1 0.3,-0.1 l 0.5,0 c 1,0 1.4,-0.8 1.4,-2 0,-1.6 -0.8,-1.9 -1.3,-1.9 -0.5,0 -1.4,0.2 -1.9,0.9 0.5,-0.1 0.8,0.2 0.8,0.6 0,0.5 -0.3,0.7 -0.6,0.7 -0.3,0 -0.7,-0.2 -0.7,-0.7 0,-1.1 1.1,-1.8 2.4,-1.8 1.5,0 2.6,1 2.6,2.2 0,1 -0.8,1.9 -2,2.2 z"
           style="fill:#000000;fill-opacity:1;fill-rule:evenodd;stroke:none"
           id="path3961" />
        <path
           inkscape:connector-curvature="0"
           d="m 392.1,184.5 c 0.6,0.9 1.1,1 1.6,1 0.1,0 0.1,0.2 0.1,0.2 0,0.1 0,0.2 -0.1,0.2 -0.3,0 -0.7,-0.1 -1,-0.1 -0.4,0 -0.8,0.1 -1.2,0.1 -0.1,0 -0.2,0 -0.2,-0.3 0,-0.1 0.1,-0.1 0.2,-0.1 0.3,0 0.5,-0.1 0.5,-0.4 0,-0.2 -0.2,-0.4 -0.2,-0.4 l -3.6,-5.8 -0.8,6.2 c 0,0.2 0.2,0.4 0.8,0.4 0.1,0 0.3,0 0.3,0.2 0,0.1 -0.1,0.2 -0.2,0.2 -0.5,0 -1,-0.1 -1.5,-0.1 -0.2,0 -0.4,0 -0.6,0 -0.3,0 -0.5,0.1 -0.7,0.1 -0.1,0 -0.2,0 -0.2,-0.3 0,-0.1 0.1,-0.1 0.3,-0.1 0.7,0 0.7,-0.1 0.7,-0.4 l 1,-7.3 c 0,-0.2 0,-0.2 0.2,-0.2 0.2,0 0.2,0 0.3,0.2 l 4.3,6.7 z"
           style="fill:#000000;fill-opacity:1;fill-rule:evenodd;stroke:none"
           id="path3963" />
        <path
           inkscape:connector-curvature="0"
           d="m 397.9,182.8 c -0.1,-0.2 -0.2,-0.5 -0.2,-0.5 0,-0.2 0.2,-0.3 0.3,-0.3 0.2,0 0.3,0.1 0.3,0.2 0.1,0.1 0.1,0.3 0.2,0.5 0,0.2 0.1,0.5 0.2,0.7 0,0.2 0.1,0.4 0.1,0.6 0.1,0.4 0.1,0.4 0.3,0.6 0.2,0.4 0.7,0.9 1.3,0.9 0.5,0 0.5,-0.4 0.5,-0.6 0,-0.5 -0.4,-1.4 -0.5,-1.7 -0.1,-0.3 -0.1,-0.3 -0.1,-0.5 0,-0.4 0.4,-0.7 0.8,-0.7 0.8,0 1.2,1.1 1.2,1.3 0,0.1 -0.1,0.1 -0.1,0.1 -0.2,0 -0.2,-0.1 -0.2,-0.2 -0.2,-0.6 -0.6,-1 -0.9,-1 -0.2,0 -0.2,0.1 -0.2,0.3 0,0.2 0,0.3 0.2,0.7 0.1,0.2 0.4,1.1 0.4,1.6 0,0.1 0,0.5 -0.3,0.7 -0.1,0.1 -0.4,0.2 -0.8,0.2 -0.7,0 -1.2,-0.5 -1.4,-0.8 -0.1,0.7 -0.7,0.8 -1.1,0.8 -0.7,0 -1.2,-0.4 -1.4,-0.7 -0.1,0.6 -0.6,0.7 -0.9,0.7 -0.4,0 -0.6,-0.2 -0.7,-0.4 -0.2,-0.3 -0.3,-0.8 -0.3,-0.8 0,-0.1 0.1,-0.1 0.1,-0.1 0.2,0 0.2,0 0.2,0.2 0.1,0.5 0.3,0.9 0.7,0.9 0.2,0 0.2,-0.2 0.2,-0.4 0,-0.2 0,-0.5 -0.1,-0.7 -0.1,-0.2 -0.1,-0.6 -0.2,-0.7 l -0.3,-1.1 c 0,-0.1 -0.1,-0.3 -0.1,-0.3 0,-0.2 0.2,-0.3 0.3,-0.3 0.2,0 0.3,0.1 0.4,0.2 0,0.1 0.1,0.3 0.1,0.5 0.1,0.2 0.2,0.5 0.2,0.7 0,0.2 0.1,0.4 0.1,0.6 0.1,0.3 0.1,0.4 0.4,0.7 0.2,0.4 0.6,0.8 1.3,0.8 0.4,0 0.4,-0.4 0.4,-0.6 0,-0.2 0,-0.3 -0.1,-0.8 l -0.3,-1.3 z"
           style="fill:#000000;fill-opacity:1;fill-rule:evenodd;stroke:none"
           id="path3965" />
        <path
           inkscape:connector-curvature="0"
           d="m 396.2,178.1 c 0,0.1 0,0.1 0,0.2 0,0.1 -0.1,0.2 -0.2,0.2 -0.1,0 -0.3,0 -0.4,-0.2 0,0 -0.1,-0.3 -0.1,-0.5 l -0.2,-0.6 c -0.1,-0.2 -0.3,-1.3 -0.3,-1.4 0,0 -0.4,-0.7 -1.1,-0.7 -0.5,0 -0.5,0.5 -0.5,0.7 0,0.4 0.2,1 0.4,1.6 0.1,0.3 0.2,0.4 0.2,0.5 0,0.4 -0.4,0.7 -0.9,0.7 -0.8,0 -1.2,-1.1 -1.2,-1.3 0,-0.1 0.1,-0.1 0.2,-0.1 0.1,0 0.1,0.1 0.1,0.2 0.2,0.6 0.6,1 0.9,1 0.2,0 0.3,-0.1 0.3,-0.3 0,-0.2 -0.1,-0.4 -0.2,-0.5 -0.4,-1 -0.5,-1.3 -0.5,-1.7 0,-0.1 0,-0.5 0.3,-0.8 0.3,-0.2 0.7,-0.2 0.9,-0.2 0.3,0 0.6,0.1 0.9,0.3 -0.1,-0.4 -0.2,-0.8 -0.5,-1.1 -0.3,-0.3 -0.6,-0.6 -1,-0.6 -0.1,0 -0.5,0 -0.7,0.3 0.5,0.1 0.5,0.5 0.5,0.5 0,0.2 -0.3,0.2 -0.4,0.2 -0.2,0 -0.4,-0.1 -0.4,-0.5 0,-0.4 0.4,-0.7 1,-0.7 0.8,0 1.8,0.7 2.1,1.7 l 0.8,3.1 z"
           style="fill:#000000;fill-opacity:1;fill-rule:evenodd;stroke:none"
           id="path3967" />
        <path
           inkscape:connector-curvature="0"
           d="m 386,171.5 -17.2,0 0,0.5 34.5,0 0,-0.5 -17.3,0 z"
           style="fill:#000000;fill-opacity:1;fill-rule:evenodd;stroke:none"
           id="path3969" />
        <path
           inkscape:connector-curvature="0"
           d="m 384.5,161.7 1.3,1.2 c 1.9,1.6 2.6,2.2 2.6,3.4 0,1.4 -1.1,2.3 -2.5,2.3 -1.4,0 -2.3,-1.1 -2.3,-2.1 0,-0.7 0.6,-0.7 0.7,-0.7 0.2,0 0.6,0.2 0.6,0.6 0,0.3 -0.2,0.6 -0.7,0.6 0,0 -0.1,0 -0.1,0 0.3,0.8 0.9,1.2 1.6,1.2 1.1,0 1.6,-0.9 1.6,-1.9 0,-0.9 -0.6,-1.9 -1.2,-2.6 l -2.3,-2.5 c -0.2,-0.1 -0.2,-0.2 -0.2,-0.4 l 4.5,0 0.3,2 -0.3,0 c 0,-0.3 -0.1,-0.9 -0.2,-1 -0.1,-0.1 -0.9,-0.1 -1.2,-0.1 l -2.2,0 z"
           style="fill:#000000;fill-opacity:1;fill-rule:evenodd;stroke:none"
           id="path3971" />
        <path
           inkscape:connector-curvature="0"
           d="m 412.3,171.5 3.3,0 c 0.1,0 0.4,0 0.4,0.2 0,0.3 -0.3,0.3 -0.4,0.3 l -3.3,0 0,3.2 c 0,0.2 0,0.4 -0.3,0.4 -0.2,0 -0.3,-0.2 -0.3,-0.4 l 0,-3.2 -3.3,0 c -0.1,0 -0.4,0 -0.4,-0.3 0,-0.2 0.3,-0.2 0.4,-0.2 l 3.3,0 0,-3.3 c 0,-0.1 0,-0.4 0.3,-0.4 0.3,0 0.3,0.3 0.3,0.4 l 0,3.3 z"
           style="fill:#000000;fill-opacity:1;fill-rule:evenodd;stroke:none"
           id="path3973" />
        <path
           inkscape:connector-curvature="0"
           d="m 423.7,175.9 c 0.1,0.4 0.1,0.5 1.3,0.5 0.3,0 0.4,0 0.4,0.3 0,0.1 -0.1,0.1 -0.2,0.1 -0.4,0 -1.4,0 -1.8,0 -0.3,0 -1.2,0 -1.6,0 0,0 -0.2,0 -0.2,-0.2 0,-0.2 0.1,-0.2 0.3,-0.2 0.1,0 0.3,0 0.5,0 0.2,0 0.3,0 0.3,-0.2 0,0 0,-0.1 0,-0.2 l -1.6,-6.3 c -0.1,-0.4 -0.2,-0.5 -1.1,-0.5 -0.2,0 -0.3,0 -0.3,-0.3 0,-0.1 0.1,-0.1 0.3,-0.1 l 5.5,0 c 0.3,0 0.3,0 0.4,0.2 l 1,2.5 c 0,0.2 0,0.2 0,0.2 0,0.1 0,0.1 -0.2,0.1 -0.1,0 -0.1,0 -0.2,-0.2 -0.4,-1.1 -0.9,-2.4 -3,-2.4 l -1.1,0 c -0.2,0 -0.2,0 -0.3,0 -0.1,0 -0.1,0 -0.1,0.1 0,0 0,0.1 0.1,0.3 l 1.6,6.3 z"
           style="fill:#000000;fill-opacity:1;fill-rule:evenodd;stroke:none"
           id="path3975" />
        <path
           inkscape:connector-curvature="0"
           d="m 434.5,173.2 c 0,0.5 -0.2,0.8 -0.5,0.8 -0.3,0 -0.6,-0.2 -0.6,-0.5 0,-0.1 0.1,-0.3 0.2,-0.4 0.2,-0.2 0.4,-0.5 0.4,-1 0,-0.4 -0.2,-1.1 -0.6,-1.7 -0.4,-0.5 -0.8,-0.9 -1.4,-0.9 -0.6,0 -1,0.5 -1.1,1.1 0.1,0.3 0.4,1.1 0.4,1.4 0,0.1 -0.1,0.3 -0.2,0.3 -0.1,0 -0.3,-0.1 -0.4,-0.2 -0.1,-0.3 -0.2,-1 -0.2,-1.5 -0.4,-0.5 -0.9,-1.1 -1.7,-1.1 -0.7,0 -1,0.7 -1,1.4 0,1.5 1.2,2.7 1.2,2.9 0,0.1 0,0.2 -0.2,0.2 -0.2,0 -0.2,-0.2 -0.3,-0.3 -0.6,-0.8 -1.1,-2.2 -1.1,-3.3 0,-0.8 0.3,-1.7 1.3,-1.7 0.8,0 1.4,0.6 1.8,1.2 0.1,-0.7 0.6,-1.2 1.3,-1.2 1,0 1.6,0.7 2,1.6 0.3,0.6 0.7,2.2 0.7,2.9 z"
           style="fill:#000000;fill-opacity:1;fill-rule:evenodd;stroke:none"
           id="path3977" />
        <path
           inkscape:connector-curvature="0"
           d="m 435.3,166.1 c -0.1,-0.3 -0.1,-0.3 -0.4,-0.3 -0.2,0 -0.3,0 -0.3,-0.2 0,-0.1 0.1,-0.1 0.1,-0.1 0.3,0 0.6,0 0.8,0 0.3,0 0.6,0 0.9,0 0,0 0.1,0 0.1,0.1 0,0.2 -0.1,0.2 -0.2,0.2 -0.2,0 -0.4,0 -0.4,0.1 0,0 0.1,0.2 0.1,0.3 0.1,0.5 0.2,0.9 0.3,1.3 0.1,-0.2 0.4,-0.5 0.9,-0.5 1,0 2.1,1.1 2.1,2.3 0,1 -0.7,1.4 -1.2,1.4 -0.5,0 -1,-0.3 -1.2,-0.6 -0.2,0.5 -0.6,0.6 -0.9,0.6 -0.3,0 -0.5,-0.2 -0.6,-0.4 -0.2,-0.3 -0.4,-0.8 -0.4,-0.9 0,-0.1 0.1,-0.1 0.2,-0.1 0.1,0 0.1,0.1 0.2,0.3 0.1,0.5 0.3,0.9 0.6,0.9 0.2,0 0.3,-0.2 0.3,-0.4 0,-0.1 -0.1,-0.2 -0.1,-0.3 l -0.9,-3.7 z m 1.6,3.6 c 0.5,0.6 0.9,0.8 1.1,0.8 0.4,0 0.6,-0.3 0.6,-0.8 0,-0.4 -0.1,-1.2 -0.4,-1.7 -0.2,-0.4 -0.6,-0.8 -1,-0.8 -0.6,0 -0.8,0.6 -0.8,0.7 0,0.1 0,0.1 0,0.2 l 0.5,1.6 z"
           style="fill:#000000;fill-opacity:1;fill-rule:evenodd;stroke:none"
           id="path3979" />
      </g>
    </g>
  </g>
</svg>
