<?xml version="1.0" encoding="UTF-8" standalone="no"?>
<!-- Created with Inkscape (http://www.inkscape.org/) -->

<svg
   xmlns:dc="http://purl.org/dc/elements/1.1/"
   xmlns:cc="http://creativecommons.org/ns#"
   xmlns:rdf="http://www.w3.org/1999/02/22-rdf-syntax-ns#"
   xmlns:svg="http://www.w3.org/2000/svg"
   xmlns="http://www.w3.org/2000/svg"
   xmlns:sodipodi="http://sodipodi.sourceforge.net/DTD/sodipodi-0.dtd"
   xmlns:inkscape="http://www.inkscape.org/namespaces/inkscape"
   width="202.5"
   height="16.625"
   id="svg5610"
   version="1.1"
   inkscape:version="0.48.4 r9939"
   sodipodi:docname="Novo documento 19">
  <defs
     id="defs5612">
    <clipPath
       id="clipPath3659"
       clipPathUnits="userSpaceOnUse">
      <path
         inkscape:connector-curvature="0"
         id="path3661"
         clip-rule="evenodd"
         d="m 212.1,233.6 163.6,0 0,15 -163.6,0 0,-15 z" />
    </clipPath>
  </defs>
  <sodipodi:namedview
     id="base"
     pagecolor="#ffffff"
     bordercolor="#666666"
     borderopacity="1.0"
     inkscape:pageopacity="0.0"
     inkscape:pageshadow="2"
     inkscape:zoom="0.35"
     inkscape:cx="101.25"
     inkscape:cy="8.3124974"
     inkscape:document-units="px"
     inkscape:current-layer="layer1"
     showgrid="false"
     fit-margin-top="0"
     fit-margin-left="0"
     fit-margin-right="0"
     fit-margin-bottom="0"
     inkscape:window-width="575"
     inkscape:window-height="413"
     inkscape:window-x="0"
     inkscape:window-y="0"
     inkscape:window-maximized="0" />
  <metadata
     id="metadata5615">
    <rdf:RDF>
      <cc:Work
         rdf:about="">
        <dc:format>image/svg+xml</dc:format>
        <dc:type
           rdf:resource="http://purl.org/dc/dcmitype/StillImage" />
        <dc:title></dc:title>
      </cc:Work>
    </rdf:RDF>
  </metadata>
  <g
     inkscape:label="Camada 1"
     inkscape:groupmode="layer"
     id="layer1"
     transform="translate(-248.75,-524.04968)">
    <g
       id="g3655"
       transform="matrix(1.25,0,0,-1.25,-17.625,833.79968)">
      <g
         id="g3657"
         clip-path="url(#clipPath3659)">
        <path
           inkscape:connector-curvature="0"
           d="m 219.9,245.7 c 0.6,0.9 1.1,0.9 1.6,1 0.1,0 0.1,0.2 0.1,0.2 0,0.1 0,0.1 -0.1,0.1 -0.3,0 -0.7,0 -1,0 -0.4,0 -0.8,0 -1.2,0 -0.1,0 -0.3,0 -0.3,-0.2 0,-0.1 0.2,-0.1 0.3,-0.1 0.3,-0.1 0.5,-0.2 0.5,-0.4 0,-0.2 -0.2,-0.5 -0.2,-0.5 l -3.6,-5.7 -0.9,6.2 c 0,0.2 0.3,0.4 0.9,0.4 0.1,0 0.3,0 0.3,0.2 0,0.1 -0.1,0.1 -0.2,0.1 -0.5,0 -1,0 -1.5,0 -0.2,0 -0.4,0 -0.6,0 -0.3,0 -0.5,0 -0.7,0 -0.1,0 -0.2,0 -0.2,-0.2 0,-0.1 0.1,-0.1 0.3,-0.1 0.7,0 0.7,-0.1 0.7,-0.4 L 215,239 c 0.1,-0.2 0.1,-0.2 0.3,-0.2 0.2,0 0.2,0 0.3,0.2 l 4.3,6.7 z"
           style="fill:#000000;fill-opacity:1;fill-rule:evenodd;stroke:none"
           id="path3663" />
        <path
           inkscape:connector-curvature="0"
           d="m 225.6,244.5 c 0,-0.1 -0.1,-0.4 -0.1,-0.5 0,-0.1 0.2,-0.2 0.3,-0.2 0.1,0 0.3,0.1 0.3,0.2 0,0 0.1,0.3 0.2,0.5 0,0.1 0.1,0.5 0.1,0.7 0.1,0.2 0.1,0.4 0.2,0.6 0.1,0.3 0.1,0.3 0.3,0.6 0.2,0.4 0.6,0.9 1.3,0.9 0.5,0 0.5,-0.4 0.5,-0.6 0,-0.5 -0.4,-1.4 -0.5,-1.8 -0.1,-0.2 -0.1,-0.3 -0.1,-0.4 0,-0.5 0.4,-0.7 0.8,-0.7 0.8,0 1.2,1.1 1.2,1.2 0,0.1 -0.1,0.1 -0.2,0.1 -0.1,0 -0.1,0 -0.1,-0.1 -0.2,-0.7 -0.6,-1 -0.9,-1 -0.2,0 -0.2,0.1 -0.2,0.3 0,0.2 0,0.3 0.2,0.7 0.1,0.2 0.4,1.1 0.4,1.6 0,0.1 0,0.4 -0.3,0.7 -0.1,0.1 -0.4,0.2 -0.8,0.2 -0.7,0 -1.2,-0.5 -1.4,-0.8 -0.1,0.7 -0.7,0.8 -1.1,0.8 -0.7,0 -1.2,-0.4 -1.5,-0.8 0,0.6 -0.5,0.8 -0.9,0.8 -0.3,0 -0.5,-0.3 -0.6,-0.4 -0.2,-0.4 -0.3,-0.8 -0.3,-0.9 0,-0.1 0.1,-0.1 0.1,-0.1 0.1,0 0.1,0.1 0.2,0.3 0.1,0.5 0.3,0.9 0.6,0.9 0.2,0 0.3,-0.2 0.3,-0.4 0,-0.2 -0.1,-0.5 -0.1,-0.7 -0.1,-0.2 -0.2,-0.6 -0.2,-0.8 l -0.3,-1 c 0,-0.1 -0.1,-0.3 -0.1,-0.4 0,-0.1 0.2,-0.2 0.3,-0.2 0.2,0 0.3,0.1 0.3,0.2 0.1,0 0.1,0.3 0.2,0.5 0,0.1 0.1,0.5 0.2,0.7 0,0.2 0.1,0.4 0.1,0.6 0.1,0.3 0.1,0.4 0.4,0.7 0.2,0.3 0.6,0.8 1.2,0.8 0.5,0 0.5,-0.5 0.5,-0.6 0,-0.2 0,-0.3 -0.1,-0.8 l -0.4,-1.4 z"
           style="fill:#000000;fill-opacity:1;fill-rule:evenodd;stroke:none"
           id="path3665" />
        <path
           inkscape:connector-curvature="0"
           d="m 224,239.3 c 0,0.1 0,0.1 0,0.2 0,0.1 -0.1,0.2 -0.2,0.2 -0.1,0 -0.3,0 -0.4,-0.2 0,0 -0.1,-0.3 -0.1,-0.5 l -0.2,-0.6 c 0,-0.2 -0.3,-1.3 -0.3,-1.4 0,0 -0.4,-0.7 -1.1,-0.7 -0.5,0 -0.5,0.5 -0.5,0.7 0,0.4 0.2,1 0.4,1.6 0.1,0.3 0.2,0.4 0.2,0.5 0,0.4 -0.4,0.7 -0.9,0.7 -0.8,0 -1.2,-1.1 -1.2,-1.3 0,-0.1 0.1,-0.1 0.2,-0.1 0.1,0 0.1,0.1 0.1,0.2 0.2,0.6 0.6,1 0.9,1 0.2,0 0.3,-0.1 0.3,-0.3 0,-0.2 -0.1,-0.4 -0.2,-0.5 -0.4,-1 -0.5,-1.3 -0.5,-1.7 0,-0.1 0,-0.5 0.3,-0.8 0.3,-0.2 0.7,-0.2 0.9,-0.2 0.3,0 0.6,0.1 0.9,0.3 -0.1,-0.4 -0.2,-0.8 -0.5,-1.2 -0.3,-0.2 -0.6,-0.5 -1,-0.5 -0.1,0 -0.5,0 -0.7,0.3 0.5,0 0.5,0.4 0.5,0.4 0,0.3 -0.3,0.3 -0.4,0.3 -0.2,0 -0.4,-0.1 -0.4,-0.5 0,-0.4 0.4,-0.7 1,-0.7 0.8,0 1.9,0.6 2.1,1.7 l 0.8,3.1 z"
           style="fill:#000000;fill-opacity:1;fill-rule:evenodd;stroke:none"
           id="path3667" />
        <path
           inkscape:connector-curvature="0"
           d="m 242.6,242.9 c 0.2,0 0.4,0 0.4,0.2 0,0.2 -0.2,0.2 -0.4,0.2 l -7.2,0 c -0.1,0 -0.4,0 -0.4,-0.2 0,-0.2 0.3,-0.2 0.4,-0.2 l 7.2,0 z m 0,-2.3 c 0.2,0 0.4,0 0.4,0.2 0,0.3 -0.2,0.3 -0.4,0.3 l -7.2,0 c -0.1,0 -0.4,0 -0.4,-0.3 0,-0.2 0.3,-0.2 0.4,-0.2 l 7.2,0 z"
           style="fill:#000000;fill-opacity:1;fill-rule:evenodd;stroke:none"
           id="path3669" />
        <path
           inkscape:connector-curvature="0"
           d="m 254.8,241.7 c 0.2,0 0.4,0 0.4,0.2 0,0.3 -0.2,0.3 -0.4,0.3 l -6.5,0 c -0.2,0 -0.4,0 -0.4,-0.3 0,-0.2 0.2,-0.2 0.4,-0.2 l 6.5,0 z"
           style="fill:#000000;fill-opacity:1;fill-rule:evenodd;stroke:none"
           id="path3671" />
        <path
           inkscape:connector-curvature="0"
           d="m 260.6,241.3 c 0.3,0 1.3,-0.2 1.3,-1 0,-0.6 -0.4,-1.1 -1.4,-1.1 -1,0 -1.4,0.7 -1.6,1.7 -0.1,0.1 -0.1,0.2 -0.2,0.2 -0.2,0 -0.2,-0.1 -0.2,-0.3 l 0,-1.6 c 0,-0.2 0,-0.3 0.2,-0.3 0,0 0,0 0.3,0.3 0,0 0,0 0.2,0.2 0.5,-0.5 1.1,-0.5 1.3,-0.5 1.4,0 2,0.8 2,1.7 0,0.6 -0.4,0.9 -0.5,1 -0.5,0.4 -0.9,0.5 -1.4,0.6 -0.7,0.1 -1.5,0.3 -1.5,1 0,0.4 0.3,0.9 1.4,0.9 1.3,0 1.4,-1.1 1.4,-1.5 0,-0.1 0.1,-0.1 0.1,-0.1 0.2,0 0.2,0.1 0.2,0.3 l 0,1.2 c 0,0.2 0,0.3 -0.2,0.3 0,0 0,0 -0.2,-0.1 0,-0.1 -0.2,-0.2 -0.2,-0.2 -0.5,0.3 -1,0.3 -1.1,0.3 -1.5,0 -2,-0.8 -2,-1.4 0,-0.5 0.2,-0.8 0.5,-1.1 0.4,-0.3 0.8,-0.3 1.6,-0.5 z"
           style="fill:#000000;fill-opacity:1;fill-rule:evenodd;stroke:none"
           id="path3673" />
        <path
           inkscape:connector-curvature="0"
           d="m 265,244.2 -1.7,-0.1 0,-0.4 c 0.8,0 0.9,0 0.9,-0.6 l 0,-3.1 c 0,-0.6 -0.1,-0.6 -1,-0.6 l 0,-0.3 c 0.4,0 1.1,0 1.4,0 0.4,0 0.8,0 1.2,0 l 0,0.3 c -0.8,0 -0.8,0.1 -0.8,0.5 l 0,4.3 z m 0,2.1 c 0,0.4 -0.3,0.6 -0.6,0.6 -0.4,0 -0.6,-0.3 -0.6,-0.6 0,-0.3 0.2,-0.6 0.6,-0.6 0.3,0 0.6,0.2 0.6,0.6 z"
           style="fill:#000000;fill-opacity:1;fill-rule:evenodd;stroke:none"
           id="path3675" />
        <path
           inkscape:connector-curvature="0"
           d="m 267.5,243.1 0,-3.1 c 0,-0.6 -0.2,-0.6 -1,-0.6 l 0,-0.3 c 0.4,0 1,0 1.4,0 0.3,0 0.9,0 1.3,0 l 0,0.3 c -0.8,0 -0.9,0 -0.9,0.6 l 0,2.1 c 0,1.2 0.8,1.9 1.6,1.9 0.7,0 0.9,-0.7 0.9,-1.3 l 0,-2.7 c 0,-0.6 -0.2,-0.6 -1,-0.6 l 0,-0.3 c 0.5,0 1.1,0 1.4,0 0.3,0 0.9,0 1.3,0 l 0,0.3 c -0.6,0 -0.9,0 -0.9,0.4 l 0,2.2 c 0,1 0,1.4 -0.4,1.8 -0.1,0.2 -0.5,0.4 -1.2,0.4 -0.9,0 -1.5,-0.5 -1.8,-1.2 l 0,1.2 -1.7,-0.1 0,-0.4 c 0.9,0 1,0 1,-0.6 z"
           style="fill:#000000;fill-opacity:1;fill-rule:evenodd;stroke:none"
           id="path3677" />
        <path
           inkscape:connector-curvature="0"
           d="m 278.8,236.2 c 0,0.1 0,0.1 -0.2,0.3 -1.5,1.5 -1.9,3.7 -1.9,5.5 0,2 0.4,4 1.9,5.5 0.2,0.2 0.2,0.2 0.2,0.2 0,0.1 -0.1,0.1 -0.1,0.1 -0.2,0 -1.3,-0.8 -2,-2.3 -0.6,-1.3 -0.7,-2.6 -0.7,-3.5 0,-0.9 0.1,-2.3 0.8,-3.7 0.7,-1.4 1.7,-2.2 1.9,-2.2 0,0 0.1,0.1 0.1,0.1 z"
           style="fill:#000000;fill-opacity:1;fill-rule:evenodd;stroke:none"
           id="path3679" />
        <path
           inkscape:connector-curvature="0"
           d="m 284.9,244.9 c 0,0.8 -0.2,2.4 -1.5,2.4 -1.7,0 -3.5,-3.3 -3.5,-6 0,-1.1 0.4,-2.4 1.4,-2.4 1.7,0 3.6,3.4 3.6,6 z m -3.7,-1.6 c 0.2,0.7 0.4,1.7 0.9,2.5 0.3,0.6 0.8,1.2 1.3,1.2 0.6,0 0.7,-0.7 0.7,-1.4 0,-0.6 -0.1,-1.2 -0.4,-2.3 l -2.5,0 z m 2.4,-0.4 c -0.2,-0.5 -0.4,-1.5 -0.8,-2.4 -0.5,-0.8 -0.9,-1.3 -1.5,-1.3 -0.3,0 -0.6,0.3 -0.6,1.4 0,0.5 0.1,1.1 0.4,2.3 l 2.5,0 z"
           style="fill:#000000;fill-opacity:1;fill-rule:evenodd;stroke:none"
           id="path3681" />
        <path
           inkscape:connector-curvature="0"
           d="m 288.8,242 c 0,0.9 -0.1,2.3 -0.8,3.6 -0.7,1.5 -1.7,2.2 -1.8,2.2 -0.1,0 -0.2,0 -0.2,-0.1 0,0 0,0 0.3,-0.3 1.1,-1.1 1.8,-3 1.8,-5.4 0,-2 -0.4,-4.1 -1.9,-5.6 -0.2,-0.1 -0.2,-0.1 -0.2,-0.2 0,0 0.1,-0.1 0.2,-0.1 0.1,0 1.1,0.8 1.9,2.3 0.6,1.3 0.7,2.6 0.7,3.6 z"
           style="fill:#000000;fill-opacity:1;fill-rule:evenodd;stroke:none"
           id="path3683" />
        <path
           inkscape:connector-curvature="0"
           d="m 299.5,245.7 c 0.6,0.9 1.1,0.9 1.5,1 0.2,0 0.2,0.2 0.2,0.2 0,0.1 -0.1,0.1 -0.2,0.1 -0.3,0 -0.6,0 -1,0 -0.4,0 -0.8,0 -1.1,0 -0.1,0 -0.3,0 -0.3,-0.2 0,-0.1 0.2,-0.1 0.2,-0.1 0.4,-0.1 0.6,-0.2 0.6,-0.4 0,-0.2 -0.2,-0.5 -0.2,-0.5 l -3.7,-5.7 -0.8,6.2 c 0,0.2 0.3,0.4 0.8,0.4 0.2,0 0.3,0 0.3,0.2 0,0.1 -0.1,0.1 -0.1,0.1 -0.5,0 -1,0 -1.5,0 -0.2,0 -0.5,0 -0.7,0 -0.2,0 -0.4,0 -0.6,0 -0.1,0 -0.3,0 -0.3,-0.2 0,-0.1 0.1,-0.1 0.3,-0.1 0.7,0 0.7,-0.1 0.8,-0.4 l 0.9,-7.3 c 0,-0.2 0.1,-0.2 0.2,-0.2 0.3,0 0.3,0 0.4,0.2 l 4.3,6.7 z"
           style="fill:#000000;fill-opacity:1;fill-rule:evenodd;stroke:none"
           id="path3685" />
        <path
           inkscape:connector-curvature="0"
           d="m 306,246.5 c 0,0.2 0.2,0.6 0.2,0.6 0,0.2 -0.2,0.3 -0.3,0.3 -0.2,0 -0.3,-0.1 -0.4,-0.2 0,-0.1 -0.1,-0.4 -0.2,-0.7 -0.1,-0.4 -0.1,-0.4 -0.2,-0.9 -0.1,-0.5 -0.1,-0.5 -0.1,-0.8 0,-0.1 -0.1,-0.3 -0.3,-0.5 -0.1,-0.2 -0.2,-0.3 -0.5,-0.3 -0.4,0 -0.8,0.1 -0.8,0.8 0,0.4 0.2,1 0.4,1.4 0.2,0.4 0.2,0.4 0.2,0.6 0,0.4 -0.4,0.7 -0.8,0.7 -0.9,0 -1.2,-1.1 -1.2,-1.3 0,-0.1 0.1,-0.1 0.1,-0.1 0.1,0 0.1,0.1 0.2,0.2 0.2,0.6 0.5,1 0.9,1 0.1,0 0.2,-0.1 0.2,-0.3 0,-0.2 -0.1,-0.4 -0.1,-0.5 -0.5,-1.2 -0.5,-1.4 -0.5,-1.6 0,-1 0.9,-1.1 1.3,-1.1 0.2,0 0.6,0 1,0.5 0.2,-0.4 0.6,-0.5 1.2,-0.5 0.7,0 1.1,0.6 1.2,0.9 0.4,0.7 0.6,1.8 0.6,2.1 0,0.7 -0.3,0.7 -0.4,0.7 -0.2,0 -0.4,-0.2 -0.4,-0.4 0,-0.2 0,-0.2 0.1,-0.3 0.2,-0.2 0.3,-0.4 0.3,-0.7 0,-0.1 -0.3,-2.1 -1.4,-2.1 -0.7,0 -0.7,0.6 -0.7,0.7 0,0.3 0,0.4 0.2,0.9 l 0.2,0.9 z"
           style="fill:#000000;fill-opacity:1;fill-rule:evenodd;stroke:none"
           id="path3687" />
        <path
           inkscape:connector-curvature="0"
           d="m 301,237 c -0.1,-0.3 -0.3,-0.7 -0.8,-0.7 0,0 -0.3,0 -0.4,0.1 0.3,0.1 0.3,0.4 0.3,0.5 0,0.2 -0.1,0.3 -0.3,0.3 -0.2,0 -0.5,-0.2 -0.5,-0.5 0,-0.4 0.5,-0.6 0.9,-0.6 0.4,0 0.8,0.2 1,0.6 0.2,-0.5 0.6,-0.6 0.9,-0.6 1,0 1.5,1 1.5,1.2 0,0.1 -0.1,0.1 -0.1,0.1 -0.1,0 -0.1,0 -0.2,-0.1 -0.1,-0.6 -0.6,-1 -1.1,-1 -0.4,0 -0.5,0.2 -0.5,0.5 0,0.3 0.2,1 0.4,1.9 0.2,0.7 0.6,0.9 0.8,0.9 0.1,0 0.3,0 0.5,-0.1 -0.3,-0.1 -0.4,-0.4 -0.4,-0.5 0,-0.2 0.2,-0.3 0.4,-0.3 0.1,0 0.4,0.1 0.4,0.5 0,0.5 -0.5,0.6 -0.8,0.6 -0.5,0 -0.8,-0.3 -1,-0.6 -0.1,0.4 -0.5,0.6 -1,0.6 -0.9,0 -1.5,-1 -1.5,-1.3 0,-0.1 0.1,-0.1 0.2,-0.1 0.1,0 0.1,0.1 0.1,0.2 0.2,0.6 0.7,1 1.2,1 0.3,0 0.5,-0.2 0.5,-0.6 0,-0.1 -0.1,-0.6 -0.2,-0.8 L 301,237 z"
           style="fill:#000000;fill-opacity:1;fill-rule:evenodd;stroke:none"
           id="path3689" />
        <path
           inkscape:connector-curvature="0"
           d="m 316.8,241.7 3.4,0 c 0.1,0 0.4,0 0.4,0.2 0,0.3 -0.3,0.3 -0.4,0.3 l -3.4,0 0,3.3 c 0,0.1 0,0.4 -0.2,0.4 -0.2,0 -0.2,-0.3 -0.2,-0.4 l 0,-3.3 -3.4,0 c -0.2,0 -0.4,0 -0.4,-0.3 0,-0.2 0.2,-0.2 0.4,-0.2 l 3.4,0 0,-3.2 c 0,-0.2 0,-0.4 0.2,-0.4 0.2,0 0.2,0.2 0.2,0.4 l 0,3.2 z"
           style="fill:#000000;fill-opacity:1;fill-rule:evenodd;stroke:none"
           id="path3691" />
        <path
           inkscape:connector-curvature="0"
           d="m 325.2,241.6 c 0,1.9 1,2.4 1.7,2.4 0.1,0 0.8,0 1.2,-0.4 -0.4,-0.1 -0.5,-0.4 -0.5,-0.6 0,-0.3 0.2,-0.5 0.5,-0.5 0.4,0 0.6,0.2 0.6,0.5 0,0.8 -0.9,1.3 -1.8,1.3 -1.5,0 -2.7,-1.3 -2.7,-2.7 0,-1.5 1.2,-2.7 2.6,-2.7 1.7,0 2,1.4 2,1.6 0,0.1 -0.1,0.1 -0.1,0.1 -0.1,0 -0.2,-0.1 -0.2,-0.1 -0.4,-1.1 -1.1,-1.3 -1.6,-1.3 -0.6,0 -1.7,0.5 -1.7,2.4 z"
           style="fill:#000000;fill-opacity:1;fill-rule:evenodd;stroke:none"
           id="path3693" />
        <path
           inkscape:connector-curvature="0"
           d="m 334.8,241.5 c 0,1.6 -1.3,2.8 -2.7,2.8 -1.5,0 -2.7,-1.3 -2.7,-2.8 0,-1.4 1.3,-2.6 2.7,-2.6 1.4,0 2.7,1.2 2.7,2.6 z m -2.7,-2.3 c -0.5,0 -1,0.3 -1.4,0.8 -0.3,0.5 -0.3,1.2 -0.3,1.6 0,0.5 0,1.1 0.3,1.7 0.3,0.5 0.9,0.7 1.4,0.7 0.5,0 1,-0.2 1.3,-0.7 0.3,-0.5 0.3,-1.2 0.3,-1.7 0,-0.4 0,-1 -0.2,-1.5 -0.3,-0.5 -0.8,-0.9 -1.4,-0.9 z"
           style="fill:#000000;fill-opacity:1;fill-rule:evenodd;stroke:none"
           id="path3695" />
        <path
           inkscape:connector-curvature="0"
           d="m 337.5,241.3 c 0.3,0 1.3,-0.2 1.3,-1 0,-0.6 -0.4,-1.1 -1.4,-1.1 -1,0 -1.4,0.7 -1.6,1.7 0,0.1 -0.1,0.2 -0.2,0.2 -0.2,0 -0.2,-0.1 -0.2,-0.3 l 0,-1.6 c 0,-0.2 0,-0.3 0.2,-0.3 0,0 0,0 0.3,0.3 0,0 0,0 0.2,0.2 0.5,-0.5 1.1,-0.5 1.3,-0.5 1.4,0 2,0.8 2,1.7 0,0.6 -0.4,0.9 -0.5,1 -0.4,0.4 -0.9,0.5 -1.4,0.6 -0.7,0.1 -1.5,0.3 -1.5,1 0,0.4 0.3,0.9 1.4,0.9 1.3,0 1.4,-1.1 1.4,-1.5 0,-0.1 0.1,-0.1 0.1,-0.1 0.2,0 0.2,0.1 0.2,0.3 l 0,1.2 c 0,0.2 0,0.3 -0.2,0.3 0,0 0,0 -0.2,-0.1 0,-0.1 -0.2,-0.2 -0.2,-0.2 -0.4,0.3 -1,0.3 -1.1,0.3 -1.5,0 -2,-0.8 -2,-1.4 0,-0.5 0.2,-0.8 0.6,-1.1 0.4,-0.3 0.7,-0.3 1.5,-0.5 z"
           style="fill:#000000;fill-opacity:1;fill-rule:evenodd;stroke:none"
           id="path3697" />
        <path
           inkscape:connector-curvature="0"
           d="m 345.8,236.2 c 0,0.1 0,0.1 -0.2,0.3 -1.5,1.5 -1.9,3.7 -1.9,5.5 0,2 0.4,4 1.9,5.5 0.2,0.2 0.2,0.2 0.2,0.2 0,0.1 -0.1,0.1 -0.1,0.1 -0.2,0 -1.3,-0.8 -2,-2.3 -0.6,-1.3 -0.7,-2.6 -0.7,-3.5 0,-0.9 0.1,-2.3 0.8,-3.7 0.7,-1.4 1.7,-2.2 1.9,-2.2 0,0 0.1,0.1 0.1,0.1 z"
           style="fill:#000000;fill-opacity:1;fill-rule:evenodd;stroke:none"
           id="path3699" />
        <path
           inkscape:connector-curvature="0"
           d="m 351.9,244.9 c 0,0.8 -0.2,2.4 -1.4,2.4 -1.7,0 -3.5,-3.3 -3.5,-6 0,-1.1 0.3,-2.4 1.4,-2.4 1.7,0 3.5,3.4 3.5,6 z m -3.7,-1.6 c 0.2,0.7 0.5,1.7 1,2.5 0.3,0.6 0.7,1.2 1.2,1.2 0.7,0 0.7,-0.7 0.7,-1.4 0,-0.6 -0.1,-1.2 -0.4,-2.3 l -2.5,0 z m 2.4,-0.4 c -0.1,-0.5 -0.4,-1.5 -0.8,-2.4 -0.4,-0.8 -0.9,-1.3 -1.4,-1.3 -0.4,0 -0.7,0.3 -0.7,1.4 0,0.5 0.1,1.1 0.4,2.3 l 2.5,0 z"
           style="fill:#000000;fill-opacity:1;fill-rule:evenodd;stroke:none"
           id="path3701" />
        <path
           inkscape:connector-curvature="0"
           d="m 355.8,242 c 0,0.9 -0.1,2.3 -0.8,3.6 -0.7,1.5 -1.7,2.2 -1.8,2.2 -0.1,0 -0.2,0 -0.2,-0.1 0,0 0,0 0.3,-0.3 1.2,-1.1 1.8,-3 1.8,-5.4 0,-2 -0.4,-4.1 -1.9,-5.6 -0.2,-0.1 -0.2,-0.1 -0.2,-0.2 0,0 0.1,-0.1 0.2,-0.1 0.1,0 1.2,0.8 1.9,2.3 0.6,1.3 0.7,2.6 0.7,3.6 z"
           style="fill:#000000;fill-opacity:1;fill-rule:evenodd;stroke:none"
           id="path3703" />
        <path
           inkscape:connector-curvature="0"
           d="m 366.5,245.7 c 0.6,0.9 1.1,0.9 1.6,1 0.1,0 0.1,0.2 0.1,0.2 0,0.1 0,0.1 -0.1,0.1 -0.3,0 -0.7,0 -1,0 -0.4,0 -0.8,0 -1.2,0 -0.1,0 -0.2,0 -0.2,-0.2 0,-0.1 0.1,-0.1 0.2,-0.1 0.3,-0.1 0.5,-0.2 0.5,-0.4 0,-0.2 -0.2,-0.5 -0.2,-0.5 l -3.6,-5.7 -0.8,6.2 c 0,0.2 0.2,0.4 0.8,0.4 0.1,0 0.3,0 0.3,0.2 0,0.1 -0.1,0.1 -0.2,0.1 -0.5,0 -1,0 -1.5,0 -0.2,0 -0.4,0 -0.6,0 -0.3,0 -0.5,0 -0.7,0 -0.1,0 -0.2,0 -0.2,-0.2 0,-0.1 0.1,-0.1 0.3,-0.1 0.7,0 0.7,-0.1 0.7,-0.4 l 1,-7.3 c 0,-0.2 0,-0.2 0.2,-0.2 0.2,0 0.2,0 0.3,0.2 l 4.3,6.7 z"
           style="fill:#000000;fill-opacity:1;fill-rule:evenodd;stroke:none"
           id="path3705" />
        <path
           inkscape:connector-curvature="0"
           d="m 373,246.5 c 0.1,0.2 0.2,0.6 0.2,0.6 0,0.2 -0.2,0.3 -0.3,0.3 -0.2,0 -0.3,-0.1 -0.4,-0.2 0,-0.1 -0.1,-0.4 -0.2,-0.7 -0.1,-0.4 -0.1,-0.4 -0.2,-0.9 -0.1,-0.5 -0.1,-0.5 -0.1,-0.8 0,-0.1 -0.1,-0.3 -0.3,-0.5 -0.1,-0.2 -0.2,-0.3 -0.5,-0.3 -0.4,0 -0.8,0.1 -0.8,0.8 0,0.4 0.2,1 0.4,1.4 0.2,0.4 0.2,0.4 0.2,0.6 0,0.4 -0.4,0.7 -0.8,0.7 -0.8,0 -1.2,-1.1 -1.2,-1.3 0,-0.1 0.1,-0.1 0.1,-0.1 0.2,0 0.2,0.1 0.2,0.2 0.2,0.6 0.5,1 0.9,1 0.1,0 0.2,-0.1 0.2,-0.3 0,-0.2 -0.1,-0.4 -0.1,-0.5 -0.5,-1.2 -0.5,-1.4 -0.5,-1.6 0,-1 0.9,-1.1 1.4,-1.1 0.1,0 0.5,0 0.9,0.5 0.2,-0.4 0.7,-0.5 1.2,-0.5 0.7,0 1.1,0.6 1.2,0.9 0.4,0.7 0.6,1.8 0.6,2.1 0,0.7 -0.3,0.7 -0.4,0.7 -0.2,0 -0.4,-0.2 -0.4,-0.4 0,-0.2 0,-0.2 0.1,-0.3 0.2,-0.2 0.3,-0.4 0.3,-0.7 0,-0.1 -0.3,-2.1 -1.4,-2.1 -0.7,0 -0.7,0.6 -0.7,0.7 0,0.3 0,0.4 0.2,0.9 l 0.2,0.9 z"
           style="fill:#000000;fill-opacity:1;fill-rule:evenodd;stroke:none"
           id="path3707" />
        <path
           inkscape:connector-curvature="0"
           d="m 370.6,239.3 c 0,0.1 0,0.1 0,0.2 0,0.1 -0.1,0.2 -0.2,0.2 -0.1,0 -0.3,0 -0.4,-0.2 0,0 -0.1,-0.3 -0.1,-0.5 l -0.2,-0.6 c 0,-0.2 -0.3,-1.3 -0.3,-1.4 0,0 -0.4,-0.7 -1.1,-0.7 -0.5,0 -0.5,0.5 -0.5,0.7 0,0.4 0.2,1 0.4,1.6 0.1,0.3 0.2,0.4 0.2,0.5 0,0.4 -0.4,0.7 -0.8,0.7 -0.9,0 -1.3,-1.1 -1.3,-1.3 0,-0.1 0.1,-0.1 0.2,-0.1 0.1,0 0.1,0.1 0.1,0.2 0.2,0.6 0.6,1 0.9,1 0.2,0 0.3,-0.1 0.3,-0.3 0,-0.2 -0.1,-0.4 -0.2,-0.5 -0.4,-1 -0.5,-1.3 -0.5,-1.7 0,-0.1 0,-0.5 0.4,-0.8 0.2,-0.2 0.6,-0.2 0.8,-0.2 0.3,0 0.6,0.1 0.9,0.3 -0.1,-0.4 -0.2,-0.8 -0.5,-1.2 -0.3,-0.2 -0.6,-0.5 -1,-0.5 -0.1,0 -0.5,0 -0.7,0.3 0.5,0 0.5,0.4 0.5,0.4 0,0.3 -0.2,0.3 -0.4,0.3 -0.2,0 -0.4,-0.1 -0.4,-0.5 0,-0.4 0.4,-0.7 1,-0.7 0.8,0 1.9,0.6 2.1,1.7 l 0.8,3.1 z"
           style="fill:#000000;fill-opacity:1;fill-rule:evenodd;stroke:none"
           id="path3709" />
      </g>
    </g>
  </g>
</svg>
